<svg width="149" height="44" viewBox="0 0 149 44" fill="none" xmlns="http://www.w3.org/2000/svg">
<g filter="url(#filter0_dd_58_345)">
<rect x="5" y="1" width="139" height="34" rx="17" fill="white" stroke="#043E5F" stroke-width="2"/>
<path d="M52.8662 25V10.2549H55.9834C56.8242 10.2549 57.6035 10.2993 58.3213 10.3882C59.0459 10.4702 59.709 10.6172 60.3105 10.8291C60.9121 11.041 61.4385 11.3247 61.8896 11.6802C62.3477 12.0288 62.7407 12.4766 63.0688 13.0234C63.3901 13.5703 63.6328 14.2197 63.7969 14.9717C63.9609 15.7236 64.043 16.6089 64.043 17.6274C64.043 18.646 63.9609 19.5312 63.7969 20.2832C63.6328 21.0352 63.3901 21.6846 63.0688 22.2314C62.7407 22.7783 62.3477 23.2295 61.8896 23.585C61.4385 23.9336 60.9121 24.2139 60.3105 24.4258C59.709 24.6377 59.0459 24.7881 58.3213 24.877C57.6035 24.959 56.8242 25 55.9834 25H52.8662ZM56.3013 23.4209C57.3472 23.4209 58.2324 23.3184 58.957 23.1133C59.6885 22.9014 60.2866 22.5596 60.7515 22.0879C61.2095 21.6162 61.541 21.0181 61.7461 20.2935C61.958 19.562 62.064 18.6733 62.064 17.6274C62.064 16.5815 61.958 15.6963 61.7461 14.9717C61.541 14.2402 61.2095 13.6387 60.7515 13.167C60.2866 12.6953 59.6885 12.3569 58.957 12.1519C58.2324 11.9399 57.3472 11.834 56.3013 11.834H54.7939V23.4209H56.3013ZM67.4575 16.2227L67.0063 14.7871C68.1548 14.3291 69.3579 14.1001 70.6157 14.1001C71.7163 14.1001 72.5571 14.2847 73.1382 14.6538C73.8013 15.0776 74.1328 15.7988 74.1328 16.8174V21.0112C74.1328 21.5718 74.1396 22.146 74.1533 22.7339C74.1602 23.0825 74.1943 23.4448 74.2559 23.8208C74.3105 24.1763 74.3823 24.5146 74.4712 24.8359L72.7896 25.2051C72.6323 24.7471 72.5332 24.2344 72.4922 23.667L72.2871 23.6465C71.4395 24.7129 70.3594 25.2461 69.0469 25.2461C68.0898 25.2461 67.3208 24.9829 66.7397 24.4565C66.1587 23.9233 65.8682 23.1748 65.8682 22.2109C65.8682 21.4932 66.0254 20.9053 66.3398 20.4473C66.6611 19.9893 67.1123 19.603 67.6934 19.2886C68.6094 18.7896 69.8911 18.54 71.5386 18.54C71.7573 18.54 72.0513 18.5469 72.4204 18.5605V17.002C72.4204 16.5098 72.27 16.1543 71.9692 15.9355C71.6685 15.7168 71.1968 15.6074 70.5542 15.6074C69.6177 15.6074 68.5854 15.8125 67.4575 16.2227ZM72.4204 22.0059V19.8525C72.2358 19.8389 71.9658 19.832 71.6104 19.832C71.0088 19.832 70.4551 19.8833 69.9492 19.9858C69.1973 20.1362 68.6128 20.3755 68.1958 20.7036C67.7856 21.0249 67.5806 21.4897 67.5806 22.0981C67.5806 23.1919 68.1753 23.7388 69.3647 23.7388C69.98 23.7388 70.5542 23.5747 71.0874 23.2466C71.5249 22.9731 71.9692 22.5596 72.4204 22.0059ZM78.5522 10.2036C78.8667 10.2036 79.1401 10.313 79.3726 10.5317C79.5981 10.771 79.7109 11.0513 79.7109 11.3726C79.7109 11.7007 79.5981 11.9775 79.3726 12.2031C79.1401 12.4355 78.8667 12.5518 78.5522 12.5518C78.2241 12.5518 77.9438 12.4355 77.7114 12.2031C77.479 11.9844 77.3628 11.7075 77.3628 11.3726C77.3628 11.0444 77.479 10.7642 77.7114 10.5317C77.9438 10.313 78.2241 10.2036 78.5522 10.2036ZM77.6499 14.3359H79.4136V25H77.6499V14.3359ZM84.5713 20.8574C84.5713 21.418 84.5781 21.8896 84.5918 22.2725C84.6055 22.6484 84.6226 22.98 84.6431 23.2671C84.6636 23.5542 84.6943 23.814 84.7354 24.0464C84.7832 24.2788 84.8413 24.5352 84.9097 24.8154C84.6226 24.8906 84.3354 24.959 84.0483 25.0205C83.7612 25.0889 83.4741 25.147 83.187 25.1948C83.0503 24.7505 82.9512 24.3438 82.8896 23.9746C82.835 23.6055 82.8076 23.2432 82.8076 22.8877V10.2549H84.5713V20.8574ZM96.6094 14.3359V25.2358C96.6094 25.9126 96.4966 26.4971 96.271 26.9893C96.0522 27.4814 95.7446 27.8882 95.3481 28.2095C94.9585 28.5308 94.4937 28.7666 93.9536 28.917C93.4136 29.0742 92.8257 29.1528 92.1899 29.1528C91.6157 29.1528 91.0381 29.1016 90.457 28.999C89.876 28.9033 89.3223 28.7666 88.7959 28.5889C88.8848 28.3496 88.9771 28.1172 89.0728 27.8916C89.1685 27.666 89.2642 27.4404 89.3599 27.2148C89.5239 27.2695 89.7188 27.3276 89.9443 27.3892C90.1768 27.4507 90.4194 27.5054 90.6724 27.5532C90.9321 27.6079 91.1953 27.6489 91.4619 27.6763C91.7354 27.7104 91.9985 27.7275 92.2515 27.7275C92.6479 27.7275 93.0068 27.6729 93.3281 27.5635C93.6494 27.4609 93.9229 27.3037 94.1484 27.0918C94.374 26.8799 94.5449 26.6167 94.6611 26.3022C94.7842 25.9946 94.8457 25.6392 94.8457 25.2358V22.9185H94.6509C94.4731 23.2397 94.2681 23.5439 94.0356 23.8311C93.8032 24.1113 93.5469 24.3574 93.2666 24.5693C92.9863 24.7812 92.6821 24.9453 92.354 25.0615C92.0327 25.1846 91.6909 25.2461 91.3286 25.2461C90.8296 25.2461 90.3955 25.188 90.0264 25.0718C89.6572 24.9624 89.3394 24.7983 89.0728 24.5796C88.813 24.354 88.5977 24.0771 88.4268 23.749C88.2627 23.4141 88.1362 23.0278 88.0474 22.5903C87.9722 22.2007 87.9243 21.7837 87.9038 21.3394C87.8833 20.895 87.873 20.437 87.873 19.9653V14.3359H89.6367V20.4575C89.6367 20.9019 89.6572 21.3188 89.6982 21.7085C89.7393 22.0913 89.8281 22.4263 89.9648 22.7134C90.1084 22.9937 90.3169 23.2158 90.5903 23.3799C90.8638 23.5371 91.2363 23.6157 91.708 23.6157C92.0566 23.6157 92.3848 23.5337 92.6924 23.3696C93 23.1987 93.2837 22.9834 93.5435 22.7236C93.8032 22.4639 94.0391 22.1768 94.251 21.8623C94.4697 21.5479 94.668 21.2402 94.8457 20.9395V14.3359H96.6094Z" fill="#043E5F"/>
</g>
<defs>
<filter id="filter0_dd_58_345" x="0" y="0" width="149" height="44" filterUnits="userSpaceOnUse" color-interpolation-filters="sRGB">
<feFlood flood-opacity="0" result="BackgroundImageFix"/>
<feColorMatrix in="SourceAlpha" type="matrix" values="0 0 0 0 0 0 0 0 0 0 0 0 0 0 0 0 0 0 127 0" result="hardAlpha"/>
<feOffset dy="4"/>
<feGaussianBlur stdDeviation="2"/>
<feComposite in2="hardAlpha" operator="out"/>
<feColorMatrix type="matrix" values="0 0 0 0 0 0 0 0 0 0 0 0 0 0 0 0 0 0 0.25 0"/>
<feBlend mode="normal" in2="BackgroundImageFix" result="effect1_dropShadow_58_345"/>
<feColorMatrix in="SourceAlpha" type="matrix" values="0 0 0 0 0 0 0 0 0 0 0 0 0 0 0 0 0 0 127 0" result="hardAlpha"/>
<feOffset dy="4"/>
<feGaussianBlur stdDeviation="2"/>
<feComposite in2="hardAlpha" operator="out"/>
<feColorMatrix type="matrix" values="0 0 0 0 0 0 0 0 0 0 0 0 0 0 0 0 0 0 0.25 0"/>
<feBlend mode="normal" in2="effect1_dropShadow_58_345" result="effect2_dropShadow_58_345"/>
<feBlend mode="normal" in="SourceGraphic" in2="effect2_dropShadow_58_345" result="shape"/>
</filter>
</defs>
</svg>
