<svg width="92" height="25" viewBox="0 0 92 25" fill="none" xmlns="http://www.w3.org/2000/svg">
<g filter="url(#filter0_d_60_53)">
<path d="M11.9121 0.167969L13.0283 1.06445L8.17676 6.8125L13.4502 13H11.4639L6.26953 6.90039V13H4.61719V0.361328H6.26953V6.86523L11.9121 0.167969ZM22.8633 12.4902C22.2129 12.748 21.6006 12.9326 21.0264 13.0439C20.458 13.1553 19.9482 13.2109 19.4971 13.2109C18.8057 13.2109 18.2021 13.1025 17.6865 12.8857C17.1709 12.6631 16.7402 12.3525 16.3945 11.9541C16.0547 11.5557 15.7969 11.0811 15.6211 10.5303C15.4512 9.97363 15.3662 9.36133 15.3662 8.69336C15.3662 8.2832 15.3955 7.87305 15.4541 7.46289C15.5127 7.05273 15.6064 6.66309 15.7354 6.29395C15.8643 5.91895 16.0312 5.57031 16.2363 5.24805C16.4473 4.92578 16.7021 4.64746 17.001 4.41309C17.2998 4.17871 17.6484 3.99414 18.0469 3.85938C18.4453 3.72461 18.8994 3.65723 19.4092 3.65723C20.7158 3.65723 21.7002 4.06738 22.3623 4.8877C23.0244 5.70215 23.3555 6.87109 23.3555 8.39453V8.87793H16.9219C16.9219 9.37012 16.9746 9.80664 17.0801 10.1875C17.1855 10.5625 17.3467 10.8818 17.5635 11.1455C17.7861 11.4033 18.0645 11.5996 18.3984 11.7344C18.7383 11.8691 19.1396 11.9365 19.6025 11.9365C19.8604 11.9365 20.1152 11.9189 20.3672 11.8838C20.625 11.8428 20.874 11.793 21.1143 11.7344C21.3545 11.6699 21.583 11.5996 21.7998 11.5234C22.0225 11.4473 22.2305 11.374 22.4238 11.3037L22.8633 12.4902ZM21.835 7.66504C21.7881 6.71582 21.5596 6.02441 21.1494 5.59082C20.7451 5.15137 20.165 4.93164 19.4092 4.93164C18.6533 4.93164 18.0762 5.15137 17.6777 5.59082C17.2852 6.02441 17.0479 6.71582 16.9658 7.66504H21.835ZM33.1113 3.85938V13.2021C33.1113 13.7822 33.0146 14.2832 32.8213 14.7051C32.6338 15.127 32.3701 15.4756 32.0303 15.751C31.6963 16.0264 31.2979 16.2285 30.835 16.3574C30.3721 16.4922 29.8682 16.5596 29.3232 16.5596C28.8311 16.5596 28.3359 16.5156 27.8379 16.4277C27.3398 16.3457 26.8652 16.2285 26.4141 16.0762C26.4902 15.8711 26.5693 15.6719 26.6514 15.4785C26.7334 15.2852 26.8154 15.0918 26.8975 14.8984C27.0381 14.9453 27.2051 14.9951 27.3984 15.0479C27.5977 15.1006 27.8057 15.1475 28.0225 15.1885C28.2451 15.2354 28.4707 15.2705 28.6992 15.2939C28.9336 15.3232 29.1592 15.3379 29.376 15.3379C29.7158 15.3379 30.0234 15.291 30.2988 15.1973C30.5742 15.1094 30.8086 14.9746 31.002 14.793C31.1953 14.6113 31.3418 14.3857 31.4414 14.1162C31.5469 13.8525 31.5996 13.5479 31.5996 13.2021V11.2158H31.4326C31.2803 11.4912 31.1045 11.752 30.9053 11.998C30.7061 12.2383 30.4863 12.4492 30.2461 12.6309C30.0059 12.8125 29.7451 12.9531 29.4639 13.0527C29.1885 13.1582 28.8955 13.2109 28.585 13.2109C28.1572 13.2109 27.7852 13.1611 27.4688 13.0615C27.1523 12.9678 26.8799 12.8271 26.6514 12.6396C26.4287 12.4463 26.2441 12.209 26.0977 11.9277C25.957 11.6406 25.8486 11.3096 25.7725 10.9346C25.708 10.6006 25.667 10.2432 25.6494 9.8623C25.6318 9.48145 25.623 9.08887 25.623 8.68457V3.85938H27.1348V9.10645C27.1348 9.4873 27.1523 9.84473 27.1875 10.1787C27.2227 10.5068 27.2988 10.7939 27.416 11.04C27.5391 11.2803 27.7178 11.4707 27.9521 11.6113C28.1865 11.7461 28.5059 11.8135 28.9102 11.8135C29.209 11.8135 29.4902 11.7432 29.7539 11.6025C30.0176 11.4561 30.2607 11.2715 30.4834 11.0488C30.7061 10.8262 30.9082 10.5801 31.0898 10.3105C31.2773 10.041 31.4473 9.77734 31.5996 9.51953V3.85938H33.1113ZM44.4316 13H42.4189L41.3203 8.75488L39.5537 13H37.5674L35.2295 3.85059H36.7412L38.666 11.9014L40.793 6.62793L40.0811 3.85059H41.5928L43.5703 11.9014C44.2031 10.4365 44.6455 9.33496 44.8975 8.59668C45.2021 7.7002 45.3545 6.92969 45.3545 6.28516C45.3545 5.72266 45.2168 4.96387 44.9414 4.00879C45.4746 3.87402 45.958 3.76562 46.3916 3.68359C46.6377 4.28711 46.793 4.9375 46.8574 5.63477C46.875 5.81055 46.8838 5.98926 46.8838 6.1709C46.8838 7.13184 46.6143 8.25098 46.0752 9.52832C45.9287 9.86816 45.7617 10.2344 45.5742 10.627C45.3926 11.0137 45.1758 11.4648 44.9238 11.9805C44.6777 12.4902 44.5137 12.8301 44.4316 13ZM52.6494 3.65723C52.9365 3.65723 53.2354 3.68066 53.5459 3.72754C53.8564 3.76855 54.1611 3.85059 54.46 3.97363C54.7588 4.10254 55.04 4.27832 55.3037 4.50098C55.5732 4.71777 55.8105 5.00195 56.0156 5.35352C56.2207 5.71094 56.3818 6.1416 56.499 6.64551C56.6162 7.14355 56.6748 7.73828 56.6748 8.42969C56.6748 9.12109 56.6162 9.71875 56.499 10.2227C56.3818 10.7207 56.2207 11.1455 56.0156 11.4971C55.8105 11.8545 55.5732 12.1445 55.3037 12.3672C55.04 12.5898 54.7588 12.7627 54.46 12.8857C54.1611 13.0146 53.8564 13.0996 53.5459 13.1406C53.2354 13.1875 52.9365 13.2109 52.6494 13.2109C52.3682 13.2109 52.0723 13.1875 51.7617 13.1406C51.457 13.0996 51.1553 13.0146 50.8564 12.8857C50.5576 12.7627 50.2764 12.5898 50.0127 12.3672C49.749 12.1445 49.5146 11.8545 49.3096 11.4971C49.1045 11.1455 48.9434 10.7207 48.8262 10.2227C48.709 9.71875 48.6504 9.12109 48.6504 8.42969C48.6504 7.73828 48.709 7.14355 48.8262 6.64551C48.9434 6.1416 49.1045 5.71094 49.3096 5.35352C49.5146 5.00195 49.749 4.71777 50.0127 4.50098C50.2764 4.27832 50.5576 4.10254 50.8564 3.97363C51.1553 3.85059 51.457 3.76855 51.7617 3.72754C52.0664 3.68066 52.3623 3.65723 52.6494 3.65723ZM52.6494 4.89648C52.3154 4.89648 51.999 4.94922 51.7002 5.05469C51.4072 5.16016 51.1494 5.34473 50.9268 5.6084C50.6982 5.87793 50.5166 6.23828 50.3818 6.68945C50.2471 7.14062 50.1797 7.7207 50.1797 8.42969C50.1797 9.13281 50.2471 9.71289 50.3818 10.1699C50.5166 10.6211 50.6982 10.9785 50.9268 11.2422C51.1494 11.5117 51.4072 11.6992 51.7002 11.8047C51.999 11.9043 52.3154 11.9541 52.6494 11.9541C52.9893 11.9541 53.3086 11.9043 53.6074 11.8047C53.9121 11.6992 54.1787 11.5117 54.4072 11.2422C54.6357 10.9785 54.8145 10.6211 54.9434 10.1699C55.0781 9.71289 55.1455 9.13281 55.1455 8.42969C55.1455 7.7207 55.0781 7.14062 54.9434 6.68945C54.8145 6.23828 54.6357 5.87793 54.4072 5.6084C54.1787 5.34473 53.9121 5.16016 53.6074 5.05469C53.3086 4.94922 52.9893 4.89648 52.6494 4.89648ZM60.6826 5.97754C60.8643 5.61426 61.0576 5.28613 61.2627 4.99316C61.4736 4.7002 61.7051 4.45117 61.957 4.24609C62.1855 4.04688 62.4375 3.90039 62.7129 3.80664C62.9883 3.70703 63.3018 3.65723 63.6533 3.65723C63.7705 3.65723 63.9053 3.66309 64.0576 3.6748C64.2158 3.68652 64.3652 3.70703 64.5059 3.73633C64.4824 4.0293 64.4531 4.30469 64.418 4.5625C64.3887 4.82031 64.3477 5.08105 64.2949 5.34473C64.002 5.29199 63.7324 5.25391 63.4863 5.23047C63.2461 5.20703 63.0176 5.21289 62.8008 5.24805C62.543 5.29492 62.3174 5.38281 62.124 5.51172C61.9365 5.63477 61.7607 5.80176 61.5967 6.0127C61.4385 6.21777 61.2832 6.4668 61.1309 6.75977C60.9785 7.04688 60.8115 7.37793 60.6299 7.75293V13H59.1182V7.36621C59.1182 6.99707 59.1123 6.67188 59.1006 6.39062C59.0947 6.10938 59.0771 5.84277 59.0479 5.59082C59.0244 5.33301 58.9863 5.08105 58.9336 4.83496C58.8809 4.58301 58.8105 4.30469 58.7227 4C58.9688 3.93555 59.209 3.87695 59.4434 3.82422C59.6836 3.77148 59.9268 3.72168 60.1729 3.6748C60.2549 3.90918 60.3193 4.11719 60.3662 4.29883C60.4189 4.48047 60.46 4.65918 60.4893 4.83496C60.5186 5.00488 60.5391 5.18066 60.5508 5.3623C60.5684 5.53809 60.5859 5.74316 60.6035 5.97754H60.6826ZM71.7129 0.34375H73.2246V9.5459C73.2246 10.5771 73.2393 11.2539 73.2686 11.5762C73.2979 11.9746 73.3652 12.4023 73.4707 12.8594L72.0117 13.1846C71.9121 12.8564 71.8389 12.5254 71.792 12.1914C71.7334 11.7812 71.7012 11.4648 71.6953 11.2422H71.5635C71.2588 11.875 70.9219 12.3408 70.5527 12.6396C70.1074 13.0205 69.5566 13.2109 68.9004 13.2109C68.3262 13.2109 67.8311 13.0879 67.415 12.8418C66.999 12.5898 66.6738 12.2412 66.4395 11.7959C66.2109 11.3506 66.041 10.8613 65.9297 10.3281C65.8242 9.79492 65.7715 9.20605 65.7715 8.56152C65.7715 7.83496 65.8447 7.18164 65.9912 6.60156C66.1436 6.02148 66.375 5.50879 66.6855 5.06348C66.9961 4.6123 67.4121 4.2666 67.9336 4.02637C68.4551 3.78027 69.0674 3.65723 69.7705 3.65723C70.3213 3.65723 70.9688 3.73047 71.7129 3.87695V0.34375ZM71.7129 9.2998V5.21289C71.0508 5.03711 70.4414 4.94922 69.8848 4.94922C69.4102 4.94922 69 5.03711 68.6543 5.21289C68.3145 5.38281 68.0479 5.62598 67.8545 5.94238C67.6611 6.25293 67.5205 6.60156 67.4326 6.98828C67.3447 7.375 67.3008 7.80859 67.3008 8.28906C67.3008 8.61719 67.3066 8.90723 67.3184 9.15918C67.3359 9.40527 67.3623 9.6748 67.3975 9.96777C67.4385 10.2549 67.5 10.501 67.582 10.7061C67.6641 10.9111 67.7666 11.1016 67.8896 11.2773C68.0127 11.4531 68.1709 11.5879 68.3643 11.6816C68.5635 11.7695 68.792 11.8135 69.0498 11.8135C69.6709 11.8135 70.21 11.5645 70.667 11.0664C70.9951 10.7031 71.3438 10.1143 71.7129 9.2998ZM78.9639 3.65723C79.4443 3.65723 79.9248 3.70703 80.4053 3.80664C80.8916 3.90625 81.3428 4.04395 81.7588 4.21973C81.6768 4.40723 81.5918 4.5918 81.5039 4.77344C81.416 4.95508 81.3193 5.13379 81.2139 5.30957C81.0674 5.25098 80.9033 5.19238 80.7217 5.13379C80.5459 5.0752 80.3584 5.02539 80.1592 4.98438C79.9658 4.94336 79.7637 4.91113 79.5527 4.8877C79.3477 4.8584 79.1455 4.84375 78.9463 4.84375C78.7295 4.84375 78.5186 4.86719 78.3135 4.91406C78.1143 4.95508 77.9355 5.02539 77.7773 5.125C77.625 5.22461 77.502 5.35645 77.4082 5.52051C77.3145 5.67871 77.2676 5.87793 77.2676 6.11816C77.2676 6.36426 77.3203 6.57227 77.4258 6.74219C77.5312 6.90625 77.6748 7.04395 77.8564 7.15527C78.0381 7.2666 78.249 7.36035 78.4893 7.43652C78.7354 7.5127 78.9961 7.58301 79.2715 7.64746C79.6992 7.75293 80.0977 7.87305 80.4668 8.00781C80.8359 8.13672 81.1553 8.30664 81.4248 8.51758C81.6943 8.72852 81.9053 8.98926 82.0576 9.2998C82.21 9.61035 82.2861 9.99414 82.2861 10.4512C82.2861 10.9316 82.1895 11.3447 81.9961 11.6904C81.8086 12.0361 81.5508 12.3232 81.2227 12.5518C80.9004 12.7744 80.5225 12.9385 80.0889 13.0439C79.6553 13.1553 79.1924 13.2109 78.7002 13.2109C78.4424 13.2109 78.1758 13.1934 77.9004 13.1582C77.6309 13.1289 77.3613 13.082 77.0918 13.0176C76.8281 12.959 76.5674 12.8857 76.3096 12.7979C76.0518 12.71 75.8086 12.6133 75.5801 12.5078C75.6621 12.3203 75.7471 12.1387 75.835 11.9629C75.9287 11.7812 76.0254 11.6025 76.125 11.4268C76.3184 11.5088 76.5234 11.5879 76.7402 11.6641C76.957 11.7344 77.1797 11.7959 77.4082 11.8486C77.6367 11.9014 77.8623 11.9453 78.085 11.9805C78.3076 12.0098 78.5215 12.0244 78.7266 12.0244C78.9844 12.0244 79.2334 11.9951 79.4736 11.9365C79.7197 11.8779 79.9365 11.7871 80.124 11.6641C80.3174 11.5352 80.4697 11.3711 80.5811 11.1719C80.6982 10.9727 80.7568 10.7324 80.7568 10.4512C80.7568 10.1875 80.7012 9.9707 80.5898 9.80078C80.4844 9.63086 80.3408 9.49023 80.1592 9.37891C79.9775 9.26172 79.7637 9.16797 79.5176 9.09766C79.2773 9.02148 79.0225 8.95117 78.7529 8.88672C78.3428 8.78711 77.9531 8.67285 77.584 8.54395C77.2207 8.41504 76.9014 8.24805 76.626 8.04297C76.3564 7.83203 76.1396 7.57422 75.9756 7.26953C75.8174 6.95898 75.7383 6.5752 75.7383 6.11816C75.7383 5.69043 75.8262 5.32129 76.002 5.01074C76.1777 4.7002 76.4121 4.44531 76.7051 4.24609C77.0039 4.04688 77.3467 3.90039 77.7334 3.80664C78.126 3.70703 78.5361 3.65723 78.9639 3.65723ZM86.1182 5.2041C86.2822 5.2041 86.4346 5.23633 86.5752 5.30078C86.7217 5.35938 86.8477 5.44141 86.9531 5.54688C87.0586 5.65234 87.1406 5.77832 87.1992 5.9248C87.2637 6.06543 87.2959 6.21777 87.2959 6.38184C87.2959 6.54004 87.2637 6.69238 87.1992 6.83887C87.1406 6.97949 87.0586 7.10254 86.9531 7.20801C86.8477 7.31934 86.7217 7.40723 86.5752 7.47168C86.4346 7.53027 86.2822 7.55957 86.1182 7.55957C85.9541 7.55957 85.7988 7.53027 85.6523 7.47168C85.5117 7.40723 85.3887 7.31934 85.2832 7.20801C85.1777 7.10254 85.0928 6.97949 85.0283 6.83887C84.9697 6.69238 84.9404 6.54004 84.9404 6.38184C84.9404 6.21777 84.9697 6.06543 85.0283 5.9248C85.0928 5.77832 85.1777 5.65234 85.2832 5.54688C85.3887 5.44141 85.5117 5.35938 85.6523 5.30078C85.7988 5.23633 85.9541 5.2041 86.1182 5.2041ZM86.1182 10.8203C86.2822 10.8203 86.4346 10.8525 86.5752 10.917C86.7217 10.9756 86.8477 11.0576 86.9531 11.1631C87.0586 11.2686 87.1406 11.3945 87.1992 11.541C87.2637 11.6816 87.2959 11.834 87.2959 11.998C87.2959 12.1562 87.2637 12.3086 87.1992 12.4551C87.1406 12.5957 87.0586 12.7188 86.9531 12.8242C86.8477 12.9355 86.7217 13.0205 86.5752 13.0791C86.4346 13.1436 86.2822 13.1758 86.1182 13.1758C85.9541 13.1758 85.7988 13.1436 85.6523 13.0791C85.5117 13.0205 85.3887 12.9355 85.2832 12.8242C85.1777 12.7188 85.0928 12.5957 85.0283 12.4551C84.9697 12.3086 84.9404 12.1562 84.9404 11.998C84.9404 11.834 84.9697 11.6816 85.0283 11.541C85.0928 11.3945 85.1777 11.2686 85.2832 11.1631C85.3887 11.0576 85.5117 10.9756 85.6523 10.917C85.7988 10.8525 85.9541 10.8203 86.1182 10.8203Z" fill="#043E5F"/>
</g>
<defs>
<filter id="filter0_d_60_53" x="0.617188" y="0.167969" width="90.6787" height="24.3916" filterUnits="userSpaceOnUse" color-interpolation-filters="sRGB">
<feFlood flood-opacity="0" result="BackgroundImageFix"/>
<feColorMatrix in="SourceAlpha" type="matrix" values="0 0 0 0 0 0 0 0 0 0 0 0 0 0 0 0 0 0 127 0" result="hardAlpha"/>
<feOffset dy="4"/>
<feGaussianBlur stdDeviation="2"/>
<feComposite in2="hardAlpha" operator="out"/>
<feColorMatrix type="matrix" values="0 0 0 0 0 0 0 0 0 0 0 0 0 0 0 0 0 0 0.25 0"/>
<feBlend mode="normal" in2="BackgroundImageFix" result="effect1_dropShadow_60_53"/>
<feBlend mode="normal" in="SourceGraphic" in2="effect1_dropShadow_60_53" result="shape"/>
</filter>
</defs>
</svg>
