<svg width="97" height="24" viewBox="0 0 97 24" fill="none" xmlns="http://www.w3.org/2000/svg">
<g filter="url(#filter0_d_73_55)">
<rect x="6" y="2" width="85" height="12" rx="4" fill="#043E5F"/>
<rect x="6" y="2" width="85" height="12" rx="4" stroke="#043E5F" stroke-width="3"/>
</g>
<path d="M81.5 11L76.5 6H86.5L81.5 11Z" fill="white"/>
<path d="M14.0254 10.7754C14.1855 10.8379 14.3535 10.8965 14.5293 10.9512C14.709 11.0059 14.8906 11.0527 15.0742 11.0918C15.2617 11.1309 15.4492 11.1621 15.6367 11.1855C15.8242 11.209 16.0078 11.2207 16.1875 11.2207C16.4961 11.2207 16.7754 11.1855 17.0254 11.1152C17.2754 11.0449 17.4902 10.9434 17.6699 10.8105C17.8496 10.6738 17.9883 10.5078 18.0859 10.3125C18.1836 10.1133 18.2324 9.88672 18.2324 9.63281C18.2324 9.37891 18.1855 9.17188 18.0918 9.01172C18.002 8.84766 17.8691 8.71094 17.6934 8.60156C17.5215 8.49219 17.3086 8.40039 17.0547 8.32617C16.8008 8.24805 16.5117 8.16797 16.1875 8.08594C15.8281 7.99219 15.4961 7.88867 15.1914 7.77539C14.8906 7.6582 14.6289 7.50781 14.4062 7.32422C14.1875 7.14062 14.0156 6.91406 13.8906 6.64453C13.7656 6.37109 13.7031 6.03125 13.7031 5.625C13.7031 5.29297 13.7695 4.99219 13.9023 4.72266C14.0352 4.45312 14.2227 4.22461 14.4648 4.03711C14.707 3.8457 14.998 3.69922 15.3379 3.59766C15.6777 3.49609 16.0527 3.44531 16.4629 3.44531C16.6621 3.44531 16.8652 3.45898 17.0723 3.48633C17.2793 3.50977 17.4844 3.54297 17.6875 3.58594C17.8906 3.62891 18.0898 3.68164 18.2852 3.74414C18.4805 3.80664 18.6641 3.875 18.8359 3.94922L18.4844 4.81641C18.3438 4.76172 18.1992 4.70703 18.0508 4.65234C17.9062 4.59766 17.752 4.54883 17.5879 4.50586C17.4238 4.46289 17.248 4.42969 17.0605 4.40625C16.877 4.37891 16.6777 4.36523 16.4629 4.36523C16.248 4.36523 16.043 4.38867 15.8477 4.43555C15.6523 4.48242 15.4785 4.55664 15.3262 4.6582C15.1777 4.75586 15.0586 4.88477 14.9688 5.04492C14.8789 5.20508 14.834 5.39844 14.834 5.625C14.834 5.87891 14.8789 6.08789 14.9688 6.25195C15.0625 6.41211 15.1953 6.54688 15.3672 6.65625C15.543 6.76562 15.7578 6.85938 16.0117 6.9375C16.2656 7.01172 16.5547 7.08984 16.8789 7.17188C17.2383 7.26562 17.5684 7.37109 17.8691 7.48828C18.1738 7.60156 18.4355 7.75 18.6543 7.93359C18.877 8.11719 19.0508 8.3457 19.1758 8.61914C19.3008 8.89258 19.3633 9.23047 19.3633 9.63281C19.3633 10.0586 19.2832 10.4297 19.123 10.7461C18.9668 11.0586 18.7461 11.3184 18.4609 11.5254C18.1797 11.7324 17.8438 11.8867 17.4531 11.9883C17.0664 12.0898 16.6445 12.1406 16.1875 12.1406C15.3242 12.1406 14.4863 11.9746 13.6738 11.6426L14.0254 10.7754ZM21.3496 6.98438L21.0918 6.16406C21.748 5.90234 22.4355 5.77148 23.1543 5.77148C23.7832 5.77148 24.2637 5.87695 24.5957 6.08789C24.9746 6.33008 25.1641 6.74219 25.1641 7.32422V9.7207C25.1641 10.041 25.168 10.3691 25.1758 10.7051C25.1797 10.9043 25.1992 11.1113 25.2344 11.3262C25.2656 11.5293 25.3066 11.7227 25.3574 11.9062L24.3965 12.1172C24.3066 11.8555 24.25 11.5625 24.2266 11.2383L24.1094 11.2266C23.625 11.8359 23.0078 12.1406 22.2578 12.1406C21.7109 12.1406 21.2715 11.9902 20.9395 11.6895C20.6074 11.3848 20.4414 10.957 20.4414 10.4062C20.4414 9.99609 20.5312 9.66016 20.7109 9.39844C20.8945 9.13672 21.1523 8.91602 21.4844 8.73633C22.0078 8.45117 22.7402 8.30859 23.6816 8.30859C23.8066 8.30859 23.9746 8.3125 24.1855 8.32031V7.42969C24.1855 7.14844 24.0996 6.94531 23.9277 6.82031C23.7559 6.69531 23.4863 6.63281 23.1191 6.63281C22.584 6.63281 21.9941 6.75 21.3496 6.98438ZM24.1855 10.2891V9.05859C24.0801 9.05078 23.9258 9.04688 23.7227 9.04688C23.3789 9.04688 23.0625 9.07617 22.7734 9.13477C22.3438 9.2207 22.0098 9.35742 21.7715 9.54492C21.5371 9.72852 21.4199 9.99414 21.4199 10.3418C21.4199 10.9668 21.7598 11.2793 22.4395 11.2793C22.791 11.2793 23.1191 11.1855 23.4238 10.998C23.6738 10.8418 23.9277 10.6055 24.1855 10.2891ZM27.1387 3.5625H28.1465V7.23633C28.4082 6.79102 28.7051 6.44336 29.0371 6.19336C29.416 5.91211 29.793 5.77148 30.168 5.77148C30.7305 5.77148 31.168 5.91211 31.4805 6.19336C31.75 6.43555 31.9355 6.80078 32.0371 7.28906C32.1152 7.66016 32.1543 8.16016 32.1543 8.78906V12H31.1465V8.50781C31.1465 8.26953 31.1406 8.07422 31.1289 7.92188C31.1172 7.76562 31.0879 7.60352 31.041 7.43555C30.998 7.26367 30.9336 7.13086 30.8477 7.03711C30.7656 6.93945 30.6484 6.85938 30.4961 6.79688C30.3477 6.73438 30.166 6.70312 29.9512 6.70312C29.5801 6.70312 29.2227 6.87891 28.8789 7.23047C28.6602 7.45312 28.416 7.79297 28.1465 8.25V12H27.1387V3.5625ZM34.4863 3.54492C34.666 3.54492 34.8223 3.60742 34.9551 3.73242C35.084 3.86914 35.1484 4.0293 35.1484 4.21289C35.1484 4.40039 35.084 4.55859 34.9551 4.6875C34.8223 4.82031 34.666 4.88672 34.4863 4.88672C34.2988 4.88672 34.1387 4.82031 34.0059 4.6875C33.873 4.5625 33.8066 4.4043 33.8066 4.21289C33.8066 4.02539 33.873 3.86523 34.0059 3.73242C34.1387 3.60742 34.2988 3.54492 34.4863 3.54492ZM33.9707 5.90625H34.9785V12H33.9707V5.90625ZM37.123 3.5625H38.1309V7.23633C38.3926 6.79102 38.6895 6.44336 39.0215 6.19336C39.4004 5.91211 39.7773 5.77148 40.1523 5.77148C40.7148 5.77148 41.1523 5.91211 41.4648 6.19336C41.7344 6.43555 41.9199 6.80078 42.0215 7.28906C42.0996 7.66016 42.1387 8.16016 42.1387 8.78906V12H41.1309V8.50781C41.1309 8.26953 41.125 8.07422 41.1133 7.92188C41.1016 7.76562 41.0723 7.60352 41.0254 7.43555C40.9824 7.26367 40.918 7.13086 40.832 7.03711C40.75 6.93945 40.6328 6.85938 40.4805 6.79688C40.332 6.73438 40.1504 6.70312 39.9355 6.70312C39.5645 6.70312 39.207 6.87891 38.8633 7.23047C38.6445 7.45312 38.4004 7.79297 38.1309 8.25V12H37.123V3.5625ZM54.332 7.78711C54.332 9.19727 54.0137 10.2754 53.377 11.0215C52.7402 11.7676 51.8262 12.1406 50.6348 12.1406C49.4551 12.1406 48.543 11.7695 47.8984 11.0273C47.2578 10.2812 46.9375 9.20117 46.9375 7.78711C46.9375 6.37695 47.2598 5.30078 47.9043 4.55859C48.5488 3.81641 49.459 3.44531 50.6348 3.44531C51.8262 3.44531 52.7402 3.82031 53.377 4.57031C54.0137 5.31641 54.332 6.38867 54.332 7.78711ZM53.2012 7.78711C53.2012 6.70117 52.9863 5.85938 52.5566 5.26172C52.1309 4.66406 51.4883 4.36523 50.6289 4.36523C49.7656 4.36523 49.123 4.66797 48.7012 5.27344C48.2793 5.875 48.0684 6.71289 48.0684 7.78711C48.0684 8.31445 48.1172 8.78711 48.2148 9.20508C48.3164 9.61914 48.4688 9.97852 48.6719 10.2832C48.8789 10.584 49.1465 10.8164 49.4746 10.9805C49.8066 11.1406 50.1914 11.2207 50.6289 11.2207C51.4883 11.2207 52.1309 10.9219 52.5566 10.3242C52.9863 9.72266 53.2012 8.87695 53.2012 7.78711ZM55.7676 6.01172L56.7402 5.79492C56.8145 6.0293 56.8672 6.25586 56.8984 6.47461C56.9141 6.58008 56.9336 6.78906 56.957 7.10156H57.0801C57.2949 6.70703 57.5605 6.39258 57.877 6.1582C58.2246 5.90039 58.5918 5.77148 58.9785 5.77148C59.5605 5.77148 60.0039 5.91211 60.3086 6.19336C60.5703 6.43164 60.752 6.79688 60.8535 7.28906C60.9199 7.625 60.9531 8.125 60.9531 8.78906V12H59.9453V8.50781C59.9453 7.92578 59.8887 7.50977 59.7754 7.25977C59.6074 6.88867 59.2695 6.70312 58.7617 6.70312C58.4023 6.70312 58.0508 6.875 57.707 7.21875C57.4766 7.44922 57.2305 7.78711 56.9688 8.23242V12H55.9609V8.25C55.9609 7.72266 55.9473 7.26758 55.9199 6.88477C55.9043 6.64648 55.8535 6.35547 55.7676 6.01172ZM63.5312 9.63281C63.5312 9.95312 63.5352 10.2227 63.543 10.4414C63.5508 10.6562 63.5605 10.8457 63.5723 11.0098C63.584 11.1738 63.6016 11.3223 63.625 11.4551C63.6523 11.5879 63.6855 11.7344 63.7246 11.8945C63.5605 11.9375 63.3965 11.9766 63.2324 12.0117C63.0684 12.0508 62.9043 12.084 62.7402 12.1113C62.6621 11.8574 62.6055 11.625 62.5703 11.4141C62.5391 11.2031 62.5234 10.9961 62.5234 10.793V3.57422H63.5312V9.63281ZM70.4102 5.90625V12.1348C70.4102 12.5215 70.3457 12.8555 70.2168 13.1367C70.0918 13.418 69.916 13.6504 69.6895 13.834C69.4668 14.0176 69.2012 14.1523 68.8926 14.2383C68.584 14.3281 68.248 14.373 67.8848 14.373C67.5566 14.373 67.2266 14.3438 66.8945 14.2852C66.5625 14.2305 66.2461 14.1523 65.9453 14.0508C65.9961 13.9141 66.0488 13.7812 66.1035 13.6523C66.1582 13.5234 66.2129 13.3945 66.2676 13.2656C66.3613 13.2969 66.4727 13.3301 66.6016 13.3652C66.7344 13.4004 66.873 13.4316 67.0176 13.459C67.166 13.4902 67.3164 13.5137 67.4688 13.5293C67.625 13.5488 67.7754 13.5586 67.9199 13.5586C68.1465 13.5586 68.3516 13.5273 68.5352 13.4648C68.7188 13.4062 68.875 13.3164 69.0039 13.1953C69.1328 13.0742 69.2305 12.9238 69.2969 12.7441C69.3672 12.5684 69.4023 12.3652 69.4023 12.1348V10.8105H69.291C69.1895 10.9941 69.0723 11.168 68.9395 11.332C68.8066 11.4922 68.6602 11.6328 68.5 11.7539C68.3398 11.875 68.166 11.9688 67.9785 12.0352C67.7949 12.1055 67.5996 12.1406 67.3926 12.1406C67.1074 12.1406 66.8594 12.1074 66.6484 12.041C66.4375 11.9785 66.2559 11.8848 66.1035 11.7598C65.9551 11.6309 65.832 11.4727 65.7344 11.2852C65.6406 11.0938 65.5684 10.873 65.5176 10.623C65.4746 10.4004 65.4473 10.1621 65.4355 9.9082C65.4238 9.6543 65.418 9.39258 65.418 9.12305V5.90625H66.4258V9.4043C66.4258 9.6582 66.4375 9.89648 66.4609 10.1191C66.4844 10.3379 66.5352 10.5293 66.6133 10.6934C66.6953 10.8535 66.8145 10.9805 66.9707 11.0742C67.127 11.1641 67.3398 11.209 67.6094 11.209C67.8086 11.209 67.9961 11.1621 68.1719 11.0684C68.3477 10.9707 68.5098 10.8477 68.6582 10.6992C68.8066 10.5508 68.9414 10.3867 69.0625 10.207C69.1875 10.0273 69.3008 9.85156 69.4023 9.67969V5.90625H70.4102Z" fill="white"/>
<defs>
<filter id="filter0_d_73_55" x="0.5" y="0.5" width="96" height="23" filterUnits="userSpaceOnUse" color-interpolation-filters="sRGB">
<feFlood flood-opacity="0" result="BackgroundImageFix"/>
<feColorMatrix in="SourceAlpha" type="matrix" values="0 0 0 0 0 0 0 0 0 0 0 0 0 0 0 0 0 0 127 0" result="hardAlpha"/>
<feOffset dy="4"/>
<feGaussianBlur stdDeviation="2"/>
<feComposite in2="hardAlpha" operator="out"/>
<feColorMatrix type="matrix" values="0 0 0 0 0 0 0 0 0 0 0 0 0 0 0 0 0 0 0.25 0"/>
<feBlend mode="normal" in2="BackgroundImageFix" result="effect1_dropShadow_73_55"/>
<feBlend mode="normal" in="SourceGraphic" in2="effect1_dropShadow_73_55" result="shape"/>
</filter>
</defs>
</svg>
