<svg width="149" height="44" viewBox="0 0 149 44" fill="none" xmlns="http://www.w3.org/2000/svg">
<g filter="url(#filter0_dd_58_342)">
<g filter="url(#filter1_iiii_58_342)">
<rect x="4" width="141" height="36" rx="18" fill="white"/>
</g>
<rect x="5.5" y="1.5" width="138" height="33" rx="16.5" stroke="#043E5F" stroke-width="3"/>
<g filter="url(#filter2_d_58_342)">
<path d="M40.7944 21.8569C41.0747 21.9663 41.3687 22.0688 41.6763 22.1646C41.9907 22.2603 42.3086 22.3423 42.6299 22.4106C42.958 22.479 43.2861 22.5337 43.6143 22.5747C43.9424 22.6157 44.2637 22.6362 44.5781 22.6362C45.1182 22.6362 45.6069 22.5747 46.0444 22.4517C46.4819 22.3286 46.8579 22.1509 47.1724 21.9185C47.4868 21.6792 47.7295 21.3887 47.9004 21.0469C48.0713 20.6982 48.1567 20.3018 48.1567 19.8574C48.1567 19.4131 48.0747 19.0508 47.9106 18.7705C47.7534 18.4834 47.521 18.2441 47.2134 18.0527C46.9126 17.8613 46.54 17.7007 46.0957 17.5708C45.6514 17.4341 45.1455 17.2939 44.5781 17.1504C43.9492 16.9863 43.3682 16.8052 42.835 16.6069C42.3086 16.4019 41.8506 16.1387 41.4609 15.8174C41.0781 15.4961 40.7773 15.0996 40.5586 14.6279C40.3398 14.1494 40.2305 13.5547 40.2305 12.8438C40.2305 12.2627 40.3467 11.7363 40.5791 11.2646C40.8115 10.793 41.1396 10.3931 41.5635 10.0649C41.9873 9.72998 42.4966 9.47363 43.0913 9.2959C43.686 9.11816 44.3423 9.0293 45.0601 9.0293C45.4087 9.0293 45.7642 9.05322 46.1265 9.10107C46.4888 9.14209 46.8477 9.2002 47.2031 9.27539C47.5586 9.35059 47.9072 9.44287 48.249 9.55225C48.5908 9.66162 48.9121 9.78125 49.2129 9.91113L48.5977 11.4287C48.3516 11.333 48.0986 11.2373 47.8389 11.1416C47.5859 11.0459 47.3159 10.9604 47.0288 10.8853C46.7417 10.8101 46.4341 10.752 46.106 10.7109C45.7847 10.6631 45.436 10.6392 45.0601 10.6392C44.6841 10.6392 44.3252 10.6802 43.9834 10.7622C43.6416 10.8442 43.3374 10.9741 43.0708 11.1519C42.811 11.3228 42.6025 11.5483 42.4453 11.8286C42.2881 12.1089 42.2095 12.4473 42.2095 12.8438C42.2095 13.2881 42.2881 13.6538 42.4453 13.9409C42.6094 14.2212 42.8418 14.457 43.1426 14.6484C43.4502 14.8398 43.8262 15.0039 44.2705 15.1406C44.7148 15.2705 45.2207 15.4072 45.7881 15.5508C46.417 15.7148 46.9946 15.8994 47.521 16.1045C48.0542 16.3027 48.5122 16.5625 48.895 16.8838C49.2847 17.2051 49.5889 17.605 49.8076 18.0835C50.0264 18.562 50.1357 19.1533 50.1357 19.8574C50.1357 20.6025 49.9956 21.252 49.7153 21.8057C49.4419 22.3525 49.0557 22.8071 48.5566 23.1694C48.0645 23.5317 47.4766 23.8018 46.793 23.9795C46.1162 24.1572 45.3779 24.2461 44.5781 24.2461C43.0674 24.2461 41.6011 23.9556 40.1792 23.3745L40.7944 21.8569ZM61.8047 23.8154L60.1025 24.1948C59.9727 23.7847 59.8804 23.3882 59.8257 23.0054C59.7983 22.8276 59.7642 22.4653 59.7231 21.9185H59.5078C59.1318 22.6089 58.667 23.1592 58.1133 23.5693C57.5049 24.0205 56.8623 24.2461 56.1855 24.2461C55.167 24.2461 54.3911 24 53.8579 23.5078C53.3999 23.0908 53.082 22.4517 52.9043 21.5903C52.7881 21.0024 52.73 20.1274 52.73 18.9653V13.3359H54.4937V19.4575C54.4937 20.4761 54.5928 21.2041 54.791 21.6416C55.085 22.291 55.6763 22.6157 56.5649 22.6157C57.1938 22.6157 57.8091 22.3149 58.4106 21.7134C58.814 21.3101 59.2446 20.7188 59.7026 19.9395V13.3359H61.4663V19.9189C61.4663 20.8281 61.4902 21.6177 61.5381 22.2876C61.5654 22.7046 61.6543 23.2139 61.8047 23.8154ZM64.522 13.5205L66.2241 13.1411C66.354 13.5513 66.4463 13.9478 66.501 14.3306C66.5283 14.5151 66.5625 14.8809 66.6035 15.4277H66.8188C67.1948 14.7373 67.6597 14.187 68.2134 13.7769C68.8218 13.3257 69.4644 13.1001 70.1411 13.1001C71.1597 13.1001 71.9355 13.3462 72.4688 13.8384C72.9268 14.2554 73.2446 14.8945 73.4224 15.7559C73.5386 16.3438 73.5967 17.2188 73.5967 18.3809V24H71.833V17.8887C71.833 16.8701 71.7339 16.1421 71.5356 15.7046C71.2417 15.0552 70.6504 14.7305 69.7617 14.7305C69.1328 14.7305 68.5176 15.0312 67.916 15.6328C67.5127 16.0361 67.082 16.6274 66.624 17.4067V24H64.8604V17.4375C64.8604 16.5146 64.8364 15.7183 64.7886 15.0483C64.7612 14.6313 64.6724 14.1221 64.522 13.5205ZM76.2935 13.5205L77.9956 13.1411C78.1255 13.5513 78.2178 13.9478 78.2725 14.3306C78.2998 14.5151 78.334 14.8809 78.375 15.4277H78.5903C78.9663 14.7373 79.4312 14.187 79.9849 13.7769C80.5933 13.3257 81.2358 13.1001 81.9126 13.1001C82.9312 13.1001 83.707 13.3462 84.2402 13.8384C84.6982 14.2554 85.0161 14.8945 85.1938 15.7559C85.3101 16.3438 85.3682 17.2188 85.3682 18.3809V24H83.6045V17.8887C83.6045 16.8701 83.5054 16.1421 83.3071 15.7046C83.0132 15.0552 82.4219 14.7305 81.5332 14.7305C80.9043 14.7305 80.2891 15.0312 79.6875 15.6328C79.2842 16.0361 78.8535 16.6274 78.3955 17.4067V24H76.6318V17.4375C76.6318 16.5146 76.6079 15.7183 76.5601 15.0483C76.5327 14.6313 76.4438 14.1221 76.2935 13.5205ZM89.0288 15.2227L88.5776 13.7871C89.7261 13.3291 90.9292 13.1001 92.187 13.1001C93.2876 13.1001 94.1284 13.2847 94.7095 13.6538C95.3726 14.0776 95.7041 14.7988 95.7041 15.8174V20.0112C95.7041 20.5718 95.7109 21.146 95.7246 21.7339C95.7314 22.0825 95.7656 22.4448 95.8271 22.8208C95.8818 23.1763 95.9536 23.5146 96.0425 23.8359L94.3608 24.2051C94.2036 23.7471 94.1045 23.2344 94.0635 22.667L93.8584 22.6465C93.0107 23.7129 91.9307 24.2461 90.6182 24.2461C89.6611 24.2461 88.8921 23.9829 88.311 23.4565C87.73 22.9233 87.4395 22.1748 87.4395 21.2109C87.4395 20.4932 87.5967 19.9053 87.9111 19.4473C88.2324 18.9893 88.6836 18.603 89.2646 18.2886C90.1807 17.7896 91.4624 17.54 93.1099 17.54C93.3286 17.54 93.6226 17.5469 93.9917 17.5605V16.002C93.9917 15.5098 93.8413 15.1543 93.5405 14.9355C93.2397 14.7168 92.7681 14.6074 92.1255 14.6074C91.189 14.6074 90.1567 14.8125 89.0288 15.2227ZM93.9917 21.0059V18.8525C93.8071 18.8389 93.5371 18.832 93.1816 18.832C92.5801 18.832 92.0264 18.8833 91.5205 18.9858C90.7686 19.1362 90.1841 19.3755 89.7671 19.7036C89.3569 20.0249 89.1519 20.4897 89.1519 21.0981C89.1519 22.1919 89.7466 22.7388 90.936 22.7388C91.5513 22.7388 92.1255 22.5747 92.6587 22.2466C93.0962 21.9731 93.5405 21.5596 93.9917 21.0059ZM99.1597 9.23438H100.923V15.6636C101.381 14.8843 101.901 14.2759 102.482 13.8384C103.145 13.3462 103.805 13.1001 104.461 13.1001C105.445 13.1001 106.211 13.3462 106.758 13.8384C107.229 14.2622 107.554 14.9014 107.732 15.7559C107.869 16.4053 107.937 17.2803 107.937 18.3809V24H106.173V17.8887C106.173 17.4717 106.163 17.1299 106.143 16.8633C106.122 16.5898 106.071 16.3062 105.989 16.0122C105.914 15.7114 105.801 15.479 105.65 15.3149C105.507 15.144 105.302 15.0039 105.035 14.8945C104.775 14.7852 104.458 14.7305 104.082 14.7305C103.432 14.7305 102.807 15.0381 102.205 15.6533C101.822 16.043 101.395 16.6377 100.923 17.4375V24H99.1597V9.23438Z" fill="#043E5F"/>
<path d="M40.7944 21.8569L40.8853 21.624L40.6555 21.5343L40.5627 21.763L40.7944 21.8569ZM41.6763 22.1646L41.602 22.4033L41.6035 22.4037L41.6763 22.1646ZM42.6299 22.4106L42.5779 22.6552L42.5789 22.6554L42.6299 22.4106ZM47.1724 21.9185L47.321 22.1195L47.3237 22.1174L47.1724 21.9185ZM47.9004 21.0469L48.124 21.1587L48.1249 21.1569L47.9004 21.0469ZM47.9106 18.7705L47.6913 18.8906L47.6949 18.8968L47.9106 18.7705ZM47.2134 18.0527L47.0792 18.2637L47.0813 18.265L47.2134 18.0527ZM46.0957 17.5708L46.0222 17.8098L46.0256 17.8108L46.0957 17.5708ZM44.5781 17.1504L44.515 17.3923L44.5168 17.3928L44.5781 17.1504ZM42.835 16.6069L42.7442 16.8399L42.7478 16.8413L42.835 16.6069ZM41.4609 15.8174L41.3002 16.0089L41.3019 16.0103L41.4609 15.8174ZM40.5586 14.6279L40.3312 14.7319L40.3318 14.7331L40.5586 14.6279ZM41.5635 10.0649L41.7165 10.2626L41.7185 10.2611L41.5635 10.0649ZM46.1265 9.10107L46.0937 9.34896L46.0983 9.34949L46.1265 9.10107ZM49.2129 9.91113L49.4446 10.0051L49.5364 9.77852L49.312 9.68162L49.2129 9.91113ZM48.5977 11.4287L48.507 11.6617L48.7367 11.751L48.8293 11.5226L48.5977 11.4287ZM47.8389 11.1416L47.7504 11.3754L47.7524 11.3762L47.8389 11.1416ZM46.106 10.7109L46.0691 10.9583L46.0749 10.959L46.106 10.7109ZM43.0708 11.1519L43.2082 11.3607L43.2095 11.3599L43.0708 11.1519ZM42.4453 13.9409L42.2259 14.061L42.2296 14.0672L42.4453 13.9409ZM43.1426 14.6484L43.0084 14.8594L43.0105 14.8607L43.1426 14.6484ZM44.2705 15.1406L44.197 15.3796L44.2004 15.3806L44.2705 15.1406ZM45.7881 15.5508L45.8512 15.3089L45.8494 15.3084L45.7881 15.5508ZM47.521 16.1045L47.4302 16.3375L47.4339 16.3388L47.521 16.1045ZM48.895 16.8838L48.7343 17.0753L48.736 17.0767L48.895 16.8838ZM49.7153 21.8057L49.4923 21.6928L49.4917 21.6939L49.7153 21.8057ZM48.5566 23.1694L48.4098 22.9671L48.4084 22.9681L48.5566 23.1694ZM46.793 23.9795L46.7301 23.7375L46.7295 23.7377L46.793 23.9795ZM40.1792 23.3745L39.9475 23.2806L39.8538 23.5116L40.0846 23.6059L40.1792 23.3745ZM40.7035 22.0898C40.9897 22.2015 41.2892 22.3059 41.602 22.4033L41.7505 21.9258C41.4481 21.8318 41.1598 21.7311 40.8853 21.624L40.7035 22.0898ZM41.6035 22.4037C41.9248 22.5015 42.2496 22.5853 42.5779 22.6552L42.6819 22.1661C42.3676 22.0992 42.0567 22.019 41.7491 21.9254L41.6035 22.4037ZM42.5789 22.6554C42.9135 22.7251 43.2483 22.7809 43.5832 22.8228L43.6453 22.3266C43.3239 22.2865 43.0025 22.2329 42.6809 22.1659L42.5789 22.6554ZM43.5832 22.8228C43.9211 22.865 44.2528 22.8862 44.5781 22.8862V22.3862C44.2746 22.3862 43.9636 22.3664 43.6453 22.3266L43.5832 22.8228ZM44.5781 22.8862C45.1369 22.8862 45.6489 22.8226 46.1121 22.6923L45.9767 22.211C45.565 22.3268 45.0994 22.3862 44.5781 22.3862V22.8862ZM46.1121 22.6923C46.5741 22.5624 46.9786 22.3726 47.321 22.1195L47.0238 21.7174C46.7373 21.9292 46.3898 22.0948 45.9767 22.211L46.1121 22.6923ZM47.3237 22.1174C47.6676 21.8558 47.9354 21.5358 48.124 21.1587L47.6768 20.9351C47.5236 21.2415 47.3061 21.5026 47.021 21.7195L47.3237 22.1174ZM48.1249 21.1569C48.3148 20.7694 48.4067 20.3344 48.4067 19.8574H47.9067C47.9067 20.2691 47.8277 20.6271 47.6759 20.9368L48.1249 21.1569ZM48.4067 19.8574C48.4067 19.3844 48.3197 18.9744 48.1264 18.6442L47.6949 18.8968C47.8297 19.1272 47.9067 19.4418 47.9067 19.8574H48.4067ZM48.1299 18.6504C47.9499 18.3217 47.6856 18.0521 47.3455 17.8405L47.0813 18.265C47.3564 18.4362 47.5569 18.6451 47.6914 18.8906L48.1299 18.6504ZM47.3476 17.8418C47.022 17.6346 46.6265 17.4655 46.1658 17.3308L46.0256 17.8108C46.4536 17.9359 46.8032 18.088 47.0792 18.2636L47.3476 17.8418ZM46.1692 17.3319C45.72 17.1936 45.2099 17.0524 44.6394 16.908L44.5168 17.3928C45.0811 17.5355 45.5828 17.6745 46.0222 17.8097L46.1692 17.3319ZM44.6412 16.9085C44.0193 16.7463 43.4464 16.5675 42.9221 16.3726L42.7478 16.8413C43.2899 17.0428 43.8791 17.2264 44.515 17.3923L44.6412 16.9085ZM42.9257 16.374C42.4212 16.1774 41.9869 15.927 41.62 15.6245L41.3019 16.0103C41.7143 16.3503 42.196 16.6263 42.7442 16.8399L42.9257 16.374ZM41.6217 15.6259C41.2681 15.3291 40.9894 14.9625 40.7854 14.5227L40.3318 14.7331C40.5653 15.2367 40.8882 15.6631 41.3002 16.0089L41.6217 15.6259ZM40.786 14.524C40.5864 14.0874 40.4805 13.5307 40.4805 12.8438H39.9805C39.9805 13.5786 40.0933 14.2114 40.3312 14.7319L40.786 14.524ZM40.4805 12.8438C40.4805 12.2969 40.5896 11.809 40.8034 11.3751L40.3548 11.1541C40.1038 11.6637 39.9805 12.2285 39.9805 12.8438H40.4805ZM40.8034 11.3751C41.0186 10.9382 41.3221 10.5679 41.7165 10.2626L41.4104 9.86726C40.9572 10.2182 40.6044 10.6477 40.3548 11.1541L40.8034 11.3751ZM41.7185 10.2611C42.1141 9.94843 42.594 9.70544 43.1629 9.53543L43.0197 9.05637C42.3992 9.24182 41.8605 9.51153 41.4085 9.8688L41.7185 10.2611ZM43.1629 9.53543C43.7311 9.36562 44.3628 9.2793 45.0601 9.2793V8.7793C44.3217 8.7793 43.641 8.8707 43.0197 9.05637L43.1629 9.53543ZM45.0601 9.2793C45.3972 9.2793 45.7418 9.30243 46.0937 9.34892L46.1592 8.85323C45.7866 8.80401 45.4201 8.7793 45.0601 8.7793V9.2793ZM46.0983 9.34949C46.4527 9.38961 46.8038 9.44644 47.1514 9.51998L47.2549 9.0308C46.8916 8.95395 46.5248 8.89457 46.1546 8.85266L46.0983 9.34949ZM47.1514 9.51998C47.4987 9.59345 47.8392 9.68358 48.1728 9.79035L48.3252 9.31414C47.9753 9.20216 47.6185 9.10772 47.2549 9.0308L47.1514 9.51998ZM48.1728 9.79035C48.5076 9.89747 48.8212 10.0143 49.1138 10.1406L49.312 9.68162C49.0031 9.54821 48.6741 9.42577 48.3252 9.31414L48.1728 9.79035ZM48.9812 9.81721L48.366 11.3348L48.8293 11.5226L49.4446 10.0051L48.9812 9.81721ZM48.6883 11.1957C48.4407 11.0994 48.1864 11.0032 47.9253 10.907L47.7524 11.3762C48.0109 11.4714 48.2624 11.5666 48.507 11.6617L48.6883 11.1957ZM47.9273 10.9078C47.6654 10.8087 47.387 10.7206 47.0921 10.6434L46.9655 11.1271C47.2449 11.2003 47.5064 11.2831 47.7504 11.3754L47.9273 10.9078ZM47.0921 10.6434C46.7933 10.5651 46.4748 10.5051 46.137 10.4629L46.0749 10.959C46.3934 10.9988 46.6901 11.055 46.9655 11.1271L47.0921 10.6434ZM46.1428 10.4637C45.8076 10.4137 45.4465 10.3892 45.0601 10.3892V10.8892C45.4256 10.8892 45.7618 10.9124 46.0691 10.9582L46.1428 10.4637ZM45.0601 10.3892C44.6658 10.3892 44.2872 10.4322 43.9251 10.5191L44.0417 11.0053C44.3632 10.9282 44.7024 10.8892 45.0601 10.8892V10.3892ZM43.9251 10.5191C43.5574 10.6073 43.2255 10.7483 42.9321 10.9438L43.2095 11.3599C43.4493 11.2 43.7258 11.0811 44.0417 11.0053L43.9251 10.5191ZM42.9334 10.943C42.6391 11.1366 42.4034 11.3924 42.2273 11.7063L42.6633 11.9509C42.8017 11.7043 42.983 11.5089 43.2082 11.3607L42.9334 10.943ZM42.2273 11.7063C42.0447 12.0317 41.9595 12.4143 41.9595 12.8438H42.4595C42.4595 12.4802 42.5314 12.1861 42.6633 11.9509L42.2273 11.7063ZM41.9595 12.8438C41.9595 13.3157 42.0427 13.7263 42.226 14.061L42.6646 13.8208C42.5334 13.5814 42.4595 13.2605 42.4595 12.8438H41.9595ZM42.2296 14.0672C42.4156 14.385 42.6774 14.6487 43.0084 14.8594L43.2768 14.4375C43.0062 14.2653 42.8032 14.0574 42.6611 13.8146L42.2296 14.0672ZM43.0105 14.8607C43.3407 15.0662 43.7376 15.2382 44.197 15.3796L44.344 14.9017C43.9148 14.7696 43.5597 14.6135 43.2747 14.4362L43.0105 14.8607ZM44.2004 15.3806C44.6483 15.5115 45.1572 15.649 45.7268 15.7931L45.8494 15.3084C45.2842 15.1654 44.7814 15.0295 44.3406 14.9007L44.2004 15.3806ZM45.725 15.7927C46.3459 15.9547 46.9141 16.1364 47.4302 16.3374L47.6118 15.8715C47.0751 15.6625 46.4881 15.475 45.8512 15.3089L45.725 15.7927ZM47.4339 16.3388C47.9439 16.5285 48.3762 16.7747 48.7343 17.0753L49.0557 16.6923C48.6482 16.3503 48.1645 16.077 47.6081 15.8702L47.4339 16.3388ZM48.736 17.0767C49.0952 17.3729 49.3766 17.7419 49.5802 18.1874L50.035 17.9796C49.8012 17.4681 49.4742 17.0373 49.0541 16.6909L48.736 17.0767ZM49.5802 18.1874C49.7799 18.6243 49.8857 19.1777 49.8857 19.8574H50.3857C50.3857 19.129 50.2728 18.4998 50.035 17.9796L49.5802 18.1874ZM49.8857 19.8574C49.8857 20.5711 49.7516 21.1804 49.4923 21.6928L49.9384 21.9186C50.2396 21.3235 50.3857 20.634 50.3857 19.8574H49.8857ZM49.4917 21.6939C49.2364 22.2045 48.8766 22.6282 48.4098 22.9671L48.7035 23.3717C49.2347 22.9861 49.6474 22.5005 49.9389 21.9175L49.4917 21.6939ZM48.4084 22.9681C47.9455 23.3089 47.3876 23.5666 46.7301 23.7375L46.8559 24.2214C47.5655 24.0369 48.1834 23.7546 48.7048 23.3708L48.4084 22.9681ZM46.7295 23.7377C46.0761 23.9093 45.3595 23.9961 44.5781 23.9961V24.4961C45.3964 24.4961 46.1563 24.4052 46.8565 24.2213L46.7295 23.7377ZM44.5781 23.9961C43.1004 23.9961 41.6661 23.7121 40.2738 23.1431L40.0846 23.6059C41.536 24.199 43.0344 24.4961 44.5781 24.4961V23.9961ZM40.4109 23.4684L41.0261 21.9509L40.5627 21.763L39.9475 23.2806L40.4109 23.4684ZM61.8047 23.8154L61.8591 24.0594L62.1094 24.0036L62.0472 23.7548L61.8047 23.8154ZM60.1025 24.1948L59.8642 24.2703L59.9334 24.4887L60.1569 24.4388L60.1025 24.1948ZM59.8257 23.0054L60.0732 22.97L60.0728 22.9674L59.8257 23.0054ZM59.7231 21.9185L59.9724 21.8998L59.9551 21.6685H59.7231V21.9185ZM59.5078 21.9185V21.6685H59.3593L59.2883 21.7989L59.5078 21.9185ZM58.1133 23.5693L57.9645 23.3684L57.9644 23.3685L58.1133 23.5693ZM53.8579 23.5078L54.0275 23.3241L54.0262 23.323L53.8579 23.5078ZM52.9043 21.5903L52.659 21.6388L52.6595 21.6409L52.9043 21.5903ZM52.73 13.3359V13.0859H52.48V13.3359H52.73ZM54.4937 13.3359H54.7437V13.0859H54.4937V13.3359ZM54.791 21.6416L55.0188 21.5385L55.0187 21.5384L54.791 21.6416ZM59.7026 19.9395L59.9182 20.0661L59.9526 20.0075V19.9395H59.7026ZM59.7026 13.3359V13.0859H59.4526V13.3359H59.7026ZM61.4663 13.3359H61.7163V13.0859H61.4663V13.3359ZM61.5381 22.2876L61.7876 22.2712L61.7875 22.2698L61.5381 22.2876ZM61.7503 23.5714L60.0482 23.9508L60.1569 24.4388L61.8591 24.0594L61.7503 23.5714ZM60.3409 24.1194C60.2147 23.7209 60.1257 23.3378 60.0732 22.97L59.5782 23.0407C59.635 23.4386 59.7306 23.8485 59.8642 24.2703L60.3409 24.1194ZM60.0728 22.9674C60.0472 22.8009 60.0136 22.4484 59.9724 21.8998L59.4738 21.9372C59.5147 22.4823 59.5495 22.8544 59.5786 23.0434L60.0728 22.9674ZM59.7231 21.6685H59.5078V22.1685H59.7231V21.6685ZM59.2883 21.7989C58.9272 22.4619 58.4851 22.9828 57.9645 23.3684L58.2621 23.7702C58.8489 23.3356 59.3365 22.7559 59.7274 22.038L59.2883 21.7989ZM57.9644 23.3685C57.3937 23.7917 56.8023 23.9961 56.1855 23.9961V24.4961C56.9223 24.4961 57.6161 24.2493 58.2622 23.7701L57.9644 23.3685ZM56.1855 23.9961C55.2044 23.9961 54.4987 23.7591 54.0275 23.3241L53.6883 23.6915C54.2835 24.2409 55.1296 24.4961 56.1855 24.4961V23.9961ZM54.0262 23.323C53.6206 22.9537 53.3205 22.3704 53.1491 21.5398L52.6595 21.6409C52.8435 22.5329 53.1792 23.228 53.6896 23.6927L54.0262 23.323ZM53.1496 21.5419C53.0382 20.9786 52.98 20.1233 52.98 18.9653H52.48C52.48 20.1316 52.538 21.0263 52.659 21.6388L53.1496 21.5419ZM52.98 18.9653V13.3359H52.48V18.9653H52.98ZM52.73 13.5859H54.4937V13.0859H52.73V13.5859ZM54.2437 13.3359V19.4575H54.7437V13.3359H54.2437ZM54.2437 19.4575C54.2437 20.4806 54.3414 21.2552 54.5633 21.7448L55.0187 21.5384C54.8441 21.153 54.7437 20.4716 54.7437 19.4575H54.2437ZM54.5633 21.7447C54.7312 22.1157 54.9888 22.4014 55.3346 22.5913C55.677 22.7793 56.0914 22.8657 56.5649 22.8657V22.3657C56.1498 22.3657 55.8242 22.2897 55.5753 22.1531C55.3298 22.0183 55.1448 21.8169 55.0188 21.5385L54.5633 21.7447ZM56.5649 22.8657C57.2808 22.8657 57.956 22.5216 58.5874 21.8902L58.2339 21.5366C57.6622 22.1083 57.1069 22.3657 56.5649 22.3657V22.8657ZM58.5874 21.8902C59.0118 21.4658 59.4549 20.8544 59.9182 20.0661L59.4871 19.8128C59.0344 20.5831 58.6161 21.1544 58.2339 21.5366L58.5874 21.8902ZM59.9526 19.9395V13.3359H59.4526V19.9395H59.9526ZM59.7026 13.5859H61.4663V13.0859H59.7026V13.5859ZM61.2163 13.3359V19.9189H61.7163V13.3359H61.2163ZM61.2163 19.9189C61.2163 20.8321 61.2403 21.6279 61.2887 22.3054L61.7875 22.2698C61.7401 21.6074 61.7163 20.8241 61.7163 19.9189H61.2163ZM61.2886 22.304C61.3173 22.7412 61.4097 23.2662 61.5622 23.8761L62.0472 23.7548C61.8989 23.1615 61.8136 22.668 61.7875 22.2712L61.2886 22.304ZM64.522 13.5205L64.4676 13.2765L64.2172 13.3323L64.2794 13.5811L64.522 13.5205ZM66.2241 13.1411L66.4625 13.0656L66.3933 12.8473L66.1697 12.8971L66.2241 13.1411ZM66.501 14.3306L66.2535 14.3659L66.2537 14.3672L66.501 14.3306ZM66.6035 15.4277L66.3542 15.4464L66.3716 15.6777H66.6035V15.4277ZM66.8188 15.4277V15.6777H66.9674L67.0384 15.5473L66.8188 15.4277ZM68.2134 13.7769L68.3622 13.9777L68.3623 13.9777L68.2134 13.7769ZM72.4688 13.8384L72.2992 14.0221L72.3004 14.0232L72.4688 13.8384ZM73.4224 15.7559L73.6676 15.7074L73.6672 15.7053L73.4224 15.7559ZM73.5967 24V24.25H73.8467V24H73.5967ZM71.833 24H71.583V24.25H71.833V24ZM71.5356 15.7046L71.3079 15.8077L71.3079 15.8078L71.5356 15.7046ZM66.624 17.4067L66.4085 17.2801L66.374 17.3387V17.4067H66.624ZM66.624 24V24.25H66.874V24H66.624ZM64.8604 24H64.6104V24.25H64.8604V24ZM64.7886 15.0483L64.5391 15.0647L64.5392 15.0662L64.7886 15.0483ZM64.5764 13.7645L66.2785 13.3851L66.1697 12.8971L64.4676 13.2765L64.5764 13.7645ZM65.9858 13.2166C66.112 13.6151 66.2009 13.9981 66.2535 14.3659L66.7485 14.2952C66.6916 13.8974 66.596 13.4875 66.4625 13.0656L65.9858 13.2166ZM66.2537 14.3672C66.2795 14.5414 66.3131 14.8982 66.3542 15.4464L66.8528 15.409C66.8119 14.8635 66.7772 14.4889 66.7483 14.2939L66.2537 14.3672ZM66.6035 15.6777H66.8188V15.1777H66.6035V15.6777ZM67.0384 15.5473C67.3994 14.8843 67.8415 14.3634 68.3622 13.9777L68.0646 13.576C67.4778 14.0106 66.9902 14.5903 66.5993 15.3082L67.0384 15.5473ZM68.3623 13.9777C68.933 13.5544 69.5243 13.3501 70.1411 13.3501V12.8501C69.4044 12.8501 68.7106 13.0969 68.0645 13.576L68.3623 13.9777ZM70.1411 13.3501C71.1222 13.3501 71.8279 13.5871 72.2992 14.0221L72.6383 13.6547C72.0432 13.1053 71.1971 12.8501 70.1411 12.8501V13.3501ZM72.3004 14.0232C72.7061 14.3925 73.0061 14.9758 73.1775 15.8064L73.6672 15.7053C73.4831 14.8133 73.1475 14.1182 72.6371 13.6535L72.3004 14.0232ZM73.1771 15.8043C73.2885 16.3676 73.3467 17.2229 73.3467 18.3809H73.8467C73.8467 17.2146 73.7887 16.3199 73.6676 15.7074L73.1771 15.8043ZM73.3467 18.3809V24H73.8467V18.3809H73.3467ZM73.5967 23.75H71.833V24.25H73.5967V23.75ZM72.083 24V17.8887H71.583V24H72.083ZM72.083 17.8887C72.083 16.8656 71.9852 16.091 71.7634 15.6014L71.3079 15.8078C71.4826 16.1931 71.583 16.8746 71.583 17.8887H72.083ZM71.7634 15.6015C71.5955 15.2305 71.3379 14.9448 70.992 14.7549C70.6496 14.5668 70.2352 14.4805 69.7617 14.4805V14.9805C70.1769 14.9805 70.5025 15.0564 70.7514 15.1931C70.9968 15.3279 71.1819 15.5293 71.3079 15.8077L71.7634 15.6015ZM69.7617 14.4805C69.0458 14.4805 68.3707 14.8246 67.7392 15.456L68.0928 15.8096C68.6645 15.2379 69.2198 14.9805 69.7617 14.9805V14.4805ZM67.7392 15.456C67.3148 15.8804 66.8718 16.4918 66.4085 17.2801L66.8396 17.5334C67.2923 16.7631 67.7106 16.1918 68.0928 15.8096L67.7392 15.456ZM66.374 17.4067V24H66.874V17.4067H66.374ZM66.624 23.75H64.8604V24.25H66.624V23.75ZM65.1104 24V17.4375H64.6104V24H65.1104ZM65.1104 17.4375C65.1104 16.5107 65.0863 15.7081 65.0379 15.0305L64.5392 15.0662C64.5865 15.7284 64.6104 16.5186 64.6104 17.4375H65.1104ZM65.038 15.032C65.0094 14.5948 64.917 14.0697 64.7645 13.4599L64.2794 13.5811C64.4278 14.1744 64.5131 14.6679 64.5391 15.0647L65.038 15.032ZM76.2935 13.5205L76.2391 13.2765L75.9887 13.3323L76.0509 13.5811L76.2935 13.5205ZM77.9956 13.1411L78.2339 13.0656L78.1648 12.8473L77.9412 12.8971L77.9956 13.1411ZM78.2725 14.3306L78.025 14.3659L78.0252 14.3672L78.2725 14.3306ZM78.375 15.4277L78.1257 15.4464L78.143 15.6777H78.375V15.4277ZM78.5903 15.4277V15.6777H78.7389L78.8099 15.5473L78.5903 15.4277ZM79.9849 13.7769L80.1337 13.9777L80.1338 13.9777L79.9849 13.7769ZM84.2402 13.8384L84.0707 14.0221L84.0719 14.0232L84.2402 13.8384ZM85.1938 15.7559L85.4391 15.7074L85.4387 15.7053L85.1938 15.7559ZM85.3682 24V24.25H85.6182V24H85.3682ZM83.6045 24H83.3545V24.25H83.6045V24ZM83.3071 15.7046L83.0794 15.8077L83.0794 15.8078L83.3071 15.7046ZM78.3955 17.4067L78.18 17.2801L78.1455 17.3387V17.4067H78.3955ZM78.3955 24V24.25H78.6455V24H78.3955ZM76.6318 24H76.3818V24.25H76.6318V24ZM76.5601 15.0483L76.3106 15.0647L76.3107 15.0662L76.5601 15.0483ZM76.3478 13.7645L78.05 13.3851L77.9412 12.8971L76.2391 13.2765L76.3478 13.7645ZM77.7573 13.2166C77.8835 13.6151 77.9724 13.9981 78.025 14.3659L78.5199 14.2952C78.4631 13.8974 78.3675 13.4875 78.2339 13.0656L77.7573 13.2166ZM78.0252 14.3672C78.051 14.5414 78.0846 14.8982 78.1257 15.4464L78.6243 15.409C78.5834 14.8635 78.5486 14.4889 78.5198 14.2939L78.0252 14.3672ZM78.375 15.6777H78.5903V15.1777H78.375V15.6777ZM78.8099 15.5473C79.1709 14.8843 79.613 14.3634 80.1337 13.9777L79.8361 13.576C79.2493 14.0106 78.7617 14.5903 78.3708 15.3082L78.8099 15.5473ZM80.1338 13.9777C80.7045 13.5544 81.2958 13.3501 81.9126 13.3501V12.8501C81.1759 12.8501 80.482 13.0969 79.8359 13.576L80.1338 13.9777ZM81.9126 13.3501C82.8937 13.3501 83.5994 13.5871 84.0707 14.0221L84.4098 13.6547C83.8146 13.1053 82.9686 12.8501 81.9126 12.8501V13.3501ZM84.0719 14.0232C84.4775 14.3925 84.7776 14.9758 84.949 15.8064L85.4387 15.7053C85.2546 14.8133 84.9189 14.1182 84.4085 13.6535L84.0719 14.0232ZM84.9486 15.8043C85.0599 16.3676 85.1182 17.2229 85.1182 18.3809H85.6182C85.6182 17.2146 85.5602 16.3199 85.4391 15.7074L84.9486 15.8043ZM85.1182 18.3809V24H85.6182V18.3809H85.1182ZM85.3682 23.75H83.6045V24.25H85.3682V23.75ZM83.8545 24V17.8887H83.3545V24H83.8545ZM83.8545 17.8887C83.8545 16.8656 83.7567 16.091 83.5348 15.6014L83.0794 15.8078C83.254 16.1931 83.3545 16.8746 83.3545 17.8887H83.8545ZM83.5349 15.6015C83.367 15.2305 83.1094 14.9448 82.7635 14.7549C82.4211 14.5668 82.0067 14.4805 81.5332 14.4805V14.9805C81.9484 14.9805 82.2739 15.0564 82.5229 15.1931C82.7683 15.3279 82.9534 15.5293 83.0794 15.8077L83.5349 15.6015ZM81.5332 14.4805C80.8173 14.4805 80.1422 14.8246 79.5107 15.456L79.8643 15.8096C80.436 15.2379 80.9913 14.9805 81.5332 14.9805V14.4805ZM79.5107 15.456C79.0863 15.8804 78.6433 16.4918 78.18 17.2801L78.611 17.5334C79.0638 16.7631 79.482 16.1918 79.8643 15.8096L79.5107 15.456ZM78.1455 17.4067V24H78.6455V17.4067H78.1455ZM78.3955 23.75H76.6318V24.25H78.3955V23.75ZM76.8818 24V17.4375H76.3818V24H76.8818ZM76.8818 17.4375C76.8818 16.5107 76.8578 15.7081 76.8094 15.0305L76.3107 15.0662C76.358 15.7284 76.3818 16.5186 76.3818 17.4375H76.8818ZM76.8095 15.032C76.7809 14.5948 76.6885 14.0697 76.536 13.4599L76.0509 13.5811C76.1992 14.1744 76.2846 14.6679 76.3106 15.0647L76.8095 15.032ZM89.0288 15.2227L88.7903 15.2976L88.8687 15.5469L89.1142 15.4576L89.0288 15.2227ZM88.5776 13.7871L88.485 13.5549L88.2696 13.6408L88.3391 13.8621L88.5776 13.7871ZM94.7095 13.6538L94.8441 13.4432L94.8435 13.4428L94.7095 13.6538ZM95.7246 21.7339L95.9746 21.729L95.9745 21.7281L95.7246 21.7339ZM95.8271 22.8208L96.0743 22.7828L96.0739 22.7804L95.8271 22.8208ZM96.0425 23.8359L96.0961 24.0801L96.3538 24.0236L96.2834 23.7693L96.0425 23.8359ZM94.3608 24.2051L94.1244 24.2862L94.1968 24.4971L94.4144 24.4493L94.3608 24.2051ZM94.0635 22.667L94.3128 22.649L94.2977 22.4392L94.0884 22.4182L94.0635 22.667ZM93.8584 22.6465L93.8833 22.3977L93.7476 22.3842L93.6627 22.4909L93.8584 22.6465ZM88.311 23.4565L88.142 23.6407L88.1432 23.6418L88.311 23.4565ZM87.9111 19.4473L87.7065 19.3037L87.705 19.3058L87.9111 19.4473ZM89.2646 18.2886L89.3836 18.5084L89.3842 18.5081L89.2646 18.2886ZM93.9917 17.5605L93.9824 17.8104L94.2417 17.82V17.5605H93.9917ZM93.9917 21.0059L94.1855 21.1638L94.2417 21.0948V21.0059H93.9917ZM93.9917 18.8525H94.2417V18.6204L94.0102 18.6032L93.9917 18.8525ZM91.5205 18.9858L91.5695 19.231L91.5702 19.2309L91.5205 18.9858ZM89.7671 19.7036L89.9213 19.9004L89.9217 19.9001L89.7671 19.7036ZM92.6587 22.2466L92.7897 22.4595L92.7912 22.4586L92.6587 22.2466ZM89.2673 15.1477L88.8161 13.7122L88.3391 13.8621L88.7903 15.2976L89.2673 15.1477ZM88.6702 14.0193C89.7887 13.5733 90.9604 13.3501 92.187 13.3501V12.8501C90.898 12.8501 89.6634 13.0849 88.485 13.5549L88.6702 14.0193ZM92.187 13.3501C93.266 13.3501 94.0518 13.5322 94.5754 13.8648L94.8435 13.4428C94.2051 13.0372 93.3092 12.8501 92.187 12.8501V13.3501ZM94.5748 13.8645C95.145 14.2289 95.4541 14.8558 95.4541 15.8174H95.9541C95.9541 14.7419 95.6001 13.9264 94.8441 13.4432L94.5748 13.8645ZM95.4541 15.8174V20.0112H95.9541V15.8174H95.4541ZM95.4541 20.0112C95.4541 20.5738 95.461 21.15 95.4747 21.7397L95.9745 21.7281C95.9609 21.142 95.9541 20.5697 95.9541 20.0112H95.4541ZM95.4747 21.7388C95.4817 22.1003 95.5172 22.4745 95.5804 22.8612L96.0739 22.7804C96.0141 22.4151 95.9811 22.0647 95.9746 21.729L95.4747 21.7388ZM95.5801 22.8588C95.6361 23.2232 95.7099 23.5712 95.8015 23.9026L96.2834 23.7693C96.1974 23.4581 96.1276 23.1293 96.0742 22.7828L95.5801 22.8588ZM95.9889 23.5918L94.3072 23.9609L94.4144 24.4493L96.0961 24.0801L95.9889 23.5918ZM94.5973 24.1239C94.4482 23.6895 94.3526 23.1985 94.3128 22.649L93.8141 22.685C93.8564 23.2703 93.9591 23.8047 94.1244 24.2862L94.5973 24.1239ZM94.0884 22.4182L93.8833 22.3977L93.8335 22.8952L94.0386 22.9158L94.0884 22.4182ZM93.6627 22.4909C92.8604 23.5003 91.8512 23.9961 90.6182 23.9961V24.4961C92.0102 24.4961 93.1611 23.9255 94.0541 22.802L93.6627 22.4909ZM90.6182 23.9961C89.7088 23.9961 89.0043 23.7472 88.4789 23.2713L88.1432 23.6418C88.7799 24.2186 89.6135 24.4961 90.6182 24.4961V23.9961ZM88.4801 23.2723C87.9618 22.7968 87.6895 22.1216 87.6895 21.2109H87.1895C87.1895 22.228 87.4982 23.0499 88.142 23.6407L88.4801 23.2723ZM87.6895 21.2109C87.6895 20.529 87.8387 19.9945 88.1172 19.5888L87.705 19.3058C87.3547 19.8161 87.1895 20.4573 87.1895 21.2109H87.6895ZM88.1158 19.5908C88.4111 19.1698 88.8305 18.8078 89.3836 18.5084L89.1457 18.0687C88.5367 18.3983 88.0537 18.8087 87.7065 19.3037L88.1158 19.5908ZM89.3842 18.5081C90.2483 18.0374 91.4823 17.79 93.1099 17.79V17.29C91.4425 17.29 90.1131 17.5417 89.1451 18.069L89.3842 18.5081ZM93.1099 17.79C93.3242 17.79 93.6146 17.7968 93.9824 17.8104L94.001 17.3107C93.6305 17.297 93.3331 17.29 93.1099 17.29V17.79ZM94.2417 17.5605V16.002H93.7417V17.5605H94.2417ZM94.2417 16.002C94.2417 15.4581 94.0729 15.0136 93.6876 14.7334L93.3935 15.1377C93.6097 15.295 93.7417 15.5615 93.7417 16.002H94.2417ZM93.6876 14.7334C93.3228 14.4681 92.7866 14.3574 92.1255 14.3574V14.8574C92.7496 14.8574 93.1567 14.9655 93.3935 15.1377L93.6876 14.7334ZM92.1255 14.3574C91.1529 14.3574 90.0913 14.5703 88.9434 14.9877L89.1142 15.4576C90.2221 15.0547 91.225 14.8574 92.1255 14.8574V14.3574ZM94.2417 21.0059V18.8525H93.7417V21.0059H94.2417ZM94.0102 18.6032C93.8162 18.5889 93.5388 18.582 93.1816 18.582V19.082C93.5354 19.082 93.7981 19.0889 93.9732 19.1019L94.0102 18.6032ZM93.1816 18.582C92.5661 18.582 91.9955 18.6345 91.4708 18.7408L91.5702 19.2309C92.0573 19.1321 92.5941 19.082 93.1816 19.082V18.582ZM91.4715 18.7407C90.6969 18.8956 90.071 19.1463 89.6125 19.5071L89.9217 19.9001C90.2972 19.6046 90.8402 19.3769 91.5695 19.231L91.4715 18.7407ZM89.6129 19.5068C89.1317 19.8838 88.9019 20.4274 88.9019 21.0981H89.4019C89.4019 20.5521 89.5822 20.166 89.9213 19.9004L89.6129 19.5068ZM88.9019 21.0981C88.9019 21.6892 89.0635 22.1769 89.4287 22.5126C89.7899 22.8448 90.3077 22.9888 90.936 22.9888V22.4888C90.3749 22.4888 90.0006 22.3593 89.7671 22.1446C89.5376 21.9335 89.4019 21.6008 89.4019 21.0981H88.9019ZM90.936 22.9888C91.5984 22.9888 92.2178 22.8114 92.7897 22.4595L92.5277 22.0337C92.0331 22.338 91.5042 22.4888 90.936 22.4888V22.9888ZM92.7912 22.4586C93.259 22.1662 93.7232 21.7312 94.1855 21.1638L93.7979 20.8479C93.3579 21.3879 92.9334 21.7801 92.5262 22.0346L92.7912 22.4586ZM99.1597 9.23438V8.98438H98.9097V9.23438H99.1597ZM100.923 9.23438H101.173V8.98438H100.923V9.23438ZM100.923 15.6636H100.673V16.5823L101.139 15.7902L100.923 15.6636ZM102.482 13.8384L102.333 13.6376L102.332 13.6387L102.482 13.8384ZM106.758 13.8384L106.591 14.0242L106.591 14.0243L106.758 13.8384ZM107.732 15.7559L107.487 15.8068L107.487 15.8074L107.732 15.7559ZM107.937 24V24.25H108.187V24H107.937ZM106.173 24H105.923V24.25H106.173V24ZM106.143 16.8633L105.893 16.882L105.893 16.8825L106.143 16.8633ZM105.989 16.0122L105.746 16.0729L105.748 16.0794L105.989 16.0122ZM105.65 15.3149L105.459 15.4759L105.466 15.4839L105.65 15.3149ZM105.035 14.8945L104.938 15.1249L104.94 15.1258L105.035 14.8945ZM102.205 15.6533L102.383 15.8285L102.384 15.8281L102.205 15.6533ZM100.923 17.4375L100.708 17.3105L100.673 17.3693V17.4375H100.923ZM100.923 24V24.25H101.173V24H100.923ZM99.1597 24H98.9097V24.25H99.1597V24ZM99.1597 9.48438H100.923V8.98438H99.1597V9.48438ZM100.673 9.23438V15.6636H101.173V9.23438H100.673ZM101.139 15.7902C101.584 15.0327 102.083 14.4516 102.632 14.0381L102.332 13.6387C101.719 14.1002 101.179 14.7359 100.708 15.5369L101.139 15.7902ZM102.631 14.0391C103.262 13.5706 103.871 13.3501 104.461 13.3501V12.8501C103.739 12.8501 103.028 13.1218 102.333 13.6376L102.631 14.0391ZM104.461 13.3501C105.405 13.3501 106.103 13.5856 106.591 14.0242L106.925 13.6526C106.319 13.1068 105.486 12.8501 104.461 12.8501V13.3501ZM106.591 14.0243C107.01 14.4014 107.316 14.9852 107.487 15.8068L107.977 15.7049C107.792 14.8175 107.449 14.123 106.925 13.6524L106.591 14.0243ZM107.487 15.8074C107.619 16.4324 107.687 17.2879 107.687 18.3809H108.187C108.187 17.2727 108.118 16.3781 107.977 15.7044L107.487 15.8074ZM107.687 18.3809V24H108.187V18.3809H107.687ZM107.937 23.75H106.173V24.25H107.937V23.75ZM106.423 24V17.8887H105.923V24H106.423ZM106.423 17.8887C106.423 17.4684 106.413 17.1196 106.392 16.8441L105.893 16.8825C105.913 17.1402 105.923 17.475 105.923 17.8887H106.423ZM106.392 16.8446C106.37 16.553 106.316 16.253 106.23 15.945L105.748 16.0794C105.826 16.3593 105.874 16.6267 105.893 16.882L106.392 16.8446ZM106.231 15.9516C106.15 15.6254 106.022 15.3504 105.835 15.146L105.466 15.4839C105.579 15.6076 105.677 15.7974 105.746 16.0728L106.231 15.9516ZM105.842 15.1541C105.666 14.9446 105.423 14.7836 105.13 14.6632L104.94 15.1258C105.18 15.2242 105.348 15.3435 105.459 15.4757L105.842 15.1541ZM105.132 14.6641C104.833 14.5383 104.48 14.4805 104.082 14.4805V14.9805C104.435 14.9805 104.717 15.032 104.938 15.1249L105.132 14.6641ZM104.082 14.4805C103.345 14.4805 102.659 14.8314 102.026 15.4785L102.384 15.8281C102.954 15.2447 103.519 14.9805 104.082 14.9805V14.4805ZM102.027 15.4781C101.623 15.8889 101.184 16.5036 100.708 17.3105L101.139 17.5645C101.606 16.7718 102.021 16.1971 102.383 15.8285L102.027 15.4781ZM100.673 17.4375V24H101.173V17.4375H100.673ZM100.923 23.75H99.1597V24.25H100.923V23.75ZM99.4097 24V9.23438H98.9097V24H99.4097Z" fill="#043E5F"/>
</g>
</g>
<defs>
<filter id="filter0_dd_58_342" x="0" y="0" width="149" height="44" filterUnits="userSpaceOnUse" color-interpolation-filters="sRGB">
<feFlood flood-opacity="0" result="BackgroundImageFix"/>
<feColorMatrix in="SourceAlpha" type="matrix" values="0 0 0 0 0 0 0 0 0 0 0 0 0 0 0 0 0 0 127 0" result="hardAlpha"/>
<feOffset dy="4"/>
<feGaussianBlur stdDeviation="2"/>
<feComposite in2="hardAlpha" operator="out"/>
<feColorMatrix type="matrix" values="0 0 0 0 0 0 0 0 0 0 0 0 0 0 0 0 0 0 0.25 0"/>
<feBlend mode="normal" in2="BackgroundImageFix" result="effect1_dropShadow_58_342"/>
<feColorMatrix in="SourceAlpha" type="matrix" values="0 0 0 0 0 0 0 0 0 0 0 0 0 0 0 0 0 0 127 0" result="hardAlpha"/>
<feOffset dy="4"/>
<feGaussianBlur stdDeviation="2"/>
<feComposite in2="hardAlpha" operator="out"/>
<feColorMatrix type="matrix" values="0 0 0 0 0 0 0 0 0 0 0 0 0 0 0 0 0 0 0.25 0"/>
<feBlend mode="normal" in2="effect1_dropShadow_58_342" result="effect2_dropShadow_58_342"/>
<feBlend mode="normal" in="SourceGraphic" in2="effect2_dropShadow_58_342" result="shape"/>
</filter>
<filter id="filter1_iiii_58_342" x="4" y="0" width="141" height="40" filterUnits="userSpaceOnUse" color-interpolation-filters="sRGB">
<feFlood flood-opacity="0" result="BackgroundImageFix"/>
<feBlend mode="normal" in="SourceGraphic" in2="BackgroundImageFix" result="shape"/>
<feColorMatrix in="SourceAlpha" type="matrix" values="0 0 0 0 0 0 0 0 0 0 0 0 0 0 0 0 0 0 127 0" result="hardAlpha"/>
<feOffset dy="4"/>
<feGaussianBlur stdDeviation="2"/>
<feComposite in2="hardAlpha" operator="arithmetic" k2="-1" k3="1"/>
<feColorMatrix type="matrix" values="0 0 0 0 0 0 0 0 0 0 0 0 0 0 0 0 0 0 0.25 0"/>
<feBlend mode="normal" in2="shape" result="effect1_innerShadow_58_342"/>
<feColorMatrix in="SourceAlpha" type="matrix" values="0 0 0 0 0 0 0 0 0 0 0 0 0 0 0 0 0 0 127 0" result="hardAlpha"/>
<feOffset dy="4"/>
<feGaussianBlur stdDeviation="2"/>
<feComposite in2="hardAlpha" operator="arithmetic" k2="-1" k3="1"/>
<feColorMatrix type="matrix" values="0 0 0 0 0 0 0 0 0 0 0 0 0 0 0 0 0 0 0.25 0"/>
<feBlend mode="normal" in2="effect1_innerShadow_58_342" result="effect2_innerShadow_58_342"/>
<feColorMatrix in="SourceAlpha" type="matrix" values="0 0 0 0 0 0 0 0 0 0 0 0 0 0 0 0 0 0 127 0" result="hardAlpha"/>
<feOffset dy="4"/>
<feGaussianBlur stdDeviation="2"/>
<feComposite in2="hardAlpha" operator="arithmetic" k2="-1" k3="1"/>
<feColorMatrix type="matrix" values="0 0 0 0 0 0 0 0 0 0 0 0 0 0 0 0 0 0 0.25 0"/>
<feBlend mode="normal" in2="effect2_innerShadow_58_342" result="effect3_innerShadow_58_342"/>
<feColorMatrix in="SourceAlpha" type="matrix" values="0 0 0 0 0 0 0 0 0 0 0 0 0 0 0 0 0 0 127 0" result="hardAlpha"/>
<feOffset dy="4"/>
<feGaussianBlur stdDeviation="2"/>
<feComposite in2="hardAlpha" operator="arithmetic" k2="-1" k3="1"/>
<feColorMatrix type="matrix" values="0 0 0 0 0 0 0 0 0 0 0 0 0 0 0 0 0 0 0.25 0"/>
<feBlend mode="normal" in2="effect3_innerShadow_58_342" result="effect4_innerShadow_58_342"/>
</filter>
<filter id="filter2_d_58_342" x="36.1792" y="9.0293" width="75.7578" height="23.2168" filterUnits="userSpaceOnUse" color-interpolation-filters="sRGB">
<feFlood flood-opacity="0" result="BackgroundImageFix"/>
<feColorMatrix in="SourceAlpha" type="matrix" values="0 0 0 0 0 0 0 0 0 0 0 0 0 0 0 0 0 0 127 0" result="hardAlpha"/>
<feOffset dy="4"/>
<feGaussianBlur stdDeviation="2"/>
<feComposite in2="hardAlpha" operator="out"/>
<feColorMatrix type="matrix" values="0 0 0 0 0 0 0 0 0 0 0 0 0 0 0 0 0 0 0.25 0"/>
<feBlend mode="normal" in2="BackgroundImageFix" result="effect1_dropShadow_58_342"/>
<feBlend mode="normal" in="SourceGraphic" in2="effect1_dropShadow_58_342" result="shape"/>
</filter>
</defs>
</svg>
