<svg width="149" height="44" viewBox="0 0 149 44" fill="none" xmlns="http://www.w3.org/2000/svg">
<g filter="url(#filter0_dd_117_32)">
<rect x="4" width="141" height="36" rx="18" fill="#043E5F"/>
<rect x="5" y="1" width="139" height="34" rx="17" stroke="#043E5F" stroke-width="2"/>
</g>
<g filter="url(#filter1_dd_117_32)">
<path d="M39.8638 23.5796C39.228 23.7778 38.5547 23.9385 37.8438 24.0615C37.1396 24.1846 36.3638 24.2461 35.5161 24.2461C33.4243 24.2461 31.8452 23.6206 30.7788 22.3696C29.7124 21.1187 29.1792 19.2764 29.1792 16.8428C29.1792 14.2588 29.7124 12.3105 30.7788 10.998C31.8452 9.68555 33.4243 9.0293 35.5161 9.0293C36.3091 9.0293 37.02 9.09766 37.6489 9.23438C38.2847 9.37109 38.8965 9.54883 39.4844 9.76758L38.9512 11.2852C38.6709 11.1826 38.394 11.0903 38.1206 11.0083C37.8472 10.9263 37.5703 10.8579 37.29 10.8032C37.0166 10.7485 36.7329 10.7075 36.439 10.6802C36.145 10.6528 35.8374 10.6392 35.5161 10.6392C34.7573 10.6392 34.1045 10.7759 33.5576 11.0493C33.0107 11.3159 32.5596 11.709 32.2041 12.2285C31.8486 12.7412 31.5854 13.3701 31.4146 14.1152C31.2437 14.8535 31.1582 15.6943 31.1582 16.6377C31.1582 17.6084 31.2437 18.4663 31.4146 19.2114C31.5854 19.9565 31.8486 20.5854 32.2041 21.0981C32.5596 21.604 33.0107 21.9868 33.5576 22.2466C34.1045 22.5063 34.7573 22.6362 35.5161 22.6362C36.2134 22.6362 36.8765 22.5781 37.5054 22.4619C38.1343 22.3457 38.7598 22.1919 39.3818 22.0005L39.8638 23.5796ZM42.5093 9.23438H44.2729V15.6636C44.731 14.8843 45.2505 14.2759 45.8315 13.8384C46.4946 13.3462 47.1543 13.1001 47.8105 13.1001C48.7949 13.1001 49.5605 13.3462 50.1074 13.8384C50.5791 14.2622 50.9038 14.9014 51.0815 15.7559C51.2183 16.4053 51.2866 17.2803 51.2866 18.3809V24H49.5229V17.8887C49.5229 17.4717 49.5127 17.1299 49.4922 16.8633C49.4717 16.5898 49.4204 16.3062 49.3384 16.0122C49.2632 15.7114 49.1504 15.479 49 15.3149C48.8564 15.144 48.6514 15.0039 48.3848 14.8945C48.125 14.7852 47.8071 14.7305 47.4312 14.7305C46.7817 14.7305 46.1562 15.0381 45.5547 15.6533C45.1719 16.043 44.7446 16.6377 44.2729 17.4375V24H42.5093V9.23438ZM55.3677 9.20361C55.6821 9.20361 55.9556 9.31299 56.188 9.53174C56.4136 9.771 56.5264 10.0513 56.5264 10.3726C56.5264 10.7007 56.4136 10.9775 56.188 11.2031C55.9556 11.4355 55.6821 11.5518 55.3677 11.5518C55.0396 11.5518 54.7593 11.4355 54.5269 11.2031C54.2944 10.9844 54.1782 10.7075 54.1782 10.3726C54.1782 10.0444 54.2944 9.76416 54.5269 9.53174C54.7593 9.31299 55.0396 9.20361 55.3677 9.20361ZM54.4653 13.3359H56.229V24H54.4653V13.3359ZM61.3867 19.8574C61.3867 20.418 61.3936 20.8896 61.4072 21.2725C61.4209 21.6484 61.438 21.98 61.4585 22.2671C61.479 22.5542 61.5098 22.814 61.5508 23.0464C61.5986 23.2788 61.6567 23.5352 61.7251 23.8154C61.438 23.8906 61.1509 23.959 60.8638 24.0205C60.5767 24.0889 60.2896 24.147 60.0024 24.1948C59.8657 23.7505 59.7666 23.3438 59.7051 22.9746C59.6504 22.6055 59.623 22.2432 59.623 21.8877V9.25488H61.3867V19.8574ZM71.0254 9.23438H72.7891V19.9702C72.7891 21.1733 72.8062 21.9629 72.8403 22.3389C72.8745 22.8037 72.9531 23.3027 73.0762 23.8359L71.374 24.2153C71.2578 23.8325 71.1724 23.4463 71.1177 23.0566C71.0493 22.5781 71.0117 22.209 71.0049 21.9492H70.8511C70.4956 22.6875 70.1025 23.231 69.6719 23.5796C69.1523 24.0239 68.5098 24.2461 67.7441 24.2461C67.0742 24.2461 66.4966 24.1025 66.0112 23.8154C65.5259 23.5215 65.1465 23.1147 64.873 22.5952C64.6064 22.0757 64.4082 21.5049 64.2783 20.8828C64.1553 20.2607 64.0938 19.5737 64.0938 18.8218C64.0938 17.9741 64.1792 17.2119 64.3501 16.5352C64.5278 15.8584 64.7979 15.2603 65.1602 14.7407C65.5225 14.2144 66.0078 13.811 66.6162 13.5308C67.2246 13.2437 67.939 13.1001 68.7593 13.1001C69.4019 13.1001 70.1572 13.1855 71.0254 13.3564V9.23438ZM71.0254 19.6831V14.915C70.2529 14.71 69.542 14.6074 68.8926 14.6074C68.3389 14.6074 67.8604 14.71 67.457 14.915C67.0605 15.1133 66.7495 15.397 66.5239 15.7661C66.2983 16.1284 66.1343 16.5352 66.0317 16.9863C65.9292 17.4375 65.8779 17.9434 65.8779 18.5039C65.8779 18.8867 65.8848 19.2251 65.8984 19.519C65.9189 19.8062 65.9497 20.1206 65.9907 20.4624C66.0386 20.7974 66.1104 21.0845 66.2061 21.3237C66.3018 21.563 66.4214 21.7852 66.5649 21.9902C66.7085 22.1953 66.8931 22.3525 67.1187 22.4619C67.3511 22.5645 67.6177 22.6157 67.9185 22.6157C68.6431 22.6157 69.272 22.3252 69.8052 21.7441C70.188 21.3203 70.5947 20.6333 71.0254 19.6831ZM78.2339 15.8071C78.4458 15.3833 78.6714 15.0005 78.9106 14.6587C79.1567 14.3169 79.4268 14.0264 79.7207 13.7871C79.9873 13.5547 80.2812 13.3838 80.6025 13.2744C80.9238 13.1582 81.2896 13.1001 81.6997 13.1001C81.8364 13.1001 81.9937 13.1069 82.1714 13.1206C82.356 13.1343 82.5303 13.1582 82.6943 13.1924C82.667 13.5342 82.6328 13.8555 82.5918 14.1562C82.5576 14.457 82.5098 14.7612 82.4482 15.0688C82.1064 15.0073 81.792 14.9629 81.5049 14.9355C81.2246 14.9082 80.958 14.915 80.7051 14.9561C80.4043 15.0107 80.1411 15.1133 79.9155 15.2637C79.6968 15.4072 79.4917 15.6021 79.3003 15.8481C79.1157 16.0874 78.9346 16.3779 78.7568 16.7197C78.5791 17.0547 78.3843 17.4409 78.1724 17.8784V24H76.4087V17.4272C76.4087 16.9966 76.4019 16.6172 76.3882 16.2891C76.3813 15.9609 76.3608 15.6499 76.3267 15.356C76.2993 15.0552 76.2549 14.7612 76.1934 14.4741C76.1318 14.1802 76.0498 13.8555 75.9473 13.5C76.2344 13.4248 76.5146 13.3564 76.7881 13.2949C77.0684 13.2334 77.3521 13.1753 77.6392 13.1206C77.7349 13.394 77.8101 13.6367 77.8647 13.8486C77.9263 14.0605 77.9741 14.269 78.0083 14.4741C78.0425 14.6724 78.0664 14.8774 78.0801 15.0894C78.1006 15.2944 78.1211 15.5337 78.1416 15.8071H78.2339ZM92.8457 23.4053C92.0869 23.7061 91.3726 23.9214 90.7026 24.0513C90.0396 24.1812 89.4448 24.2461 88.9185 24.2461C88.1118 24.2461 87.4077 24.1196 86.8062 23.8667C86.2046 23.6069 85.7021 23.2446 85.2988 22.7798C84.9023 22.3149 84.6016 21.7612 84.3965 21.1187C84.1982 20.4692 84.0991 19.7549 84.0991 18.9756C84.0991 18.4971 84.1333 18.0186 84.2017 17.54C84.27 17.0615 84.3794 16.6069 84.5298 16.1763C84.6802 15.7388 84.875 15.332 85.1143 14.9561C85.3604 14.5801 85.6577 14.2554 86.0063 13.9819C86.355 13.7085 86.7617 13.4932 87.2266 13.3359C87.6914 13.1787 88.2212 13.1001 88.8159 13.1001C90.3403 13.1001 91.4888 13.5786 92.2612 14.5356C93.0337 15.4858 93.4199 16.8496 93.4199 18.627V19.1909H85.9141C85.9141 19.7651 85.9756 20.2744 86.0986 20.7188C86.2217 21.1562 86.4097 21.5288 86.6626 21.8364C86.9224 22.1372 87.2471 22.3662 87.6367 22.5234C88.0332 22.6807 88.5015 22.7593 89.0415 22.7593C89.3423 22.7593 89.6396 22.7388 89.9336 22.6978C90.2344 22.6499 90.5249 22.5918 90.8052 22.5234C91.0854 22.4482 91.3521 22.3662 91.605 22.2773C91.8647 22.1885 92.1074 22.103 92.333 22.021L92.8457 23.4053ZM91.646 17.7759C91.5913 16.6685 91.3247 15.8618 90.8462 15.356C90.3745 14.8433 89.6978 14.5869 88.8159 14.5869C87.9341 14.5869 87.2607 14.8433 86.7959 15.356C86.3379 15.8618 86.061 16.6685 85.9653 17.7759H91.646ZM95.8296 13.5205L97.5317 13.1411C97.6616 13.5513 97.7539 13.9478 97.8086 14.3306C97.8359 14.5151 97.8701 14.8809 97.9111 15.4277H98.1265C98.5024 14.7373 98.9673 14.187 99.521 13.7769C100.129 13.3257 100.772 13.1001 101.449 13.1001C102.467 13.1001 103.243 13.3462 103.776 13.8384C104.234 14.2554 104.552 14.8945 104.73 15.7559C104.846 16.3438 104.904 17.2188 104.904 18.3809V24H103.141V17.8887C103.141 16.8701 103.042 16.1421 102.843 15.7046C102.549 15.0552 101.958 14.7305 101.069 14.7305C100.44 14.7305 99.8252 15.0312 99.2236 15.6328C98.8203 16.0361 98.3896 16.6274 97.9316 17.4067V24H96.168V17.4375C96.168 16.5146 96.144 15.7183 96.0962 15.0483C96.0688 14.6313 95.98 14.1221 95.8296 13.5205ZM107.704 9.55225C107.991 9.34717 108.237 9.20703 108.442 9.13184C108.647 9.05664 108.855 9.01904 109.067 9.01904C109.437 9.01904 109.734 9.09082 109.959 9.23438C110.185 9.37793 110.349 9.56592 110.452 9.79834C110.554 10.0308 110.595 10.2939 110.575 10.5879C110.561 10.8818 110.493 11.1758 110.37 11.4697C110.294 11.6611 110.188 11.8901 110.052 12.1567C109.915 12.4233 109.768 12.6968 109.611 12.9771C109.46 13.2573 109.307 13.5342 109.149 13.8076C108.999 14.0742 108.869 14.3066 108.76 14.5049H107.386L108.278 11.5415L107.704 9.55225ZM116.83 13.1001C117.39 13.1001 117.951 13.1582 118.511 13.2744C119.079 13.3906 119.605 13.5513 120.09 13.7563C119.995 13.9751 119.896 14.1904 119.793 14.4023C119.69 14.6143 119.578 14.8228 119.455 15.0278C119.284 14.9595 119.092 14.8911 118.88 14.8228C118.675 14.7544 118.457 14.6963 118.224 14.6484C117.999 14.6006 117.763 14.563 117.517 14.5356C117.277 14.5015 117.042 14.4844 116.809 14.4844C116.556 14.4844 116.31 14.5117 116.071 14.5664C115.838 14.6143 115.63 14.6963 115.445 14.8125C115.268 14.9287 115.124 15.0825 115.015 15.2739C114.905 15.4585 114.851 15.6909 114.851 15.9712C114.851 16.2583 114.912 16.501 115.035 16.6992C115.158 16.8906 115.326 17.0513 115.538 17.1812C115.75 17.311 115.996 17.4204 116.276 17.5093C116.563 17.5981 116.867 17.6802 117.188 17.7554C117.688 17.8784 118.152 18.0186 118.583 18.1758C119.014 18.3262 119.386 18.5244 119.701 18.7705C120.015 19.0166 120.261 19.3208 120.439 19.6831C120.617 20.0454 120.706 20.4932 120.706 21.0264C120.706 21.5869 120.593 22.0688 120.367 22.4722C120.148 22.8755 119.848 23.2104 119.465 23.4771C119.089 23.7368 118.648 23.9282 118.142 24.0513C117.636 24.1812 117.096 24.2461 116.522 24.2461C116.221 24.2461 115.91 24.2256 115.589 24.1846C115.274 24.1504 114.96 24.0957 114.646 24.0205C114.338 23.9521 114.034 23.8667 113.733 23.7642C113.432 23.6616 113.148 23.5488 112.882 23.4258C112.978 23.207 113.077 22.9951 113.179 22.79C113.289 22.5781 113.401 22.3696 113.518 22.1646C113.743 22.2603 113.982 22.3525 114.235 22.4414C114.488 22.5234 114.748 22.5952 115.015 22.6567C115.281 22.7183 115.544 22.7695 115.804 22.8105C116.064 22.8447 116.313 22.8618 116.553 22.8618C116.854 22.8618 117.144 22.8276 117.424 22.7593C117.711 22.6909 117.964 22.585 118.183 22.4414C118.409 22.291 118.586 22.0996 118.716 21.8672C118.853 21.6348 118.921 21.3545 118.921 21.0264C118.921 20.7188 118.856 20.4658 118.727 20.2676C118.604 20.0693 118.436 19.9053 118.224 19.7754C118.012 19.6387 117.763 19.5293 117.476 19.4473C117.195 19.3584 116.898 19.2764 116.583 19.2012C116.105 19.085 115.65 18.9517 115.22 18.8013C114.796 18.6509 114.423 18.4561 114.102 18.2168C113.788 17.9707 113.535 17.6699 113.343 17.3145C113.159 16.9521 113.066 16.5044 113.066 15.9712C113.066 15.4722 113.169 15.0415 113.374 14.6792C113.579 14.3169 113.853 14.0195 114.194 13.7871C114.543 13.5547 114.943 13.3838 115.394 13.2744C115.852 13.1582 116.331 13.1001 116.83 13.1001Z" fill="white"/>
</g>
<defs>
<filter id="filter0_dd_117_32" x="0" y="0" width="149" height="44" filterUnits="userSpaceOnUse" color-interpolation-filters="sRGB">
<feFlood flood-opacity="0" result="BackgroundImageFix"/>
<feColorMatrix in="SourceAlpha" type="matrix" values="0 0 0 0 0 0 0 0 0 0 0 0 0 0 0 0 0 0 127 0" result="hardAlpha"/>
<feOffset dy="4"/>
<feGaussianBlur stdDeviation="2"/>
<feComposite in2="hardAlpha" operator="out"/>
<feColorMatrix type="matrix" values="0 0 0 0 0 0 0 0 0 0 0 0 0 0 0 0 0 0 0.25 0"/>
<feBlend mode="normal" in2="BackgroundImageFix" result="effect1_dropShadow_117_32"/>
<feColorMatrix in="SourceAlpha" type="matrix" values="0 0 0 0 0 0 0 0 0 0 0 0 0 0 0 0 0 0 127 0" result="hardAlpha"/>
<feOffset dy="4"/>
<feGaussianBlur stdDeviation="2"/>
<feComposite in2="hardAlpha" operator="out"/>
<feColorMatrix type="matrix" values="0 0 0 0 0 0 0 0 0 0 0 0 0 0 0 0 0 0 0.25 0"/>
<feBlend mode="normal" in2="effect1_dropShadow_117_32" result="effect2_dropShadow_117_32"/>
<feBlend mode="normal" in="SourceGraphic" in2="effect2_dropShadow_117_32" result="shape"/>
</filter>
<filter id="filter1_dd_117_32" x="25.1792" y="9.01904" width="99.5264" height="23.2271" filterUnits="userSpaceOnUse" color-interpolation-filters="sRGB">
<feFlood flood-opacity="0" result="BackgroundImageFix"/>
<feColorMatrix in="SourceAlpha" type="matrix" values="0 0 0 0 0 0 0 0 0 0 0 0 0 0 0 0 0 0 127 0" result="hardAlpha"/>
<feOffset dy="4"/>
<feGaussianBlur stdDeviation="2"/>
<feComposite in2="hardAlpha" operator="out"/>
<feColorMatrix type="matrix" values="0 0 0 0 0 0 0 0 0 0 0 0 0 0 0 0 0 0 0.25 0"/>
<feBlend mode="normal" in2="BackgroundImageFix" result="effect1_dropShadow_117_32"/>
<feColorMatrix in="SourceAlpha" type="matrix" values="0 0 0 0 0 0 0 0 0 0 0 0 0 0 0 0 0 0 127 0" result="hardAlpha"/>
<feOffset dy="4"/>
<feGaussianBlur stdDeviation="2"/>
<feComposite in2="hardAlpha" operator="out"/>
<feColorMatrix type="matrix" values="0 0 0 0 0 0 0 0 0 0 0 0 0 0 0 0 0 0 0.25 0"/>
<feBlend mode="normal" in2="effect1_dropShadow_117_32" result="effect2_dropShadow_117_32"/>
<feBlend mode="normal" in="SourceGraphic" in2="effect2_dropShadow_117_32" result="shape"/>
</filter>
</defs>
</svg>
