<svg width="149" height="44" viewBox="0 0 149 44" fill="none" xmlns="http://www.w3.org/2000/svg">
<g filter="url(#filter0_dd_117_32)">
<rect x="4" width="141" height="36" rx="18" fill="#043E5F"/>
<rect x="5" y="1" width="139" height="34" rx="17" stroke="#043E5F" stroke-width="2"/>
</g>
<g filter="url(#filter1_dd_117_32)">
<path d="M52.8662 24V9.25488H55.9834C56.8242 9.25488 57.6035 9.29932 58.3213 9.38818C59.0459 9.47021 59.709 9.61719 60.3105 9.8291C60.9121 10.041 61.4385 10.3247 61.8896 10.6802C62.3477 11.0288 62.7407 11.4766 63.0688 12.0234C63.3901 12.5703 63.6328 13.2197 63.7969 13.9717C63.9609 14.7236 64.043 15.6089 64.043 16.6274C64.043 17.646 63.9609 18.5312 63.7969 19.2832C63.6328 20.0352 63.3901 20.6846 63.0688 21.2314C62.7407 21.7783 62.3477 22.2295 61.8896 22.585C61.4385 22.9336 60.9121 23.2139 60.3105 23.4258C59.709 23.6377 59.0459 23.7881 58.3213 23.877C57.6035 23.959 56.8242 24 55.9834 24H52.8662ZM56.3013 22.4209C57.3472 22.4209 58.2324 22.3184 58.957 22.1133C59.6885 21.9014 60.2866 21.5596 60.7515 21.0879C61.2095 20.6162 61.541 20.0181 61.7461 19.2935C61.958 18.562 62.064 17.6733 62.064 16.6274C62.064 15.5815 61.958 14.6963 61.7461 13.9717C61.541 13.2402 61.2095 12.6387 60.7515 12.167C60.2866 11.6953 59.6885 11.3569 58.957 11.1519C58.2324 10.9399 57.3472 10.834 56.3013 10.834H54.7939V22.4209H56.3013ZM67.4575 15.2227L67.0063 13.7871C68.1548 13.3291 69.3579 13.1001 70.6157 13.1001C71.7163 13.1001 72.5571 13.2847 73.1382 13.6538C73.8013 14.0776 74.1328 14.7988 74.1328 15.8174V20.0112C74.1328 20.5718 74.1396 21.146 74.1533 21.7339C74.1602 22.0825 74.1943 22.4448 74.2559 22.8208C74.3105 23.1763 74.3823 23.5146 74.4712 23.8359L72.7896 24.2051C72.6323 23.7471 72.5332 23.2344 72.4922 22.667L72.2871 22.6465C71.4395 23.7129 70.3594 24.2461 69.0469 24.2461C68.0898 24.2461 67.3208 23.9829 66.7397 23.4565C66.1587 22.9233 65.8682 22.1748 65.8682 21.2109C65.8682 20.4932 66.0254 19.9053 66.3398 19.4473C66.6611 18.9893 67.1123 18.603 67.6934 18.2886C68.6094 17.7896 69.8911 17.54 71.5386 17.54C71.7573 17.54 72.0513 17.5469 72.4204 17.5605V16.002C72.4204 15.5098 72.27 15.1543 71.9692 14.9355C71.6685 14.7168 71.1968 14.6074 70.5542 14.6074C69.6177 14.6074 68.5854 14.8125 67.4575 15.2227ZM72.4204 21.0059V18.8525C72.2358 18.8389 71.9658 18.832 71.6104 18.832C71.0088 18.832 70.4551 18.8833 69.9492 18.9858C69.1973 19.1362 68.6128 19.3755 68.1958 19.7036C67.7856 20.0249 67.5806 20.4897 67.5806 21.0981C67.5806 22.1919 68.1753 22.7388 69.3647 22.7388C69.98 22.7388 70.5542 22.5747 71.0874 22.2466C71.5249 21.9731 71.9692 21.5596 72.4204 21.0059ZM78.5522 9.20361C78.8667 9.20361 79.1401 9.31299 79.3726 9.53174C79.5981 9.771 79.7109 10.0513 79.7109 10.3726C79.7109 10.7007 79.5981 10.9775 79.3726 11.2031C79.1401 11.4355 78.8667 11.5518 78.5522 11.5518C78.2241 11.5518 77.9438 11.4355 77.7114 11.2031C77.479 10.9844 77.3628 10.7075 77.3628 10.3726C77.3628 10.0444 77.479 9.76416 77.7114 9.53174C77.9438 9.31299 78.2241 9.20361 78.5522 9.20361ZM77.6499 13.3359H79.4136V24H77.6499V13.3359ZM84.5713 19.8574C84.5713 20.418 84.5781 20.8896 84.5918 21.2725C84.6055 21.6484 84.6226 21.98 84.6431 22.2671C84.6636 22.5542 84.6943 22.814 84.7354 23.0464C84.7832 23.2788 84.8413 23.5352 84.9097 23.8154C84.6226 23.8906 84.3354 23.959 84.0483 24.0205C83.7612 24.0889 83.4741 24.147 83.187 24.1948C83.0503 23.7505 82.9512 23.3438 82.8896 22.9746C82.835 22.6055 82.8076 22.2432 82.8076 21.8877V9.25488H84.5713V19.8574ZM96.6094 13.3359V24.2358C96.6094 24.9126 96.4966 25.4971 96.271 25.9893C96.0522 26.4814 95.7446 26.8882 95.3481 27.2095C94.9585 27.5308 94.4937 27.7666 93.9536 27.917C93.4136 28.0742 92.8257 28.1528 92.1899 28.1528C91.6157 28.1528 91.0381 28.1016 90.457 27.999C89.876 27.9033 89.3223 27.7666 88.7959 27.5889C88.8848 27.3496 88.9771 27.1172 89.0728 26.8916C89.1685 26.666 89.2642 26.4404 89.3599 26.2148C89.5239 26.2695 89.7188 26.3276 89.9443 26.3892C90.1768 26.4507 90.4194 26.5054 90.6724 26.5532C90.9321 26.6079 91.1953 26.6489 91.4619 26.6763C91.7354 26.7104 91.9985 26.7275 92.2515 26.7275C92.6479 26.7275 93.0068 26.6729 93.3281 26.5635C93.6494 26.4609 93.9229 26.3037 94.1484 26.0918C94.374 25.8799 94.5449 25.6167 94.6611 25.3022C94.7842 24.9946 94.8457 24.6392 94.8457 24.2358V21.9185H94.6509C94.4731 22.2397 94.2681 22.5439 94.0356 22.8311C93.8032 23.1113 93.5469 23.3574 93.2666 23.5693C92.9863 23.7812 92.6821 23.9453 92.354 24.0615C92.0327 24.1846 91.6909 24.2461 91.3286 24.2461C90.8296 24.2461 90.3955 24.188 90.0264 24.0718C89.6572 23.9624 89.3394 23.7983 89.0728 23.5796C88.813 23.354 88.5977 23.0771 88.4268 22.749C88.2627 22.4141 88.1362 22.0278 88.0474 21.5903C87.9722 21.2007 87.9243 20.7837 87.9038 20.3394C87.8833 19.895 87.873 19.437 87.873 18.9653V13.3359H89.6367V19.4575C89.6367 19.9019 89.6572 20.3188 89.6982 20.7085C89.7393 21.0913 89.8281 21.4263 89.9648 21.7134C90.1084 21.9937 90.3169 22.2158 90.5903 22.3799C90.8638 22.5371 91.2363 22.6157 91.708 22.6157C92.0566 22.6157 92.3848 22.5337 92.6924 22.3696C93 22.1987 93.2837 21.9834 93.5435 21.7236C93.8032 21.4639 94.0391 21.1768 94.251 20.8623C94.4697 20.5479 94.668 20.2402 94.8457 19.9395V13.3359H96.6094Z" fill="white"/>
</g>
<defs>
<filter id="filter0_dd_117_32" x="0" y="0" width="149" height="44" filterUnits="userSpaceOnUse" color-interpolation-filters="sRGB">
<feFlood flood-opacity="0" result="BackgroundImageFix"/>
<feColorMatrix in="SourceAlpha" type="matrix" values="0 0 0 0 0 0 0 0 0 0 0 0 0 0 0 0 0 0 127 0" result="hardAlpha"/>
<feOffset dy="4"/>
<feGaussianBlur stdDeviation="2"/>
<feComposite in2="hardAlpha" operator="out"/>
<feColorMatrix type="matrix" values="0 0 0 0 0 0 0 0 0 0 0 0 0 0 0 0 0 0 0.25 0"/>
<feBlend mode="normal" in2="BackgroundImageFix" result="effect1_dropShadow_117_32"/>
<feColorMatrix in="SourceAlpha" type="matrix" values="0 0 0 0 0 0 0 0 0 0 0 0 0 0 0 0 0 0 127 0" result="hardAlpha"/>
<feOffset dy="4"/>
<feGaussianBlur stdDeviation="2"/>
<feComposite in2="hardAlpha" operator="out"/>
<feColorMatrix type="matrix" values="0 0 0 0 0 0 0 0 0 0 0 0 0 0 0 0 0 0 0.25 0"/>
<feBlend mode="normal" in2="effect1_dropShadow_117_32" result="effect2_dropShadow_117_32"/>
<feBlend mode="normal" in="SourceGraphic" in2="effect2_dropShadow_117_32" result="shape"/>
</filter>
<filter id="filter1_dd_117_32" x="48.8662" y="9.20361" width="51.7432" height="26.9492" filterUnits="userSpaceOnUse" color-interpolation-filters="sRGB">
<feFlood flood-opacity="0" result="BackgroundImageFix"/>
<feColorMatrix in="SourceAlpha" type="matrix" values="0 0 0 0 0 0 0 0 0 0 0 0 0 0 0 0 0 0 127 0" result="hardAlpha"/>
<feOffset dy="4"/>
<feGaussianBlur stdDeviation="2"/>
<feComposite in2="hardAlpha" operator="out"/>
<feColorMatrix type="matrix" values="0 0 0 0 0 0 0 0 0 0 0 0 0 0 0 0 0 0 0.25 0"/>
<feBlend mode="normal" in2="BackgroundImageFix" result="effect1_dropShadow_117_32"/>
<feColorMatrix in="SourceAlpha" type="matrix" values="0 0 0 0 0 0 0 0 0 0 0 0 0 0 0 0 0 0 127 0" result="hardAlpha"/>
<feOffset dy="4"/>
<feGaussianBlur stdDeviation="2"/>
<feComposite in2="hardAlpha" operator="out"/>
<feColorMatrix type="matrix" values="0 0 0 0 0 0 0 0 0 0 0 0 0 0 0 0 0 0 0.25 0"/>
<feBlend mode="normal" in2="effect1_dropShadow_117_32" result="effect2_dropShadow_117_32"/>
<feBlend mode="normal" in="SourceGraphic" in2="effect2_dropShadow_117_32" result="shape"/>
</filter>
</defs>
</svg>
