<svg width="149" height="44" viewBox="0 0 149 44" fill="none" xmlns="http://www.w3.org/2000/svg">
<g filter="url(#filter0_dd_45_346)">
<rect x="5" y="1" width="139" height="34" rx="17" fill="#043E5F" stroke="#043E5F" stroke-width="2"/>
<path d="M44.812 9.26514H47.6729L49.4468 24H47.5703L46.0322 11.5928H45.9297L41.8589 24H39.562L35.4912 11.5928H35.3887L33.8506 24H31.9741L33.748 9.26514H36.6089L40.7104 22.0312L44.812 9.26514ZM60.9619 23.8154L59.2598 24.1948C59.1299 23.7847 59.0376 23.3882 58.9829 23.0054C58.9556 22.8276 58.9214 22.4653 58.8804 21.9185H58.665C58.2891 22.6089 57.8242 23.1592 57.2705 23.5693C56.6621 24.0205 56.0195 24.2461 55.3428 24.2461C54.3242 24.2461 53.5483 24 53.0151 23.5078C52.5571 23.0908 52.2393 22.4517 52.0615 21.5903C51.9453 21.0024 51.8872 20.1274 51.8872 18.9653V13.3359H53.6509V19.4575C53.6509 20.4761 53.75 21.2041 53.9482 21.6416C54.2422 22.291 54.8335 22.6157 55.7222 22.6157C56.3511 22.6157 56.9663 22.3149 57.5679 21.7134C57.9712 21.3101 58.4019 20.7188 58.8599 19.9395V13.3359H60.6235V19.9189C60.6235 20.8281 60.6475 21.6177 60.6953 22.2876C60.7227 22.7046 60.8115 23.2139 60.9619 23.8154ZM65.1353 13.3359V12.1772C65.1353 11.6714 65.1831 11.2339 65.2788 10.8647C65.3745 10.4956 65.542 10.1538 65.7812 9.83936C66.0205 9.5249 66.3691 9.28906 66.8271 9.13184C67.292 8.96777 67.8628 8.88574 68.5396 8.88574C69.4214 8.88574 70.4707 9.03271 71.6875 9.32666L71.3696 10.7725C70.2212 10.5332 69.3462 10.4136 68.7446 10.4136C68.4507 10.4136 68.2012 10.4307 67.9961 10.4648C67.7979 10.4922 67.6304 10.5537 67.4937 10.6494C67.3569 10.7383 67.251 10.834 67.1758 10.9365C67.1006 11.0391 67.0425 11.1929 67.0015 11.3979C66.9673 11.603 66.9434 11.7979 66.9297 11.9824C66.9229 12.167 66.9194 12.4233 66.9194 12.7515V13.3359H70.3442V14.8228H66.9194V22.5132H70.3442V24H63.3511V22.5132H65.1353V14.8228H63.3511V13.3359H65.1353ZM74.3535 10.8955H76.1172V13.3359H79.7061V14.8228H76.1172V20.9443C76.1172 21.3545 76.1274 21.6689 76.1479 21.8877C76.1753 22.0996 76.2368 22.2671 76.3325 22.3901C76.5103 22.6362 76.8691 22.7593 77.4092 22.7593C77.71 22.7593 78.0005 22.7285 78.2808 22.667C78.5679 22.6055 78.8311 22.5371 79.0703 22.4619C79.2617 22.8789 79.436 23.3369 79.5933 23.8359C78.7866 24.1094 77.9731 24.2461 77.1528 24.2461C76.5581 24.2461 76.0796 24.1777 75.7173 24.041C75.3618 23.9111 75.0815 23.6958 74.8765 23.395C74.6646 23.0806 74.5244 22.7046 74.4561 22.2671C74.3877 21.8296 74.3535 21.2246 74.3535 20.4521V14.8228H72.8154V13.3359H74.3535V10.8955ZM83.2847 9.20361C83.5991 9.20361 83.8726 9.31299 84.105 9.53174C84.3306 9.771 84.4434 10.0513 84.4434 10.3726C84.4434 10.7007 84.3306 10.9775 84.105 11.2031C83.8726 11.4355 83.5991 11.5518 83.2847 11.5518C82.9565 11.5518 82.6763 11.4355 82.4438 11.2031C82.2114 10.9844 82.0952 10.7075 82.0952 10.3726C82.0952 10.0444 82.2114 9.76416 82.4438 9.53174C82.6763 9.31299 82.9565 9.20361 83.2847 9.20361ZM82.3823 13.3359H84.146V24H82.3823V13.3359ZM87.9092 9.23438H89.6729V15.3765L89.8882 15.397C90.2095 14.686 90.5889 14.146 91.0264 13.7769C91.5322 13.3257 92.144 13.1001 92.8618 13.1001C94.1128 13.1001 95.0698 13.6265 95.7329 14.6792C96.3276 15.6567 96.625 16.918 96.625 18.4629C96.625 20.3428 96.1772 21.792 95.2817 22.8105C94.4272 23.7676 93.1626 24.2461 91.4878 24.2461C90.5718 24.2461 89.3789 24.1367 87.9092 23.918V9.23438ZM89.5703 17.7041V22.5439C90.1992 22.6738 90.8384 22.7388 91.4878 22.7388C92.5952 22.7388 93.4258 22.4141 93.9795 21.7646C94.5537 21.0947 94.8408 20.1001 94.8408 18.7808C94.8408 17.5845 94.7109 16.6616 94.4512 16.0122C94.1094 15.1577 93.5283 14.7305 92.708 14.7305C91.9902 14.7305 91.3579 15.0312 90.811 15.6328C90.4282 16.043 90.0146 16.7334 89.5703 17.7041ZM103.136 13.1001C103.471 13.1001 103.82 13.1274 104.182 13.1821C104.544 13.23 104.9 13.3257 105.249 13.4692C105.597 13.6196 105.925 13.8247 106.233 14.0845C106.547 14.3374 106.824 14.6689 107.063 15.0791C107.303 15.4961 107.491 15.9985 107.627 16.5864C107.764 17.1675 107.833 17.8613 107.833 18.668C107.833 19.4746 107.764 20.1719 107.627 20.7598C107.491 21.3408 107.303 21.8364 107.063 22.2466C106.824 22.6636 106.547 23.002 106.233 23.2617C105.925 23.5215 105.597 23.7231 105.249 23.8667C104.9 24.0171 104.544 24.1162 104.182 24.1641C103.82 24.2188 103.471 24.2461 103.136 24.2461C102.808 24.2461 102.463 24.2188 102.101 24.1641C101.745 24.1162 101.393 24.0171 101.044 23.8667C100.696 23.7231 100.368 23.5215 100.06 23.2617C99.7524 23.002 99.479 22.6636 99.2397 22.2466C99.0005 21.8364 98.8125 21.3408 98.6758 20.7598C98.5391 20.1719 98.4707 19.4746 98.4707 18.668C98.4707 17.8613 98.5391 17.1675 98.6758 16.5864C98.8125 15.9985 99.0005 15.4961 99.2397 15.0791C99.479 14.6689 99.7524 14.3374 100.06 14.0845C100.368 13.8247 100.696 13.6196 101.044 13.4692C101.393 13.3257 101.745 13.23 102.101 13.1821C102.456 13.1274 102.801 13.1001 103.136 13.1001ZM103.136 14.5459C102.747 14.5459 102.377 14.6074 102.029 14.7305C101.687 14.8535 101.386 15.0688 101.126 15.3765C100.86 15.6909 100.648 16.1113 100.491 16.6377C100.333 17.1641 100.255 17.8408 100.255 18.668C100.255 19.4883 100.333 20.165 100.491 20.6982C100.648 21.2246 100.86 21.6416 101.126 21.9492C101.386 22.2637 101.687 22.4824 102.029 22.6055C102.377 22.7217 102.747 22.7798 103.136 22.7798C103.533 22.7798 103.905 22.7217 104.254 22.6055C104.609 22.4824 104.92 22.2637 105.187 21.9492C105.454 21.6416 105.662 21.2246 105.812 20.6982C105.97 20.165 106.048 19.4883 106.048 18.668C106.048 17.8408 105.97 17.1641 105.812 16.6377C105.662 16.1113 105.454 15.6909 105.187 15.3765C104.92 15.0688 104.609 14.8535 104.254 14.7305C103.905 14.6074 103.533 14.5459 103.136 14.5459ZM111.534 10.8955H113.298V13.3359H116.887V14.8228H113.298V20.9443C113.298 21.3545 113.308 21.6689 113.329 21.8877C113.356 22.0996 113.417 22.2671 113.513 22.3901C113.691 22.6362 114.05 22.7593 114.59 22.7593C114.891 22.7593 115.181 22.7285 115.461 22.667C115.749 22.6055 116.012 22.5371 116.251 22.4619C116.442 22.8789 116.617 23.3369 116.774 23.8359C115.967 24.1094 115.154 24.2461 114.333 24.2461C113.739 24.2461 113.26 24.1777 112.898 24.041C112.542 23.9111 112.262 23.6958 112.057 23.395C111.845 23.0806 111.705 22.7046 111.637 22.2671C111.568 21.8296 111.534 21.2246 111.534 20.4521V14.8228H109.996V13.3359H111.534V10.8955Z" fill="white"/>
</g>
<defs>
<filter id="filter0_dd_45_346" x="0" y="0" width="149" height="44" filterUnits="userSpaceOnUse" color-interpolation-filters="sRGB">
<feFlood flood-opacity="0" result="BackgroundImageFix"/>
<feColorMatrix in="SourceAlpha" type="matrix" values="0 0 0 0 0 0 0 0 0 0 0 0 0 0 0 0 0 0 127 0" result="hardAlpha"/>
<feOffset dy="4"/>
<feGaussianBlur stdDeviation="2"/>
<feComposite in2="hardAlpha" operator="out"/>
<feColorMatrix type="matrix" values="0 0 0 0 0 0 0 0 0 0 0 0 0 0 0 0 0 0 0.25 0"/>
<feBlend mode="normal" in2="BackgroundImageFix" result="effect1_dropShadow_45_346"/>
<feColorMatrix in="SourceAlpha" type="matrix" values="0 0 0 0 0 0 0 0 0 0 0 0 0 0 0 0 0 0 127 0" result="hardAlpha"/>
<feOffset dy="4"/>
<feGaussianBlur stdDeviation="2"/>
<feComposite in2="hardAlpha" operator="out"/>
<feColorMatrix type="matrix" values="0 0 0 0 0 0 0 0 0 0 0 0 0 0 0 0 0 0 0.25 0"/>
<feBlend mode="normal" in2="effect1_dropShadow_45_346" result="effect2_dropShadow_45_346"/>
<feBlend mode="normal" in="SourceGraphic" in2="effect2_dropShadow_45_346" result="shape"/>
</filter>
</defs>
</svg>
