<svg width="149" height="44" viewBox="0 0 149 44" fill="none" xmlns="http://www.w3.org/2000/svg">
<g filter="url(#filter0_dd_117_32)">
<rect x="4" width="141" height="36" rx="18" fill="#043E5F"/>
<rect x="5" y="1" width="139" height="34" rx="17" stroke="#043E5F" stroke-width="2"/>
</g>
<g filter="url(#filter1_dd_117_32)">
<path d="M40.7944 21.8569C41.0747 21.9663 41.3687 22.0688 41.6763 22.1646C41.9907 22.2603 42.3086 22.3423 42.6299 22.4106C42.958 22.479 43.2861 22.5337 43.6143 22.5747C43.9424 22.6157 44.2637 22.6362 44.5781 22.6362C45.1182 22.6362 45.6069 22.5747 46.0444 22.4517C46.4819 22.3286 46.8579 22.1509 47.1724 21.9185C47.4868 21.6792 47.7295 21.3887 47.9004 21.0469C48.0713 20.6982 48.1567 20.3018 48.1567 19.8574C48.1567 19.4131 48.0747 19.0508 47.9106 18.7705C47.7534 18.4834 47.521 18.2441 47.2134 18.0527C46.9126 17.8613 46.54 17.7007 46.0957 17.5708C45.6514 17.4341 45.1455 17.2939 44.5781 17.1504C43.9492 16.9863 43.3682 16.8052 42.835 16.6069C42.3086 16.4019 41.8506 16.1387 41.4609 15.8174C41.0781 15.4961 40.7773 15.0996 40.5586 14.6279C40.3398 14.1494 40.2305 13.5547 40.2305 12.8438C40.2305 12.2627 40.3467 11.7363 40.5791 11.2646C40.8115 10.793 41.1396 10.3931 41.5635 10.0649C41.9873 9.72998 42.4966 9.47363 43.0913 9.2959C43.686 9.11816 44.3423 9.0293 45.0601 9.0293C45.4087 9.0293 45.7642 9.05322 46.1265 9.10107C46.4888 9.14209 46.8477 9.2002 47.2031 9.27539C47.5586 9.35059 47.9072 9.44287 48.249 9.55225C48.5908 9.66162 48.9121 9.78125 49.2129 9.91113L48.5977 11.4287C48.3516 11.333 48.0986 11.2373 47.8389 11.1416C47.5859 11.0459 47.3159 10.9604 47.0288 10.8853C46.7417 10.8101 46.4341 10.752 46.106 10.7109C45.7847 10.6631 45.436 10.6392 45.0601 10.6392C44.6841 10.6392 44.3252 10.6802 43.9834 10.7622C43.6416 10.8442 43.3374 10.9741 43.0708 11.1519C42.811 11.3228 42.6025 11.5483 42.4453 11.8286C42.2881 12.1089 42.2095 12.4473 42.2095 12.8438C42.2095 13.2881 42.2881 13.6538 42.4453 13.9409C42.6094 14.2212 42.8418 14.457 43.1426 14.6484C43.4502 14.8398 43.8262 15.0039 44.2705 15.1406C44.7148 15.2705 45.2207 15.4072 45.7881 15.5508C46.417 15.7148 46.9946 15.8994 47.521 16.1045C48.0542 16.3027 48.5122 16.5625 48.895 16.8838C49.2847 17.2051 49.5889 17.605 49.8076 18.0835C50.0264 18.562 50.1357 19.1533 50.1357 19.8574C50.1357 20.6025 49.9956 21.252 49.7153 21.8057C49.4419 22.3525 49.0557 22.8071 48.5566 23.1694C48.0645 23.5317 47.4766 23.8018 46.793 23.9795C46.1162 24.1572 45.3779 24.2461 44.5781 24.2461C43.0674 24.2461 41.6011 23.9556 40.1792 23.3745L40.7944 21.8569ZM61.8047 23.8154L60.1025 24.1948C59.9727 23.7847 59.8804 23.3882 59.8257 23.0054C59.7983 22.8276 59.7642 22.4653 59.7231 21.9185H59.5078C59.1318 22.6089 58.667 23.1592 58.1133 23.5693C57.5049 24.0205 56.8623 24.2461 56.1855 24.2461C55.167 24.2461 54.3911 24 53.8579 23.5078C53.3999 23.0908 53.082 22.4517 52.9043 21.5903C52.7881 21.0024 52.73 20.1274 52.73 18.9653V13.3359H54.4937V19.4575C54.4937 20.4761 54.5928 21.2041 54.791 21.6416C55.085 22.291 55.6763 22.6157 56.5649 22.6157C57.1938 22.6157 57.8091 22.3149 58.4106 21.7134C58.814 21.3101 59.2446 20.7188 59.7026 19.9395V13.3359H61.4663V19.9189C61.4663 20.8281 61.4902 21.6177 61.5381 22.2876C61.5654 22.7046 61.6543 23.2139 61.8047 23.8154ZM64.522 13.5205L66.2241 13.1411C66.354 13.5513 66.4463 13.9478 66.501 14.3306C66.5283 14.5151 66.5625 14.8809 66.6035 15.4277H66.8188C67.1948 14.7373 67.6597 14.187 68.2134 13.7769C68.8218 13.3257 69.4644 13.1001 70.1411 13.1001C71.1597 13.1001 71.9355 13.3462 72.4688 13.8384C72.9268 14.2554 73.2446 14.8945 73.4224 15.7559C73.5386 16.3438 73.5967 17.2188 73.5967 18.3809V24H71.833V17.8887C71.833 16.8701 71.7339 16.1421 71.5356 15.7046C71.2417 15.0552 70.6504 14.7305 69.7617 14.7305C69.1328 14.7305 68.5176 15.0312 67.916 15.6328C67.5127 16.0361 67.082 16.6274 66.624 17.4067V24H64.8604V17.4375C64.8604 16.5146 64.8364 15.7183 64.7886 15.0483C64.7612 14.6313 64.6724 14.1221 64.522 13.5205ZM76.2935 13.5205L77.9956 13.1411C78.1255 13.5513 78.2178 13.9478 78.2725 14.3306C78.2998 14.5151 78.334 14.8809 78.375 15.4277H78.5903C78.9663 14.7373 79.4312 14.187 79.9849 13.7769C80.5933 13.3257 81.2358 13.1001 81.9126 13.1001C82.9312 13.1001 83.707 13.3462 84.2402 13.8384C84.6982 14.2554 85.0161 14.8945 85.1938 15.7559C85.3101 16.3438 85.3682 17.2188 85.3682 18.3809V24H83.6045V17.8887C83.6045 16.8701 83.5054 16.1421 83.3071 15.7046C83.0132 15.0552 82.4219 14.7305 81.5332 14.7305C80.9043 14.7305 80.2891 15.0312 79.6875 15.6328C79.2842 16.0361 78.8535 16.6274 78.3955 17.4067V24H76.6318V17.4375C76.6318 16.5146 76.6079 15.7183 76.5601 15.0483C76.5327 14.6313 76.4438 14.1221 76.2935 13.5205ZM89.0288 15.2227L88.5776 13.7871C89.7261 13.3291 90.9292 13.1001 92.187 13.1001C93.2876 13.1001 94.1284 13.2847 94.7095 13.6538C95.3726 14.0776 95.7041 14.7988 95.7041 15.8174V20.0112C95.7041 20.5718 95.7109 21.146 95.7246 21.7339C95.7314 22.0825 95.7656 22.4448 95.8271 22.8208C95.8818 23.1763 95.9536 23.5146 96.0425 23.8359L94.3608 24.2051C94.2036 23.7471 94.1045 23.2344 94.0635 22.667L93.8584 22.6465C93.0107 23.7129 91.9307 24.2461 90.6182 24.2461C89.6611 24.2461 88.8921 23.9829 88.311 23.4565C87.73 22.9233 87.4395 22.1748 87.4395 21.2109C87.4395 20.4932 87.5967 19.9053 87.9111 19.4473C88.2324 18.9893 88.6836 18.603 89.2646 18.2886C90.1807 17.7896 91.4624 17.54 93.1099 17.54C93.3286 17.54 93.6226 17.5469 93.9917 17.5605V16.002C93.9917 15.5098 93.8413 15.1543 93.5405 14.9355C93.2397 14.7168 92.7681 14.6074 92.1255 14.6074C91.189 14.6074 90.1567 14.8125 89.0288 15.2227ZM93.9917 21.0059V18.8525C93.8071 18.8389 93.5371 18.832 93.1816 18.832C92.5801 18.832 92.0264 18.8833 91.5205 18.9858C90.7686 19.1362 90.1841 19.3755 89.7671 19.7036C89.3569 20.0249 89.1519 20.4897 89.1519 21.0981C89.1519 22.1919 89.7466 22.7388 90.936 22.7388C91.5513 22.7388 92.1255 22.5747 92.6587 22.2466C93.0962 21.9731 93.5405 21.5596 93.9917 21.0059ZM99.1597 9.23438H100.923V15.6636C101.381 14.8843 101.901 14.2759 102.482 13.8384C103.145 13.3462 103.805 13.1001 104.461 13.1001C105.445 13.1001 106.211 13.3462 106.758 13.8384C107.229 14.2622 107.554 14.9014 107.732 15.7559C107.869 16.4053 107.937 17.2803 107.937 18.3809V24H106.173V17.8887C106.173 17.4717 106.163 17.1299 106.143 16.8633C106.122 16.5898 106.071 16.3062 105.989 16.0122C105.914 15.7114 105.801 15.479 105.65 15.3149C105.507 15.144 105.302 15.0039 105.035 14.8945C104.775 14.7852 104.458 14.7305 104.082 14.7305C103.432 14.7305 102.807 15.0381 102.205 15.6533C101.822 16.043 101.395 16.6377 100.923 17.4375V24H99.1597V9.23438Z" fill="white"/>
</g>
<defs>
<filter id="filter0_dd_117_32" x="0" y="0" width="149" height="44" filterUnits="userSpaceOnUse" color-interpolation-filters="sRGB">
<feFlood flood-opacity="0" result="BackgroundImageFix"/>
<feColorMatrix in="SourceAlpha" type="matrix" values="0 0 0 0 0 0 0 0 0 0 0 0 0 0 0 0 0 0 127 0" result="hardAlpha"/>
<feOffset dy="4"/>
<feGaussianBlur stdDeviation="2"/>
<feComposite in2="hardAlpha" operator="out"/>
<feColorMatrix type="matrix" values="0 0 0 0 0 0 0 0 0 0 0 0 0 0 0 0 0 0 0.25 0"/>
<feBlend mode="normal" in2="BackgroundImageFix" result="effect1_dropShadow_117_32"/>
<feColorMatrix in="SourceAlpha" type="matrix" values="0 0 0 0 0 0 0 0 0 0 0 0 0 0 0 0 0 0 127 0" result="hardAlpha"/>
<feOffset dy="4"/>
<feGaussianBlur stdDeviation="2"/>
<feComposite in2="hardAlpha" operator="out"/>
<feColorMatrix type="matrix" values="0 0 0 0 0 0 0 0 0 0 0 0 0 0 0 0 0 0 0.25 0"/>
<feBlend mode="normal" in2="effect1_dropShadow_117_32" result="effect2_dropShadow_117_32"/>
<feBlend mode="normal" in="SourceGraphic" in2="effect2_dropShadow_117_32" result="shape"/>
</filter>
<filter id="filter1_dd_117_32" x="36.1792" y="9.0293" width="75.7578" height="23.2168" filterUnits="userSpaceOnUse" color-interpolation-filters="sRGB">
<feFlood flood-opacity="0" result="BackgroundImageFix"/>
<feColorMatrix in="SourceAlpha" type="matrix" values="0 0 0 0 0 0 0 0 0 0 0 0 0 0 0 0 0 0 127 0" result="hardAlpha"/>
<feOffset dy="4"/>
<feGaussianBlur stdDeviation="2"/>
<feComposite in2="hardAlpha" operator="out"/>
<feColorMatrix type="matrix" values="0 0 0 0 0 0 0 0 0 0 0 0 0 0 0 0 0 0 0.25 0"/>
<feBlend mode="normal" in2="BackgroundImageFix" result="effect1_dropShadow_117_32"/>
<feColorMatrix in="SourceAlpha" type="matrix" values="0 0 0 0 0 0 0 0 0 0 0 0 0 0 0 0 0 0 127 0" result="hardAlpha"/>
<feOffset dy="4"/>
<feGaussianBlur stdDeviation="2"/>
<feComposite in2="hardAlpha" operator="out"/>
<feColorMatrix type="matrix" values="0 0 0 0 0 0 0 0 0 0 0 0 0 0 0 0 0 0 0.25 0"/>
<feBlend mode="normal" in2="effect1_dropShadow_117_32" result="effect2_dropShadow_117_32"/>
<feBlend mode="normal" in="SourceGraphic" in2="effect2_dropShadow_117_32" result="shape"/>
</filter>
</defs>
</svg>
