<svg width="231" height="66" viewBox="0 0 231 66" fill="none" xmlns="http://www.w3.org/2000/svg">
<g filter="url(#filter0_d_134_36)">
<path d="M134.5 3C136.709 3 138.5 4.79086 138.5 7V24.4551C138.5 26.6642 136.709 28.4551 134.5 28.4551H49C46.7909 28.4551 45 30.246 45 32.4551V54C45 56.2091 43.2091 58 41 58H8.5C6.29086 58 4.5 56.2091 4.5 54V7C4.5 4.79086 6.29086 3 8.5 3H134.5Z" fill="#043E5F"/>
</g>
<g filter="url(#filter1_d_134_36)">
<path d="M17.71 7.078H19.6377V21.8231H17.71V14.5121H9.79395V21.8231H7.86621V7.078H9.79395V12.933H17.71V7.078ZM23.8521 13.0458L23.4009 11.6102C24.5493 11.1522 25.7524 10.9232 27.0103 10.9232C28.1108 10.9232 28.9517 11.1078 29.5327 11.4769C30.1958 11.9008 30.5273 12.6219 30.5273 13.6405V17.8344C30.5273 18.3949 30.5342 18.9691 30.5479 19.557C30.5547 19.9056 30.5889 20.2679 30.6504 20.6439C30.7051 20.9994 30.7769 21.3378 30.8657 21.6591L29.1841 22.0282C29.0269 21.5702 28.9277 21.0575 28.8867 20.4901L28.6816 20.4696C27.834 21.536 26.7539 22.0692 25.4414 22.0692C24.4844 22.0692 23.7153 21.806 23.1343 21.2797C22.5532 20.7465 22.2627 19.9979 22.2627 19.0341C22.2627 18.3163 22.4199 17.7284 22.7344 17.2704C23.0557 16.8124 23.5068 16.4261 24.0879 16.1117C25.0039 15.6127 26.2856 15.3632 27.9331 15.3632C28.1519 15.3632 28.4458 15.37 28.8149 15.3837V13.8251C28.8149 13.3329 28.6646 12.9774 28.3638 12.7587C28.063 12.5399 27.5913 12.4305 26.9487 12.4305C26.0122 12.4305 24.98 12.6356 23.8521 13.0458ZM28.8149 18.829V16.6757C28.6304 16.662 28.3604 16.6552 28.0049 16.6552C27.4033 16.6552 26.8496 16.7064 26.3438 16.809C25.5918 16.9594 25.0073 17.1986 24.5903 17.5267C24.1802 17.848 23.9751 18.3129 23.9751 18.9213C23.9751 20.015 24.5698 20.5619 25.7593 20.5619C26.3745 20.5619 26.9487 20.3978 27.4819 20.0697C27.9194 19.7963 28.3638 19.3827 28.8149 18.829ZM40.1455 7.0575H41.9092V17.7933C41.9092 18.9965 41.9263 19.786 41.9604 20.162C41.9946 20.6268 42.0732 21.1259 42.1963 21.6591L40.4941 22.0385C40.3779 21.6556 40.2925 21.2694 40.2378 20.8798C40.1694 20.4012 40.1318 20.0321 40.125 19.7723H39.9712C39.6157 20.5106 39.2227 21.0541 38.792 21.4027C38.2725 21.847 37.6299 22.0692 36.8643 22.0692C36.1943 22.0692 35.6167 21.9257 35.1313 21.6385C34.646 21.3446 34.2666 20.9379 33.9932 20.4183C33.7266 19.8988 33.5283 19.328 33.3984 18.7059C33.2754 18.0839 33.2139 17.3969 33.2139 16.6449C33.2139 15.7972 33.2993 15.035 33.4702 14.3583C33.6479 13.6815 33.918 13.0834 34.2803 12.5638C34.6426 12.0375 35.1279 11.6342 35.7363 11.3539C36.3447 11.0668 37.0591 10.9232 37.8794 10.9232C38.522 10.9232 39.2773 11.0087 40.1455 11.1796V7.0575ZM40.1455 17.5062V12.7382C39.373 12.5331 38.6621 12.4305 38.0127 12.4305C37.459 12.4305 36.9805 12.5331 36.5771 12.7382C36.1807 12.9364 35.8696 13.2201 35.644 13.5892C35.4185 13.9515 35.2544 14.3583 35.1519 14.8094C35.0493 15.2606 34.998 15.7665 34.998 16.327C34.998 16.7098 35.0049 17.0482 35.0186 17.3422C35.0391 17.6293 35.0698 17.9437 35.1108 18.2855C35.1587 18.6205 35.2305 18.9076 35.3262 19.1469C35.4219 19.3861 35.5415 19.6083 35.6851 19.8134C35.8286 20.0184 36.0132 20.1757 36.2388 20.285C36.4712 20.3876 36.7378 20.4388 37.0386 20.4388C37.7632 20.4388 38.3921 20.1483 38.9253 19.5673C39.3081 19.1434 39.7148 18.4564 40.1455 17.5062ZM46.4722 7.02673C46.7866 7.02673 47.0601 7.13611 47.2925 7.35486C47.5181 7.59412 47.6309 7.87439 47.6309 8.19568C47.6309 8.5238 47.5181 8.80066 47.2925 9.02625C47.0601 9.25867 46.7866 9.37488 46.4722 9.37488C46.144 9.37488 45.8638 9.25867 45.6313 9.02625C45.3989 8.8075 45.2827 8.53064 45.2827 8.19568C45.2827 7.86755 45.3989 7.58728 45.6313 7.35486C45.8638 7.13611 46.144 7.02673 46.4722 7.02673ZM45.5698 11.1591H47.3335V21.8231H45.5698V11.1591ZM51.958 8.71863H53.7217V11.1591H57.3105V12.6459H53.7217V18.7675C53.7217 19.1776 53.7319 19.4921 53.7524 19.7108C53.7798 19.9227 53.8413 20.0902 53.937 20.2133C54.1147 20.4594 54.4736 20.5824 55.0137 20.5824C55.3145 20.5824 55.605 20.5516 55.8853 20.4901C56.1724 20.4286 56.4355 20.3602 56.6748 20.285C56.8662 20.702 57.0405 21.16 57.1978 21.6591C56.3911 21.9325 55.5776 22.0692 54.7573 22.0692C54.1626 22.0692 53.6841 22.0009 53.3218 21.8641C52.9663 21.7343 52.686 21.5189 52.481 21.2181C52.269 20.9037 52.1289 20.5277 52.0605 20.0902C51.9922 19.6527 51.958 19.0477 51.958 18.2753V12.6459H50.4199V11.1591H51.958V8.71863ZM59.9253 7.0575H61.689V13.4867C62.147 12.7074 62.6665 12.099 63.2476 11.6615C63.9106 11.1693 64.5703 10.9232 65.2266 10.9232C66.2109 10.9232 66.9766 11.1693 67.5234 11.6615C67.9951 12.0853 68.3198 12.7245 68.4976 13.579C68.6343 14.2284 68.7026 15.1034 68.7026 16.204V21.8231H66.939V15.7118C66.939 15.2948 66.9287 14.953 66.9082 14.6864C66.8877 14.413 66.8364 14.1293 66.7544 13.8353C66.6792 13.5345 66.5664 13.3021 66.416 13.1381C66.2725 12.9672 66.0674 12.827 65.8008 12.7177C65.541 12.6083 65.2231 12.5536 64.8472 12.5536C64.1978 12.5536 63.5723 12.8612 62.9707 13.4764C62.5879 13.8661 62.1606 14.4608 61.689 15.2606V21.8231H59.9253V7.0575ZM81.6636 10.9232C81.9985 10.9232 82.3472 10.9506 82.7095 11.0052C83.0718 11.0531 83.4272 11.1488 83.7759 11.2924C84.1245 11.4427 84.4526 11.6478 84.7603 11.9076C85.0747 12.1605 85.3516 12.4921 85.5908 12.9022C85.8301 13.3192 86.0181 13.8217 86.1548 14.4095C86.2915 14.9906 86.3599 15.6844 86.3599 16.4911C86.3599 17.2977 86.2915 17.995 86.1548 18.5829C86.0181 19.1639 85.8301 19.6595 85.5908 20.0697C85.3516 20.4867 85.0747 20.8251 84.7603 21.0848C84.4526 21.3446 84.1245 21.5463 83.7759 21.6898C83.4272 21.8402 83.0718 21.9393 82.7095 21.9872C82.3472 22.0419 81.9985 22.0692 81.6636 22.0692C81.3354 22.0692 80.9902 22.0419 80.6279 21.9872C80.2725 21.9393 79.9204 21.8402 79.5718 21.6898C79.2231 21.5463 78.895 21.3446 78.5874 21.0848C78.2798 20.8251 78.0063 20.4867 77.7671 20.0697C77.5278 19.6595 77.3398 19.1639 77.2031 18.5829C77.0664 17.995 76.998 17.2977 76.998 16.4911C76.998 15.6844 77.0664 14.9906 77.2031 14.4095C77.3398 13.8217 77.5278 13.3192 77.7671 12.9022C78.0063 12.4921 78.2798 12.1605 78.5874 11.9076C78.895 11.6478 79.2231 11.4427 79.5718 11.2924C79.9204 11.1488 80.2725 11.0531 80.6279 11.0052C80.9834 10.9506 81.3286 10.9232 81.6636 10.9232ZM81.6636 12.369C81.2739 12.369 80.9048 12.4305 80.5562 12.5536C80.2144 12.6766 79.9136 12.892 79.6538 13.1996C79.3872 13.514 79.1753 13.9344 79.0181 14.4608C78.8608 14.9872 78.7822 15.6639 78.7822 16.4911C78.7822 17.3114 78.8608 17.9882 79.0181 18.5214C79.1753 19.0477 79.3872 19.4647 79.6538 19.7723C79.9136 20.0868 80.2144 20.3055 80.5562 20.4286C80.9048 20.5448 81.2739 20.6029 81.6636 20.6029C82.0601 20.6029 82.4326 20.5448 82.7812 20.4286C83.1367 20.3055 83.4478 20.0868 83.7144 19.7723C83.981 19.4647 84.1895 19.0477 84.3398 18.5214C84.4971 17.9882 84.5757 17.3114 84.5757 16.4911C84.5757 15.6639 84.4971 14.9872 84.3398 14.4608C84.1895 13.9344 83.981 13.514 83.7144 13.1996C83.4478 12.892 83.1367 12.6766 82.7812 12.5536C82.4326 12.4305 82.0601 12.369 81.6636 12.369ZM90.2358 11.1591V10.0004C90.2358 9.49451 90.2837 9.05701 90.3794 8.68787C90.4751 8.31873 90.6426 7.97693 90.8818 7.66248C91.1211 7.34802 91.4697 7.11218 91.9277 6.95496C92.3926 6.79089 92.9634 6.70886 93.6401 6.70886C94.522 6.70886 95.5713 6.85583 96.7881 7.14978L96.4702 8.59558C95.3218 8.35632 94.4468 8.23669 93.8452 8.23669C93.5513 8.23669 93.3018 8.25378 93.0967 8.28796C92.8984 8.31531 92.731 8.37683 92.5942 8.47253C92.4575 8.5614 92.3516 8.6571 92.2764 8.75964C92.2012 8.86218 92.1431 9.01599 92.1021 9.22107C92.0679 9.42615 92.0439 9.62097 92.0303 9.80554C92.0234 9.99011 92.02 10.2465 92.02 10.5746V11.1591H95.4448V12.6459H92.02V20.3363H95.4448V21.8231H88.4517V20.3363H90.2358V12.6459H88.4517V11.1591H90.2358ZM105.401 8.71863H107.165V11.1591H110.754V12.6459H107.165V18.7675C107.165 19.1776 107.175 19.4921 107.196 19.7108C107.223 19.9227 107.285 20.0902 107.38 20.2133C107.558 20.4594 107.917 20.5824 108.457 20.5824C108.758 20.5824 109.048 20.5516 109.329 20.4901C109.616 20.4286 109.879 20.3602 110.118 20.285C110.31 20.702 110.484 21.16 110.641 21.6591C109.834 21.9325 109.021 22.0692 108.201 22.0692C107.606 22.0692 107.127 22.0009 106.765 21.8641C106.41 21.7343 106.129 21.5189 105.924 21.2181C105.712 20.9037 105.572 20.5277 105.504 20.0902C105.436 19.6527 105.401 19.0477 105.401 18.2753V12.6459H103.863V11.1591H105.401V8.71863ZM113.369 7.0575H115.132V13.4867C115.59 12.7074 116.11 12.099 116.691 11.6615C117.354 11.1693 118.014 10.9232 118.67 10.9232C119.654 10.9232 120.42 11.1693 120.967 11.6615C121.438 12.0853 121.763 12.7245 121.941 13.579C122.078 14.2284 122.146 15.1034 122.146 16.204V21.8231H120.382V15.7118C120.382 15.2948 120.372 14.953 120.352 14.6864C120.331 14.413 120.28 14.1293 120.198 13.8353C120.123 13.5345 120.01 13.3021 119.859 13.1381C119.716 12.9672 119.511 12.827 119.244 12.7177C118.984 12.6083 118.667 12.5536 118.291 12.5536C117.641 12.5536 117.016 12.8612 116.414 13.4764C116.031 13.8661 115.604 14.4608 115.132 15.2606V21.8231H113.369V7.0575ZM133.169 21.2284C132.41 21.5292 131.696 21.7445 131.026 21.8744C130.363 22.0043 129.768 22.0692 129.242 22.0692C128.435 22.0692 127.731 21.9427 127.129 21.6898C126.528 21.4301 126.025 21.0677 125.622 20.6029C125.226 20.1381 124.925 19.5844 124.72 18.9418C124.521 18.2924 124.422 17.578 124.422 16.7987C124.422 16.3202 124.457 15.8417 124.525 15.3632C124.593 14.8846 124.703 14.4301 124.853 13.9994C125.003 13.5619 125.198 13.1552 125.438 12.7792C125.684 12.4032 125.981 12.0785 126.33 11.8051C126.678 11.5316 127.085 11.3163 127.55 11.1591C128.015 11.0018 128.544 10.9232 129.139 10.9232C130.664 10.9232 131.812 11.4017 132.584 12.3588C133.357 13.309 133.743 14.6727 133.743 16.4501V17.014H126.237C126.237 17.5883 126.299 18.0975 126.422 18.5419C126.545 18.9794 126.733 19.3519 126.986 19.6595C127.246 19.9603 127.57 20.1893 127.96 20.3466C128.356 20.5038 128.825 20.5824 129.365 20.5824C129.666 20.5824 129.963 20.5619 130.257 20.5209C130.558 20.473 130.848 20.4149 131.128 20.3466C131.409 20.2714 131.675 20.1893 131.928 20.1005C132.188 20.0116 132.431 19.9261 132.656 19.8441L133.169 21.2284ZM131.969 15.599C131.915 14.4916 131.648 13.6849 131.169 13.1791C130.698 12.6664 130.021 12.41 129.139 12.41C128.257 12.41 127.584 12.6664 127.119 13.1791C126.661 13.6849 126.384 14.4916 126.289 15.599H131.969ZM7.86621 50.8231V36.078H10.9834C11.8242 36.078 12.6035 36.1224 13.3213 36.2113C14.0459 36.2933 14.709 36.4403 15.3105 36.6522C15.9121 36.8641 16.4385 37.1478 16.8896 37.5033C17.3477 37.8519 17.7407 38.2997 18.0688 38.8466C18.3901 39.3934 18.6328 40.0428 18.7969 40.7948C18.9609 41.5468 19.043 42.432 19.043 43.4506C19.043 44.4691 18.9609 45.3544 18.7969 46.1063C18.6328 46.8583 18.3901 47.5077 18.0688 48.0546C17.7407 48.6014 17.3477 49.0526 16.8896 49.4081C16.4385 49.7567 15.9121 50.037 15.3105 50.2489C14.709 50.4608 14.0459 50.6112 13.3213 50.7001C12.6035 50.7821 11.8242 50.8231 10.9834 50.8231H7.86621ZM11.3013 49.244C12.3472 49.244 13.2324 49.1415 13.957 48.9364C14.6885 48.7245 15.2866 48.3827 15.7515 47.911C16.2095 47.4393 16.541 46.8412 16.7461 46.1166C16.958 45.3851 17.064 44.4965 17.064 43.4506C17.064 42.4047 16.958 41.5194 16.7461 40.7948C16.541 40.0634 16.2095 39.4618 15.7515 38.9901C15.2866 38.5184 14.6885 38.1801 13.957 37.975C13.2324 37.7631 12.3472 37.6571 11.3013 37.6571H9.79395V49.244H11.3013ZM22.4575 42.0458L22.0063 40.6102C23.1548 40.1522 24.3579 39.9232 25.6157 39.9232C26.7163 39.9232 27.5571 40.1078 28.1382 40.4769C28.8013 40.9008 29.1328 41.6219 29.1328 42.6405V46.8344C29.1328 47.3949 29.1396 47.9691 29.1533 48.557C29.1602 48.9056 29.1943 49.2679 29.2559 49.6439C29.3105 49.9994 29.3823 50.3378 29.4712 50.6591L27.7896 51.0282C27.6323 50.5702 27.5332 50.0575 27.4922 49.4901L27.2871 49.4696C26.4395 50.536 25.3594 51.0692 24.0469 51.0692C23.0898 51.0692 22.3208 50.806 21.7397 50.2797C21.1587 49.7465 20.8682 48.9979 20.8682 48.0341C20.8682 47.3163 21.0254 46.7284 21.3398 46.2704C21.6611 45.8124 22.1123 45.4261 22.6934 45.1117C23.6094 44.6127 24.8911 44.3632 26.5386 44.3632C26.7573 44.3632 27.0513 44.37 27.4204 44.3837V42.8251C27.4204 42.3329 27.27 41.9774 26.9692 41.7587C26.6685 41.5399 26.1968 41.4305 25.5542 41.4305C24.6177 41.4305 23.5854 41.6356 22.4575 42.0458ZM27.4204 47.829V45.6757C27.2358 45.662 26.9658 45.6552 26.6104 45.6552C26.0088 45.6552 25.4551 45.7064 24.9492 45.809C24.1973 45.9594 23.6128 46.1986 23.1958 46.5267C22.7856 46.848 22.5806 47.3129 22.5806 47.9213C22.5806 49.015 23.1753 49.5619 24.3647 49.5619C24.98 49.5619 25.5542 49.3978 26.0874 49.0697C26.5249 48.7963 26.9692 48.3827 27.4204 47.829ZM41.1504 40.1591V51.059C41.1504 51.7357 41.0376 52.3202 40.812 52.8124C40.5933 53.3046 40.2856 53.7113 39.8892 54.0326C39.4995 54.3539 39.0347 54.5897 38.4946 54.7401C37.9546 54.8973 37.3667 54.976 36.731 54.976C36.1567 54.976 35.5791 54.9247 34.998 54.8221C34.417 54.7264 33.8633 54.5897 33.3369 54.412C33.4258 54.1727 33.5181 53.9403 33.6138 53.7147C33.7095 53.4891 33.8052 53.2635 33.9009 53.038C34.0649 53.0927 34.2598 53.1508 34.4854 53.2123C34.7178 53.2738 34.9604 53.3285 35.2134 53.3763C35.4731 53.431 35.7363 53.472 36.0029 53.4994C36.2764 53.5336 36.5396 53.5507 36.7925 53.5507C37.189 53.5507 37.5479 53.496 37.8691 53.3866C38.1904 53.2841 38.4639 53.1268 38.6895 52.9149C38.915 52.703 39.0859 52.4398 39.2021 52.1254C39.3252 51.8177 39.3867 51.4623 39.3867 51.059V48.7416H39.1919C39.0142 49.0629 38.8091 49.3671 38.5767 49.6542C38.3442 49.9344 38.0879 50.1805 37.8076 50.3925C37.5273 50.6044 37.2231 50.7684 36.895 50.8846C36.5737 51.0077 36.2319 51.0692 35.8696 51.0692C35.3706 51.0692 34.9365 51.0111 34.5674 50.8949C34.1982 50.7855 33.8804 50.6215 33.6138 50.4027C33.354 50.1771 33.1387 49.9003 32.9678 49.5721C32.8037 49.2372 32.6772 48.851 32.5884 48.4135C32.5132 48.0238 32.4653 47.6068 32.4448 47.1625C32.4243 46.7181 32.4141 46.2601 32.4141 45.7885V40.1591H34.1777V46.2806C34.1777 46.725 34.1982 47.142 34.2393 47.5316C34.2803 47.9144 34.3691 48.2494 34.5059 48.5365C34.6494 48.8168 34.8579 49.0389 35.1313 49.203C35.4048 49.3602 35.7773 49.4388 36.249 49.4388C36.5977 49.4388 36.9258 49.3568 37.2334 49.1927C37.541 49.0219 37.8247 48.8065 38.0845 48.5468C38.3442 48.287 38.5801 47.9999 38.792 47.6854C39.0107 47.371 39.209 47.0634 39.3867 46.7626V40.1591H41.1504Z" fill="white"/>
</g>
<defs>
<filter id="filter0_d_134_36" x="0.5" y="3" width="142" height="63" filterUnits="userSpaceOnUse" color-interpolation-filters="sRGB">
<feFlood flood-opacity="0" result="BackgroundImageFix"/>
<feColorMatrix in="SourceAlpha" type="matrix" values="0 0 0 0 0 0 0 0 0 0 0 0 0 0 0 0 0 0 127 0" result="hardAlpha"/>
<feOffset dy="4"/>
<feGaussianBlur stdDeviation="2"/>
<feComposite in2="hardAlpha" operator="out"/>
<feColorMatrix type="matrix" values="0 0 0 0 0 0 0 0 0 0 0 0 0 0 0 0 0 0 0.25 0"/>
<feBlend mode="normal" in2="BackgroundImageFix" result="effect1_dropShadow_134_36"/>
<feBlend mode="normal" in="SourceGraphic" in2="effect1_dropShadow_134_36" result="shape"/>
</filter>
<filter id="filter1_d_134_36" x="3.86621" y="6.70886" width="133.877" height="56.2671" filterUnits="userSpaceOnUse" color-interpolation-filters="sRGB">
<feFlood flood-opacity="0" result="BackgroundImageFix"/>
<feColorMatrix in="SourceAlpha" type="matrix" values="0 0 0 0 0 0 0 0 0 0 0 0 0 0 0 0 0 0 127 0" result="hardAlpha"/>
<feOffset dy="4"/>
<feGaussianBlur stdDeviation="2"/>
<feComposite in2="hardAlpha" operator="out"/>
<feColorMatrix type="matrix" values="0 0 0 0 0 0 0 0 0 0 0 0 0 0 0 0 0 0 0.25 0"/>
<feBlend mode="normal" in2="BackgroundImageFix" result="effect1_dropShadow_134_36"/>
<feBlend mode="normal" in="SourceGraphic" in2="effect1_dropShadow_134_36" result="shape"/>
</filter>
</defs>
</svg>
