<svg width="49" height="65" viewBox="0 0 49 65" fill="none" xmlns="http://www.w3.org/2000/svg">
<path fill-rule="evenodd" clip-rule="evenodd" d="M7.15755 0.223433C5.95857 0.762051 5.50495 1.62298 5.43851 3.4868L5.38864 4.88202L3.87689 4.92311C1.81161 4.97939 0.921263 5.46381 0.264333 6.88909L0 7.46224V34.5036V61.545L0.367102 62.2099C0.760655 62.9225 1.38779 63.4958 2.10128 63.7949C2.77096 64.0756 46.1493 64.0756 46.819 63.7949C47.5325 63.4958 48.1596 62.9225 48.5532 62.2099L48.9203 61.545L48.9563 42.2476C48.9761 31.634 48.9596 22.7677 48.9195 22.5445C48.7821 21.7784 47.626 21.5338 47.1777 22.176C47.0135 22.4112 46.9908 24.7674 46.9908 41.6008C46.9908 62.8221 47.0481 61.3632 46.196 61.8315C45.5762 62.172 3.15638 62.1595 2.65592 61.8187C1.87455 61.2863 1.92952 63.3577 1.92952 34.4411C1.92952 5.53575 1.87423 7.58295 2.66644 7.1134C2.93714 6.95288 3.31715 6.90028 4.20448 6.90028H5.3829L5.44058 7.86816C5.68611 11.9939 11.2593 11.9939 11.2642 7.86816L11.2655 6.90028H24.4601H37.655L37.6578 7.86816C37.6703 11.9933 43.2343 11.9933 43.4797 7.86816L43.5374 6.90028H44.7158C47.055 6.90028 46.9908 6.71547 46.9908 13.4534C46.9908 16.6905 47.0386 18.872 47.1127 19.0108C47.4194 19.586 48.4085 19.564 48.7941 18.9734C49.1414 18.4415 49.0183 7.6752 48.6559 6.88909C47.999 5.46381 47.1087 4.97939 45.0434 4.92311L43.5317 4.88202L43.4818 3.4868C43.3967 1.1037 42.4764 0.0306244 40.5179 0.0306244C38.5491 0.0306244 37.655 1.12257 37.655 3.52645V4.90185H24.4703H11.2857L11.2444 3.36209C11.1971 1.59452 10.9827 1.09187 9.9975 0.437666C9.3522 0.0090413 7.88156 -0.101912 7.15755 0.223433ZM9.02477 2.27894C9.25963 2.51444 9.27381 2.69526 9.27381 5.46381C9.27381 8.23252 9.25963 8.41318 9.02477 8.64883C8.65416 9.02086 7.98783 8.98201 7.66455 8.56954C7.26701 8.06257 7.26701 2.8652 7.66455 2.35808C7.98783 1.94576 8.65416 1.90691 9.02477 2.27894ZM41.2557 2.35808C41.4992 2.66872 41.5137 2.84394 41.5137 5.46381C41.5137 8.63972 41.4426 8.89872 40.5711 8.89872C39.6801 8.89872 39.6466 8.77433 39.6466 5.46381C39.6466 2.69526 39.6607 2.51444 39.8955 2.27894C40.2661 1.90691 40.9324 1.94576 41.2557 2.35808ZM18.1624 10.3817C12.0252 14.7265 11.4589 23.9879 17.0118 29.1998C22.3466 34.2071 31.1999 33.2863 35.3067 27.2969C36.3977 25.706 35.3791 24.3835 33.5311 24.9919C25.516 27.6301 18.01 20.2027 20.5472 12.1435C21.2204 10.0055 19.9838 9.09201 18.1624 10.3817ZM27.4787 11.2634C27.1959 11.4414 26.9194 11.8311 26.5597 12.5589L26.0452 13.5997L24.9856 13.7535C22.6469 14.0927 22.2483 15.1767 23.8518 16.836L24.7372 17.7523L24.5986 18.5504C24.151 21.1299 25.0258 21.8606 27.2303 20.7485L28.2523 20.2329L29.2035 20.7485C31.2425 21.8535 32.2915 21.1146 31.8874 18.8578L31.6835 17.7195L32.5366 16.8368C34.1635 15.1532 33.7955 14.0667 31.4933 13.7564L30.3728 13.6053L29.9531 12.697C29.2497 11.1752 28.4008 10.6834 27.4787 11.2634ZM18.1133 14.2524C17.4317 21.5434 22.9081 27.4466 30.3534 27.4466H32.5746L32.0962 27.8691C25.7326 33.4886 15.7603 29.3806 15.168 20.8957C14.9926 18.3847 15.9661 15.488 17.6166 13.6083C18.2646 12.8703 18.2449 12.8447 18.1133 14.2524ZM28.5093 14.4022C28.841 15.1405 29.2967 15.4718 30.1228 15.5754L30.8241 15.6633L30.2391 16.2907L29.6542 16.9182L29.7237 17.8392L29.7932 18.7601L29.1847 18.4508C28.4197 18.0619 28.0204 18.0616 27.2571 18.4495C26.5299 18.8188 26.5702 18.8461 26.7128 18.0803C26.8613 17.2825 26.7153 16.8566 26.0651 16.1919L25.5624 15.678L26.2185 15.5906C27.1189 15.4708 27.5388 15.1887 27.8594 14.4881C28.1893 13.7669 28.2218 13.7626 28.5093 14.4022ZM5.77374 35.1148C5.36235 35.4491 5.36235 36.306 5.77374 36.6403C6.22976 37.0108 42.6905 37.0108 43.1465 36.6403C43.5579 36.306 43.5579 35.4491 43.1465 35.1148C42.6905 34.7442 6.22976 34.7442 5.77374 35.1148ZM7.0653 39.7127C6.66155 39.7907 6.08413 40.4198 5.99203 40.8817C5.81469 41.7718 5.90344 49.7358 6.09496 50.1074C6.39227 50.6845 7.02626 50.7913 7.57644 50.3571L7.9045 50.0983V45.8606V41.623H10.9541H14.0039V48.8674V56.1117H10.9541H7.9045V54.8093C7.9045 53.3578 7.69944 52.9891 6.89178 52.9891C6.07393 52.9891 5.87572 53.5271 5.93324 55.5922C6.0051 58.1734 5.89643 58.1213 11.1202 58.0797L15.1449 58.0477L15.4993 57.6496C16.0083 57.0778 16.0126 56.9921 15.971 48.4704C15.9228 38.6174 16.4903 39.6161 10.9541 39.6418C8.96869 39.6511 7.21873 39.6829 7.0653 39.7127ZM19.481 40.8737C18.6125 41.7451 19.8629 43.164 20.7743 42.3412C21.4795 41.7045 21.0965 40.6238 20.1656 40.6238C19.8959 40.6238 19.6351 40.7189 19.481 40.8737ZM24.7092 40.8737C24.3284 41.2556 24.3696 42.0331 24.788 42.3634C25.4671 42.8993 26.3274 42.4804 26.3274 41.614C26.3274 40.9837 25.9881 40.6238 25.3937 40.6238C25.1241 40.6238 24.8633 40.7189 24.7092 40.8737ZM30.0288 40.78C29.2956 41.3387 29.7162 42.6222 30.6327 42.6222C31.4305 42.6222 31.8819 41.451 31.3065 40.8737C31.0232 40.5894 30.3443 40.5397 30.0288 40.78ZM35.1794 40.8423C34.4513 41.4491 35.0296 42.752 35.9484 42.5741C36.4566 42.4755 36.7836 42.082 36.7836 41.5685C36.7836 40.7774 35.7948 40.3298 35.1794 40.8423ZM40.4353 40.8083C39.863 41.2105 39.9823 42.223 40.6339 42.4938C41.3384 42.7867 42.0116 42.3277 42.0116 41.5546C42.0116 40.7984 41.0782 40.3565 40.4353 40.8083ZM19.5044 45.8745C19.0994 46.2531 19.1281 47.0186 19.56 47.3595C20.3642 47.9942 21.4201 47.2217 21.0813 46.2464C20.8536 45.5911 20.0184 45.3941 19.5044 45.8745ZM24.7092 45.8698C24.3284 46.2517 24.3696 47.0292 24.788 47.3595C25.4671 47.8954 26.3274 47.4765 26.3274 46.6101C26.3274 45.9797 25.9881 45.6199 25.3937 45.6199C25.1241 45.6199 24.8633 45.715 24.7092 45.8698ZM30.0288 45.7761C29.4944 46.1833 29.5215 47.0248 30.0816 47.4185C31.0457 48.096 32.1279 46.7025 31.2673 45.8915C30.9469 45.5895 30.347 45.5335 30.0288 45.7761ZM35.2073 45.8044C34.8678 46.0429 34.7405 46.5676 34.9176 46.9969C35.3225 47.9775 36.7836 47.6918 36.7836 46.6319C36.7836 45.7951 35.8888 45.3254 35.2073 45.8044ZM40.4353 45.8044C39.8804 46.1945 39.9755 47.1943 40.5943 47.4773C41.0666 47.6931 41.3713 47.6479 41.7062 47.3118C42.5704 46.4445 41.4372 45.1003 40.4353 45.8044ZM19.5027 50.905C18.6985 51.764 19.7517 53.0852 20.7059 52.4145C21.5205 51.842 21.1492 50.6303 20.1562 50.62C19.9133 50.6174 19.6744 50.7216 19.5027 50.905ZM24.7326 50.8706C24.3276 51.2492 24.3563 52.0147 24.788 52.3555C25.4649 52.8899 26.3274 52.4726 26.3274 51.611C26.3274 51.0132 25.9545 50.616 25.3937 50.616C25.1746 50.616 24.8862 50.7271 24.7326 50.8706ZM30.0288 50.7722C29.702 51.0211 29.5553 51.5536 29.6993 51.968C30.0499 52.9771 31.5554 52.7012 31.5554 51.628C31.5554 50.8216 30.6386 50.3076 30.0288 50.7722ZM35.275 50.7418C34.9227 50.9482 34.7403 51.5635 34.9097 51.9738C35.3249 52.9794 36.7836 52.7004 36.7836 51.6152C36.7836 50.8513 35.9305 50.3574 35.275 50.7418ZM40.431 50.8035C39.77 51.2681 40.036 52.4109 40.8407 52.5624C41.4849 52.6836 41.9367 52.3234 41.9871 51.6481C42.0491 50.8158 41.1264 50.3149 40.431 50.8035ZM19.56 55.8709C18.8625 56.4215 19.3129 57.6175 20.2136 57.6065C21.1749 57.5948 21.5165 56.1497 20.6514 55.7542C20.2023 55.5489 19.9314 55.5778 19.56 55.8709ZM24.788 55.8709C24.5342 56.0714 24.4601 56.2396 24.4601 56.6156C24.4601 57.503 25.299 57.9043 25.9993 57.3516C26.6745 56.8186 26.2545 55.612 25.3937 55.612C25.241 55.612 24.9686 55.7286 24.788 55.8709Z" fill="#043E5F"/>
</svg>
