<svg width="232" height="65" viewBox="0 0 232 65" fill="none" xmlns="http://www.w3.org/2000/svg">
<g filter="url(#filter0_d_131_35)">
<path d="M159 2C161.209 2 163 3.79086 163 6V23.4551C163 25.6642 161.209 27.4551 159 27.4551H83.3968C81.1876 27.4551 79.3968 29.246 79.3968 31.4551V53C79.3968 55.2091 77.6059 57 75.3968 57H41.0131H8.00001C5.79087 57 4 55.2091 4 53V6C4 3.79086 5.79086 2 8 2H159Z" fill="#043E5F"/>
</g>
<g filter="url(#filter1_d_131_35)">
<path d="M25.2212 6.61212L23.4473 21.347H20.5864L16.4849 8.58087L12.3833 21.347H9.52246L7.74854 6.61212H9.625L11.1631 19.0193H11.2656L15.3364 6.61212H17.6333L21.7041 19.0193H21.8066L23.3447 6.61212H25.2212ZM27.7642 6.58136H29.5278V13.0106C29.9858 12.2313 30.5054 11.6229 31.0864 11.1854C31.7495 10.6932 32.4092 10.4471 33.0654 10.4471C34.0498 10.4471 34.8154 10.6932 35.3623 11.1854C35.834 11.6092 36.1587 12.2484 36.3364 13.1028C36.4731 13.7523 36.5415 14.6273 36.5415 15.7278V21.347H34.7778V15.2357C34.7778 14.8187 34.7676 14.4769 34.7471 14.2103C34.7266 13.9368 34.6753 13.6531 34.5933 13.3592C34.5181 13.0584 34.4053 12.826 34.2549 12.6619C34.1113 12.491 33.9062 12.3509 33.6396 12.2415C33.3799 12.1321 33.062 12.0775 32.686 12.0775C32.0366 12.0775 31.4111 12.3851 30.8096 13.0003C30.4268 13.39 29.9995 13.9847 29.5278 14.7845V21.347H27.7642V6.58136ZM40.2124 12.5696L39.7612 11.1341C40.9097 10.6761 42.1128 10.4471 43.3706 10.4471C44.4712 10.4471 45.312 10.6317 45.8931 11.0008C46.5562 11.4246 46.8877 12.1458 46.8877 13.1644V17.3582C46.8877 17.9188 46.8945 18.493 46.9082 19.0809C46.915 19.4295 46.9492 19.7918 47.0107 20.1678C47.0654 20.5233 47.1372 20.8616 47.2261 21.1829L45.5444 21.5521C45.3872 21.0941 45.2881 20.5814 45.2471 20.014L45.042 19.9935C44.1943 21.0599 43.1143 21.5931 41.8018 21.5931C40.8447 21.5931 40.0757 21.3299 39.4946 20.8035C38.9136 20.2703 38.623 19.5218 38.623 18.5579C38.623 17.8401 38.7803 17.2523 39.0947 16.7943C39.416 16.3362 39.8672 15.95 40.4482 15.6356C41.3643 15.1365 42.646 14.887 44.2935 14.887C44.5122 14.887 44.8062 14.8939 45.1753 14.9075V13.3489C45.1753 12.8568 45.0249 12.5013 44.7241 12.2825C44.4233 12.0638 43.9517 11.9544 43.3091 11.9544C42.3726 11.9544 41.3403 12.1595 40.2124 12.5696ZM45.1753 18.3528V16.1995C44.9907 16.1859 44.7207 16.179 44.3652 16.179C43.7637 16.179 43.21 16.2303 42.7041 16.3328C41.9521 16.4832 41.3677 16.7225 40.9507 17.0506C40.5405 17.3719 40.3354 17.8367 40.3354 18.4451C40.3354 19.5389 40.9302 20.0858 42.1196 20.0858C42.7349 20.0858 43.3091 19.9217 43.8423 19.5936C44.2798 19.3201 44.7241 18.9066 45.1753 18.3528ZM51.2148 8.24249H52.9785V10.6829H56.5674V12.1697H52.9785V18.2913C52.9785 18.7015 52.9888 19.0159 53.0093 19.2347C53.0366 19.4466 53.0981 19.6141 53.1938 19.7371C53.3716 19.9832 53.7305 20.1063 54.2705 20.1063C54.5713 20.1063 54.8618 20.0755 55.1421 20.014C55.4292 19.9525 55.6924 19.8841 55.9316 19.8089C56.123 20.2259 56.2974 20.6839 56.4546 21.1829C55.6479 21.4564 54.8345 21.5931 54.0142 21.5931C53.4194 21.5931 52.9409 21.5247 52.5786 21.388C52.2231 21.2581 51.9429 21.0428 51.7378 20.742C51.5259 20.4276 51.3857 20.0516 51.3174 19.6141C51.249 19.1766 51.2148 18.5716 51.2148 17.7991V12.1697H49.6768V10.6829H51.2148V8.24249ZM75.0449 6.60187H76.9727V21.347H75.0449V14.0359H67.1289V21.347H65.2012V6.60187H67.1289V12.4568H75.0449V6.60187ZM81.187 12.5696L80.7358 11.1341C81.8843 10.6761 83.0874 10.4471 84.3452 10.4471C85.4458 10.4471 86.2866 10.6317 86.8677 11.0008C87.5308 11.4246 87.8623 12.1458 87.8623 13.1644V17.3582C87.8623 17.9188 87.8691 18.493 87.8828 19.0809C87.8896 19.4295 87.9238 19.7918 87.9854 20.1678C88.04 20.5233 88.1118 20.8616 88.2007 21.1829L86.519 21.5521C86.3618 21.0941 86.2627 20.5814 86.2217 20.014L86.0166 19.9935C85.1689 21.0599 84.0889 21.5931 82.7764 21.5931C81.8193 21.5931 81.0503 21.3299 80.4692 20.8035C79.8882 20.2703 79.5977 19.5218 79.5977 18.5579C79.5977 17.8401 79.7549 17.2523 80.0693 16.7943C80.3906 16.3362 80.8418 15.95 81.4229 15.6356C82.3389 15.1365 83.6206 14.887 85.2681 14.887C85.4868 14.887 85.7808 14.8939 86.1499 14.9075V13.3489C86.1499 12.8568 85.9995 12.5013 85.6987 12.2825C85.3979 12.0638 84.9263 11.9544 84.2837 11.9544C83.3472 11.9544 82.3149 12.1595 81.187 12.5696ZM86.1499 18.3528V16.1995C85.9653 16.1859 85.6953 16.179 85.3398 16.179C84.7383 16.179 84.1846 16.2303 83.6787 16.3328C82.9268 16.4832 82.3423 16.7225 81.9253 17.0506C81.5151 17.3719 81.3101 17.8367 81.3101 18.4451C81.3101 19.5389 81.9048 20.0858 83.0942 20.0858C83.7095 20.0858 84.2837 19.9217 84.8169 19.5936C85.2544 19.3201 85.6987 18.9066 86.1499 18.3528ZM92.9893 25.4485H91.2256V14.7025C91.2256 13.513 91.2085 12.7303 91.1743 12.3543C91.1401 11.8895 91.0615 11.3904 90.9385 10.8572L92.6406 10.4778C92.7568 10.8607 92.8423 11.2469 92.897 11.6365C92.9653 12.1151 93.0029 12.4842 93.0098 12.744H93.1636C93.519 12.0057 93.9121 11.4622 94.3428 11.1136C94.8623 10.6693 95.5049 10.4471 96.2705 10.4471C96.9404 10.4471 97.5181 10.5941 98.0034 10.888C98.4888 11.1751 98.8647 11.5784 99.1313 12.098C99.4048 12.6175 99.603 13.1883 99.7261 13.8104C99.856 14.4324 99.9209 15.1194 99.9209 15.8714C99.9209 16.7191 99.832 17.4813 99.6543 18.158C99.4834 18.8348 99.2168 19.4363 98.8545 19.9627C98.4922 20.4822 98.0068 20.8856 97.3984 21.1727C96.79 21.4529 96.0757 21.5931 95.2554 21.5931C94.6128 21.5931 93.8574 21.5076 92.9893 21.3367V25.4485ZM92.9893 15.0101V19.7781C93.7617 19.9832 94.4727 20.0858 95.1221 20.0858C95.6758 20.0858 96.1509 19.9866 96.5474 19.7884C96.9507 19.5833 97.2651 19.2996 97.4907 18.9373C97.7163 18.5682 97.8804 18.158 97.9829 17.7068C98.0854 17.2557 98.1367 16.7498 98.1367 16.1893C98.1367 15.8065 98.1265 15.4715 98.106 15.1844C98.0923 14.8904 98.0615 14.576 98.0137 14.241C97.9727 13.8992 97.9043 13.6087 97.8086 13.3694C97.7129 13.1302 97.5933 12.908 97.4497 12.7029C97.3062 12.4979 97.1182 12.3441 96.8857 12.2415C96.6602 12.1321 96.397 12.0775 96.0962 12.0775C95.3716 12.0775 94.7427 12.368 94.2095 12.949C93.8267 13.3729 93.4199 14.0599 92.9893 15.0101ZM104.412 25.4485H102.648V14.7025C102.648 13.513 102.631 12.7303 102.597 12.3543C102.563 11.8895 102.484 11.3904 102.361 10.8572L104.063 10.4778C104.18 10.8607 104.265 11.2469 104.32 11.6365C104.388 12.1151 104.426 12.4842 104.433 12.744H104.586C104.942 12.0057 105.335 11.4622 105.766 11.1136C106.285 10.6693 106.928 10.4471 107.693 10.4471C108.363 10.4471 108.941 10.5941 109.426 10.888C109.912 11.1751 110.288 11.5784 110.554 12.098C110.828 12.6175 111.026 13.1883 111.149 13.8104C111.279 14.4324 111.344 15.1194 111.344 15.8714C111.344 16.7191 111.255 17.4813 111.077 18.158C110.906 18.8348 110.64 19.4363 110.277 19.9627C109.915 20.4822 109.43 20.8856 108.821 21.1727C108.213 21.4529 107.499 21.5931 106.678 21.5931C106.036 21.5931 105.28 21.5076 104.412 21.3367V25.4485ZM104.412 15.0101V19.7781C105.185 19.9832 105.896 20.0858 106.545 20.0858C107.099 20.0858 107.574 19.9866 107.97 19.7884C108.374 19.5833 108.688 19.2996 108.914 18.9373C109.139 18.5682 109.303 18.158 109.406 17.7068C109.508 17.2557 109.56 16.7498 109.56 16.1893C109.56 15.8065 109.549 15.4715 109.529 15.1844C109.515 14.8904 109.484 14.576 109.437 14.241C109.396 13.8992 109.327 13.6087 109.231 13.3694C109.136 13.1302 109.016 12.908 108.873 12.7029C108.729 12.4979 108.541 12.3441 108.309 12.2415C108.083 12.1321 107.82 12.0775 107.519 12.0775C106.794 12.0775 106.166 12.368 105.632 12.949C105.25 13.3729 104.843 14.0599 104.412 15.0101ZM122.069 20.7523C121.311 21.053 120.596 21.2684 119.926 21.3983C119.263 21.5281 118.668 21.5931 118.142 21.5931C117.335 21.5931 116.631 21.4666 116.03 21.2137C115.428 20.9539 114.926 20.5916 114.522 20.1268C114.126 19.6619 113.825 19.1082 113.62 18.4656C113.422 17.8162 113.323 17.1019 113.323 16.3226C113.323 15.8441 113.357 15.3655 113.425 14.887C113.494 14.4085 113.603 13.9539 113.753 13.5233C113.904 13.0858 114.099 12.679 114.338 12.303C114.584 11.9271 114.881 11.6024 115.23 11.3289C115.579 11.0555 115.985 10.8401 116.45 10.6829C116.915 10.5257 117.445 10.4471 118.04 10.4471C119.564 10.4471 120.712 10.9256 121.485 11.8826C122.257 12.8328 122.644 14.1966 122.644 15.9739V16.5379H115.138C115.138 17.1121 115.199 17.6214 115.322 18.0657C115.445 18.5032 115.633 18.8758 115.886 19.1834C116.146 19.4842 116.471 19.7132 116.86 19.8704C117.257 20.0276 117.725 20.1063 118.265 20.1063C118.566 20.1063 118.863 20.0858 119.157 20.0447C119.458 19.9969 119.749 19.9388 120.029 19.8704C120.309 19.7952 120.576 19.7132 120.829 19.6243C121.088 19.5355 121.331 19.45 121.557 19.368L122.069 20.7523ZM120.87 15.1229C120.815 14.0154 120.548 13.2088 120.07 12.7029C119.598 12.1902 118.921 11.9339 118.04 11.9339C117.158 11.9339 116.484 12.1902 116.02 12.7029C115.562 13.2088 115.285 14.0154 115.189 15.1229H120.87ZM125.053 10.8675L126.755 10.4881C126.885 10.8983 126.978 11.2947 127.032 11.6776C127.06 11.8621 127.094 12.2278 127.135 12.7747H127.35C127.726 12.0843 128.191 11.534 128.745 11.1238C129.353 10.6727 129.996 10.4471 130.672 10.4471C131.691 10.4471 132.467 10.6932 133 11.1854C133.458 11.6024 133.776 12.2415 133.954 13.1028C134.07 13.6907 134.128 14.5657 134.128 15.7278V21.347H132.364V15.2357C132.364 14.2171 132.265 13.4891 132.067 13.0516C131.773 12.4022 131.182 12.0775 130.293 12.0775C129.664 12.0775 129.049 12.3782 128.447 12.9798C128.044 13.3831 127.613 13.9744 127.155 14.7537V21.347H125.392V14.7845C125.392 13.8616 125.368 13.0652 125.32 12.3953C125.292 11.9783 125.204 11.4691 125.053 10.8675ZM145.141 20.7523C144.382 21.053 143.667 21.2684 142.998 21.3983C142.334 21.5281 141.74 21.5931 141.213 21.5931C140.407 21.5931 139.703 21.4666 139.101 21.2137C138.5 20.9539 137.997 20.5916 137.594 20.1268C137.197 19.6619 136.896 19.1082 136.691 18.4656C136.493 17.8162 136.394 17.1019 136.394 16.3226C136.394 15.8441 136.428 15.3655 136.497 14.887C136.565 14.4085 136.674 13.9539 136.825 13.5233C136.975 13.0858 137.17 12.679 137.409 12.303C137.655 11.9271 137.953 11.6024 138.301 11.3289C138.65 11.0555 139.057 10.8401 139.521 10.6829C139.986 10.5257 140.516 10.4471 141.111 10.4471C142.635 10.4471 143.784 10.9256 144.556 11.8826C145.329 12.8328 145.715 14.1966 145.715 15.9739V16.5379H138.209C138.209 17.1121 138.271 17.6214 138.394 18.0657C138.517 18.5032 138.705 18.8758 138.958 19.1834C139.217 19.4842 139.542 19.7132 139.932 19.8704C140.328 20.0276 140.796 20.1063 141.336 20.1063C141.637 20.1063 141.935 20.0858 142.229 20.0447C142.529 19.9969 142.82 19.9388 143.1 19.8704C143.38 19.7952 143.647 19.7132 143.9 19.6243C144.16 19.5355 144.402 19.45 144.628 19.368L145.141 20.7523ZM143.941 15.1229C143.886 14.0154 143.62 13.2088 143.141 12.7029C142.669 12.1902 141.993 11.9339 141.111 11.9339C140.229 11.9339 139.556 12.1902 139.091 12.7029C138.633 13.2088 138.356 14.0154 138.26 15.1229H143.941ZM154.697 6.58136H156.461V17.3172C156.461 18.5203 156.478 19.3099 156.512 19.6859C156.546 20.1507 156.625 20.6497 156.748 21.1829L155.046 21.5623C154.93 21.1795 154.844 20.7933 154.79 20.4036C154.721 19.9251 154.684 19.556 154.677 19.2962H154.523C154.167 20.0345 153.774 20.5779 153.344 20.9266C152.824 21.3709 152.182 21.5931 151.416 21.5931C150.746 21.5931 150.168 21.4495 149.683 21.1624C149.198 20.8685 148.818 20.4617 148.545 19.9422C148.278 19.4227 148.08 18.8519 147.95 18.2298C147.827 17.6077 147.766 16.9207 147.766 16.1688C147.766 15.3211 147.851 14.5589 148.022 13.8821C148.2 13.2054 148.47 12.6072 148.832 12.0877C149.194 11.5613 149.68 11.158 150.288 10.8777C150.896 10.5906 151.611 10.4471 152.431 10.4471C153.074 10.4471 153.829 10.5325 154.697 10.7034V6.58136ZM154.697 17.0301V12.262C153.925 12.0569 153.214 11.9544 152.564 11.9544C152.011 11.9544 151.532 12.0569 151.129 12.262C150.732 12.4603 150.421 12.744 150.196 13.1131C149.97 13.4754 149.806 13.8821 149.704 14.3333C149.601 14.7845 149.55 15.2903 149.55 15.8509C149.55 16.2337 149.557 16.5721 149.57 16.866C149.591 17.1531 149.622 17.4676 149.663 17.8094C149.71 18.1443 149.782 18.4315 149.878 18.6707C149.974 18.91 150.093 19.1321 150.237 19.3372C150.38 19.5423 150.565 19.6995 150.791 19.8089C151.023 19.9114 151.29 19.9627 151.59 19.9627C152.315 19.9627 152.944 19.6722 153.477 19.0911C153.86 18.6673 154.267 17.9803 154.697 17.0301ZM7.82031 35.6019H18.8638V37.181H14.3315V50.347H12.4038V37.181H7.82031V35.6019ZM25.3853 39.4471C25.7202 39.4471 26.0688 39.4744 26.4312 39.5291C26.7935 39.577 27.1489 39.6727 27.4976 39.8162C27.8462 39.9666 28.1743 40.1717 28.4819 40.4315C28.7964 40.6844 29.0732 41.0159 29.3125 41.4261C29.5518 41.8431 29.7397 42.3455 29.8765 42.9334C30.0132 43.5145 30.0815 44.2083 30.0815 45.015C30.0815 45.8216 30.0132 46.5189 29.8765 47.1068C29.7397 47.6878 29.5518 48.1834 29.3125 48.5936C29.0732 49.0106 28.7964 49.3489 28.4819 49.6087C28.1743 49.8685 27.8462 50.0701 27.4976 50.2137C27.1489 50.3641 26.7935 50.4632 26.4312 50.511C26.0688 50.5657 25.7202 50.5931 25.3853 50.5931C25.0571 50.5931 24.7119 50.5657 24.3496 50.511C23.9941 50.4632 23.6421 50.3641 23.2935 50.2137C22.9448 50.0701 22.6167 49.8685 22.3091 49.6087C22.0015 49.3489 21.728 49.0106 21.4888 48.5936C21.2495 48.1834 21.0615 47.6878 20.9248 47.1068C20.7881 46.5189 20.7197 45.8216 20.7197 45.015C20.7197 44.2083 20.7881 43.5145 20.9248 42.9334C21.0615 42.3455 21.2495 41.8431 21.4888 41.4261C21.728 41.0159 22.0015 40.6844 22.3091 40.4315C22.6167 40.1717 22.9448 39.9666 23.2935 39.8162C23.6421 39.6727 23.9941 39.577 24.3496 39.5291C24.7051 39.4744 25.0503 39.4471 25.3853 39.4471ZM25.3853 40.8929C24.9956 40.8929 24.6265 40.9544 24.2778 41.0775C23.936 41.2005 23.6353 41.4158 23.3755 41.7234C23.1089 42.0379 22.897 42.4583 22.7397 42.9847C22.5825 43.511 22.5039 44.1878 22.5039 45.015C22.5039 45.8353 22.5825 46.512 22.7397 47.0452C22.897 47.5716 23.1089 47.9886 23.3755 48.2962C23.6353 48.6107 23.936 48.8294 24.2778 48.9525C24.6265 49.0687 24.9956 49.1268 25.3853 49.1268C25.7817 49.1268 26.1543 49.0687 26.5029 48.9525C26.8584 48.8294 27.1694 48.6107 27.436 48.2962C27.7026 47.9886 27.9111 47.5716 28.0615 47.0452C28.2188 46.512 28.2974 45.8353 28.2974 45.015C28.2974 44.1878 28.2188 43.511 28.0615 42.9847C27.9111 42.4583 27.7026 42.0379 27.436 41.7234C27.1694 41.4158 26.8584 41.2005 26.5029 41.0775C26.1543 40.9544 25.7817 40.8929 25.3853 40.8929ZM39.0742 35.5814H40.8379V46.3172C40.8379 47.5203 40.855 48.3099 40.8892 48.6859C40.9233 49.1507 41.002 49.6497 41.125 50.1829L39.4229 50.5623C39.3066 50.1795 39.2212 49.7933 39.1665 49.4036C39.0981 48.9251 39.0605 48.556 39.0537 48.2962H38.8999C38.5444 49.0345 38.1514 49.5779 37.7207 49.9266C37.2012 50.3709 36.5586 50.5931 35.793 50.5931C35.123 50.5931 34.5454 50.4495 34.0601 50.1624C33.5747 49.8685 33.1953 49.4617 32.9219 48.9422C32.6553 48.4227 32.457 47.8519 32.3271 47.2298C32.2041 46.6077 32.1426 45.9207 32.1426 45.1688C32.1426 44.3211 32.228 43.5589 32.3989 42.8821C32.5767 42.2054 32.8467 41.6072 33.209 41.0877C33.5713 40.5613 34.0566 40.158 34.665 39.8777C35.2734 39.5906 35.9878 39.4471 36.8081 39.4471C37.4507 39.4471 38.2061 39.5325 39.0742 39.7034V35.5814ZM39.0742 46.0301V41.262C38.3018 41.0569 37.5908 40.9544 36.9414 40.9544C36.3877 40.9544 35.9092 41.0569 35.5059 41.262C35.1094 41.4603 34.7983 41.744 34.5728 42.1131C34.3472 42.4754 34.1831 42.8821 34.0806 43.3333C33.978 43.7845 33.9268 44.2903 33.9268 44.8509C33.9268 45.2337 33.9336 45.5721 33.9473 45.866C33.9678 46.1531 33.9985 46.4676 34.0396 46.8094C34.0874 47.1443 34.1592 47.4315 34.2549 47.6707C34.3506 47.91 34.4702 48.1321 34.6138 48.3372C34.7573 48.5423 34.9419 48.6995 35.1675 48.8089C35.3999 48.9114 35.6665 48.9627 35.9673 48.9627C36.6919 48.9627 37.3208 48.6722 37.854 48.0911C38.2368 47.6673 38.6436 46.9803 39.0742 46.0301ZM44.9907 41.5696L44.5396 40.1341C45.688 39.6761 46.8911 39.4471 48.1489 39.4471C49.2495 39.4471 50.0903 39.6317 50.6714 40.0008C51.3345 40.4246 51.666 41.1458 51.666 42.1644V46.3582C51.666 46.9188 51.6729 47.493 51.6865 48.0809C51.6934 48.4295 51.7275 48.7918 51.7891 49.1678C51.8438 49.5233 51.9155 49.8616 52.0044 50.1829L50.3228 50.5521C50.1655 50.0941 50.0664 49.5814 50.0254 49.014L49.8203 48.9935C48.9727 50.0599 47.8926 50.5931 46.5801 50.5931C45.623 50.5931 44.854 50.3299 44.2729 49.8035C43.6919 49.2703 43.4014 48.5218 43.4014 47.5579C43.4014 46.8401 43.5586 46.2523 43.873 45.7943C44.1943 45.3362 44.6455 44.95 45.2266 44.6356C46.1426 44.1365 47.4243 43.887 49.0718 43.887C49.2905 43.887 49.5845 43.8939 49.9536 43.9075V42.3489C49.9536 41.8568 49.8032 41.5013 49.5024 41.2825C49.2017 41.0638 48.73 40.9544 48.0874 40.9544C47.1509 40.9544 46.1187 41.1595 44.9907 41.5696ZM49.9536 47.3528V45.1995C49.769 45.1859 49.499 45.179 49.1436 45.179C48.542 45.179 47.9883 45.2303 47.4824 45.3328C46.7305 45.4832 46.146 45.7225 45.729 46.0506C45.3188 46.3719 45.1138 46.8367 45.1138 47.4451C45.1138 48.5389 45.7085 49.0858 46.8979 49.0858C47.5132 49.0858 48.0874 48.9217 48.6206 48.5936C49.0581 48.3201 49.5024 47.9066 49.9536 47.3528ZM63.6836 39.6829V50.5828C63.6836 51.2596 63.5708 51.8441 63.3452 52.3362C63.1265 52.8284 62.8188 53.2352 62.4224 53.5565C62.0327 53.8777 61.5679 54.1136 61.0278 54.264C60.4878 54.4212 59.8999 54.4998 59.2642 54.4998C58.6899 54.4998 58.1123 54.4485 57.5312 54.346C56.9502 54.2503 56.3965 54.1136 55.8701 53.9359C55.959 53.6966 56.0513 53.4642 56.147 53.2386C56.2427 53.013 56.3384 52.7874 56.4341 52.5618C56.5981 52.6165 56.793 52.6746 57.0186 52.7361C57.251 52.7977 57.4937 52.8524 57.7466 52.9002C58.0063 52.9549 58.2695 52.9959 58.5361 53.0233C58.8096 53.0574 59.0728 53.0745 59.3257 53.0745C59.7222 53.0745 60.0811 53.0198 60.4023 52.9105C60.7236 52.8079 60.9971 52.6507 61.2227 52.4388C61.4482 52.2269 61.6191 51.9637 61.7354 51.6492C61.8584 51.3416 61.9199 50.9861 61.9199 50.5828V48.2654H61.7251C61.5474 48.5867 61.3423 48.8909 61.1099 49.178C60.8774 49.4583 60.6211 49.7044 60.3408 49.9163C60.0605 50.1282 59.7563 50.2923 59.4282 50.4085C59.1069 50.5316 58.7651 50.5931 58.4028 50.5931C57.9038 50.5931 57.4697 50.535 57.1006 50.4188C56.7314 50.3094 56.4136 50.1453 56.147 49.9266C55.8872 49.701 55.6719 49.4241 55.501 49.096C55.3369 48.761 55.2104 48.3748 55.1216 47.9373C55.0464 47.5477 54.9985 47.1307 54.978 46.6863C54.9575 46.242 54.9473 45.784 54.9473 45.3123V39.6829H56.7109V45.8045C56.7109 46.2488 56.7314 46.6658 56.7725 47.0555C56.8135 47.4383 56.9023 47.7733 57.0391 48.0604C57.1826 48.3406 57.3911 48.5628 57.6646 48.7269C57.938 48.8841 58.3105 48.9627 58.7822 48.9627C59.1309 48.9627 59.459 48.8807 59.7666 48.7166C60.0742 48.5457 60.3579 48.3304 60.6177 48.0706C60.8774 47.8109 61.1133 47.5237 61.3252 47.2093C61.5439 46.8948 61.7422 46.5872 61.9199 46.2864V39.6829H63.6836ZM66.7188 36.3709C67.1152 36.1727 67.5186 36.0018 67.9287 35.8582C68.3389 35.7147 68.7627 35.6019 69.2002 35.5198C69.4463 35.4788 69.6992 35.4446 69.959 35.4173C70.2188 35.39 70.4785 35.3763 70.7383 35.3763C71.0801 35.3763 71.415 35.4036 71.7432 35.4583C72.0781 35.5062 72.4097 35.5916 72.7378 35.7147C73.3804 35.9744 73.8965 36.3812 74.2861 36.9349C74.6826 37.4886 74.8809 38.2064 74.8809 39.0882C74.8809 39.7376 74.7749 40.2879 74.563 40.7391C74.3511 41.1834 74.0503 41.5731 73.6606 41.908C73.2778 42.243 72.8096 42.5403 72.2559 42.8001C71.709 43.053 71.0972 43.3094 70.4204 43.5692V46.0198L68.9951 46.43L68.3799 42.8411C69.1045 42.5267 69.7539 42.2464 70.3281 42.0003C70.9023 41.7542 71.3877 41.4979 71.7842 41.2313C72.1875 40.9578 72.4951 40.6502 72.707 40.3084C72.9258 39.9598 73.0352 39.5223 73.0352 38.9959C73.0352 38.6063 72.9565 38.2747 72.7993 38.0013C72.6489 37.7278 72.4473 37.5091 72.1943 37.345C71.9824 37.2083 71.7466 37.1126 71.4868 37.0579C71.2271 37.0032 70.9536 36.9759 70.6665 36.9759C70.0718 36.9759 69.4805 37.0716 68.8926 37.263C68.3115 37.4476 67.7852 37.6629 67.3135 37.909L66.7188 36.3709ZM69.6924 48.0501C69.8633 48.0501 70.0239 48.0843 70.1743 48.1526C70.3315 48.2142 70.4648 48.303 70.5742 48.4193C70.6904 48.5286 70.7793 48.6619 70.8408 48.8192C70.9092 48.9695 70.9434 49.1302 70.9434 49.3011C70.9434 49.4651 70.9092 49.6224 70.8408 49.7728C70.7793 49.9232 70.6904 50.0565 70.5742 50.1727C70.4648 50.2889 70.3315 50.3812 70.1743 50.4495C70.0239 50.5179 69.8633 50.5521 69.6924 50.5521C69.5283 50.5521 69.3677 50.5179 69.2104 50.4495C69.0601 50.388 68.9268 50.3026 68.8105 50.1932C68.6943 50.077 68.6021 49.9437 68.5337 49.7933C68.4653 49.636 68.4312 49.472 68.4312 49.3011C68.4312 49.1302 68.4653 48.9695 68.5337 48.8192C68.6021 48.6619 68.6909 48.5286 68.8003 48.4193C68.9165 48.303 69.0498 48.2142 69.2002 48.1526C69.3574 48.0843 69.5215 48.0501 69.6924 48.0501Z" fill="white"/>
</g>
<defs>
<filter id="filter0_d_131_35" x="0" y="2" width="167" height="63" filterUnits="userSpaceOnUse" color-interpolation-filters="sRGB">
<feFlood flood-opacity="0" result="BackgroundImageFix"/>
<feColorMatrix in="SourceAlpha" type="matrix" values="0 0 0 0 0 0 0 0 0 0 0 0 0 0 0 0 0 0 127 0" result="hardAlpha"/>
<feOffset dy="4"/>
<feGaussianBlur stdDeviation="2"/>
<feComposite in2="hardAlpha" operator="out"/>
<feColorMatrix type="matrix" values="0 0 0 0 0 0 0 0 0 0 0 0 0 0 0 0 0 0 0.25 0"/>
<feBlend mode="normal" in2="BackgroundImageFix" result="effect1_dropShadow_131_35"/>
<feBlend mode="normal" in="SourceGraphic" in2="effect1_dropShadow_131_35" result="shape"/>
</filter>
<filter id="filter1_d_131_35" x="3.74854" y="6.58136" width="157" height="55.9185" filterUnits="userSpaceOnUse" color-interpolation-filters="sRGB">
<feFlood flood-opacity="0" result="BackgroundImageFix"/>
<feColorMatrix in="SourceAlpha" type="matrix" values="0 0 0 0 0 0 0 0 0 0 0 0 0 0 0 0 0 0 127 0" result="hardAlpha"/>
<feOffset dy="4"/>
<feGaussianBlur stdDeviation="2"/>
<feComposite in2="hardAlpha" operator="out"/>
<feColorMatrix type="matrix" values="0 0 0 0 0 0 0 0 0 0 0 0 0 0 0 0 0 0 0.25 0"/>
<feBlend mode="normal" in2="BackgroundImageFix" result="effect1_dropShadow_131_35"/>
<feBlend mode="normal" in="SourceGraphic" in2="effect1_dropShadow_131_35" result="shape"/>
</filter>
</defs>
</svg>
