<svg width="314" height="141" viewBox="0 0 314 141" fill="none" xmlns="http://www.w3.org/2000/svg">
<g filter="url(#filter0_d_164_22)">
<path d="M305.5 4C307.709 4 309.5 5.79086 309.5 8V59.7038C309.5 61.9129 307.709 63.7038 305.5 63.7038H102C99.7909 63.7038 98 65.4947 98 67.7038V129C98 131.209 96.2091 133 94 133H8.5C6.29086 133 4.5 131.209 4.5 129V8C4.5 5.79086 6.29086 4 8.5 4H305.5Z" fill="#043E5F"/>
</g>
<g filter="url(#filter1_d_164_22)">
<path d="M38.1406 48L33.7109 36.5391H20.375L15.9453 48H11.4688L24.8281 14.2969H29.2578L42.6172 48H38.1406ZM21.7578 32.9297H32.3281L27.0312 19.2188L21.7578 32.9297ZM51.4297 29.2734C51.9141 28.3047 52.4297 27.4297 52.9766 26.6484C53.5391 25.8672 54.1562 25.2031 54.8281 24.6562C55.4375 24.125 56.1094 23.7344 56.8438 23.4844C57.5781 23.2188 58.4141 23.0859 59.3516 23.0859C59.6641 23.0859 60.0234 23.1016 60.4297 23.1328C60.8516 23.1641 61.25 23.2188 61.625 23.2969C61.5625 24.0781 61.4844 24.8125 61.3906 25.5C61.3125 26.1875 61.2031 26.8828 61.0625 27.5859C60.2812 27.4453 59.5625 27.3438 58.9062 27.2812C58.2656 27.2188 57.6562 27.2344 57.0781 27.3281C56.3906 27.4531 55.7891 27.6875 55.2734 28.0312C54.7734 28.3594 54.3047 28.8047 53.8672 29.3672C53.4453 29.9141 53.0312 30.5781 52.625 31.3594C52.2188 32.125 51.7734 33.0078 51.2891 34.0078V48H47.2578V32.9766C47.2578 31.9922 47.2422 31.125 47.2109 30.375C47.1953 29.625 47.1484 28.9141 47.0703 28.2422C47.0078 27.5547 46.9062 26.8828 46.7656 26.2266C46.625 25.5547 46.4375 24.8125 46.2031 24C46.8594 23.8281 47.5 23.6719 48.125 23.5312C48.7656 23.3906 49.4141 23.2578 50.0703 23.1328C50.2891 23.7578 50.4609 24.3125 50.5859 24.7969C50.7266 25.2812 50.8359 25.7578 50.9141 26.2266C50.9922 26.6797 51.0469 27.1484 51.0781 27.6328C51.125 28.1016 51.1719 28.6484 51.2188 29.2734H51.4297ZM68.75 18.0469H72.7812V23.625H80.9844V27.0234H72.7812V41.0156C72.7812 41.9531 72.8047 42.6719 72.8516 43.1719C72.9141 43.6562 73.0547 44.0391 73.2734 44.3203C73.6797 44.8828 74.5 45.1641 75.7344 45.1641C76.4219 45.1641 77.0859 45.0938 77.7266 44.9531C78.3828 44.8125 78.9844 44.6562 79.5312 44.4844C79.9688 45.4375 80.3672 46.4844 80.7266 47.625C78.8828 48.25 77.0234 48.5625 75.1484 48.5625C73.7891 48.5625 72.6953 48.4062 71.8672 48.0938C71.0547 47.7969 70.4141 47.3047 69.9453 46.6172C69.4609 45.8984 69.1406 45.0391 68.9844 44.0391C68.8281 43.0391 68.75 41.6562 68.75 39.8906V27.0234H65.2344V23.625H68.75V18.0469ZM89.1641 14.1797C89.8828 14.1797 90.5078 14.4297 91.0391 14.9297C91.5547 15.4766 91.8125 16.1172 91.8125 16.8516C91.8125 17.6016 91.5547 18.2344 91.0391 18.75C90.5078 19.2812 89.8828 19.5469 89.1641 19.5469C88.4141 19.5469 87.7734 19.2812 87.2422 18.75C86.7109 18.25 86.4453 17.6172 86.4453 16.8516C86.4453 16.1016 86.7109 15.4609 87.2422 14.9297C87.7734 14.4297 88.4141 14.1797 89.1641 14.1797ZM87.1016 23.625H91.1328V48H87.1016V23.625ZM116.586 47.1328C115.367 47.5547 114.062 47.8984 112.672 48.1641C111.297 48.4297 109.992 48.5625 108.758 48.5625C106.883 48.5625 105.258 48.2891 103.883 47.7422C102.508 47.1953 101.367 46.3984 100.461 45.3516C99.5703 44.3047 98.9062 43.0234 98.4688 41.5078C98.0312 39.9766 97.8125 38.2344 97.8125 36.2812C97.8125 34.1562 98.0781 32.2734 98.6094 30.6328C99.1562 28.9922 99.9375 27.6172 100.953 26.5078C101.984 25.3828 103.234 24.5312 104.703 23.9531C106.188 23.375 107.867 23.0859 109.742 23.0859C110.695 23.0859 111.664 23.1875 112.648 23.3906C113.633 23.5781 114.633 23.8203 115.648 24.1172L114.641 27.3984C113.828 27.1328 113.07 26.9219 112.367 26.7656C111.68 26.6094 110.953 26.5312 110.188 26.5312C107.531 26.5312 105.484 27.3047 104.047 28.8516C102.609 30.3828 101.891 32.7031 101.891 35.8125C101.891 37.2656 101.992 38.5703 102.195 39.7266C102.414 40.8672 102.789 41.8438 103.32 42.6562C103.867 43.4531 104.602 44.0625 105.523 44.4844C106.461 44.9062 107.648 45.1172 109.086 45.1172C110.023 45.1172 111.031 45 112.109 44.7656C113.203 44.5156 114.359 44.2109 115.578 43.8516L116.586 47.1328ZM125.75 38.5312C125.75 39.8125 125.766 40.8906 125.797 41.7656C125.828 42.625 125.867 43.3828 125.914 44.0391C125.961 44.6953 126.031 45.2891 126.125 45.8203C126.234 46.3516 126.367 46.9375 126.523 47.5781C125.867 47.75 125.211 47.9062 124.555 48.0469C123.898 48.2031 123.242 48.3359 122.586 48.4453C122.273 47.4297 122.047 46.5 121.906 45.6562C121.781 44.8125 121.719 43.9844 121.719 43.1719V14.2969H125.75V38.5312ZM151.766 46.6406C150.031 47.3281 148.398 47.8203 146.867 48.1172C145.352 48.4141 143.992 48.5625 142.789 48.5625C140.945 48.5625 139.336 48.2734 137.961 47.6953C136.586 47.1016 135.438 46.2734 134.516 45.2109C133.609 44.1484 132.922 42.8828 132.453 41.4141C132 39.9297 131.773 38.2969 131.773 36.5156C131.773 35.4219 131.852 34.3281 132.008 33.2344C132.164 32.1406 132.414 31.1016 132.758 30.1172C133.102 29.1172 133.547 28.1875 134.094 27.3281C134.656 26.4688 135.336 25.7266 136.133 25.1016C136.93 24.4766 137.859 23.9844 138.922 23.625C139.984 23.2656 141.195 23.0859 142.555 23.0859C146.039 23.0859 148.664 24.1797 150.43 26.3672C152.195 28.5391 153.078 31.6562 153.078 35.7188V37.0078H135.922C135.922 38.3203 136.062 39.4844 136.344 40.5C136.625 41.5 137.055 42.3516 137.633 43.0547C138.227 43.7422 138.969 44.2656 139.859 44.625C140.766 44.9844 141.836 45.1641 143.07 45.1641C143.758 45.1641 144.438 45.1172 145.109 45.0234C145.797 44.9141 146.461 44.7812 147.102 44.625C147.742 44.4531 148.352 44.2656 148.93 44.0625C149.523 43.8594 150.078 43.6641 150.594 43.4766L151.766 46.6406ZM149.023 33.7734C148.898 31.2422 148.289 29.3984 147.195 28.2422C146.117 27.0703 144.57 26.4844 142.555 26.4844C140.539 26.4844 139 27.0703 137.938 28.2422C136.891 29.3984 136.258 31.2422 136.039 33.7734H149.023ZM182.023 23.0859C182.789 23.0859 183.586 23.1484 184.414 23.2734C185.242 23.3828 186.055 23.6016 186.852 23.9297C187.648 24.2734 188.398 24.7422 189.102 25.3359C189.82 25.9141 190.453 26.6719 191 27.6094C191.547 28.5625 191.977 29.7109 192.289 31.0547C192.602 32.3828 192.758 33.9688 192.758 35.8125C192.758 37.6562 192.602 39.25 192.289 40.5938C191.977 41.9219 191.547 43.0547 191 43.9922C190.453 44.9453 189.82 45.7188 189.102 46.3125C188.398 46.9062 187.648 47.3672 186.852 47.6953C186.055 48.0391 185.242 48.2656 184.414 48.375C183.586 48.5 182.789 48.5625 182.023 48.5625C181.273 48.5625 180.484 48.5 179.656 48.375C178.844 48.2656 178.039 48.0391 177.242 47.6953C176.445 47.3672 175.695 46.9062 174.992 46.3125C174.289 45.7188 173.664 44.9453 173.117 43.9922C172.57 43.0547 172.141 41.9219 171.828 40.5938C171.516 39.25 171.359 37.6562 171.359 35.8125C171.359 33.9688 171.516 32.3828 171.828 31.0547C172.141 29.7109 172.57 28.5625 173.117 27.6094C173.664 26.6719 174.289 25.9141 174.992 25.3359C175.695 24.7422 176.445 24.2734 177.242 23.9297C178.039 23.6016 178.844 23.3828 179.656 23.2734C180.469 23.1484 181.258 23.0859 182.023 23.0859ZM182.023 26.3906C181.133 26.3906 180.289 26.5312 179.492 26.8125C178.711 27.0938 178.023 27.5859 177.43 28.2891C176.82 29.0078 176.336 29.9688 175.977 31.1719C175.617 32.375 175.438 33.9219 175.438 35.8125C175.438 37.6875 175.617 39.2344 175.977 40.4531C176.336 41.6562 176.82 42.6094 177.43 43.3125C178.023 44.0312 178.711 44.5312 179.492 44.8125C180.289 45.0781 181.133 45.2109 182.023 45.2109C182.93 45.2109 183.781 45.0781 184.578 44.8125C185.391 44.5312 186.102 44.0312 186.711 43.3125C187.32 42.6094 187.797 41.6562 188.141 40.4531C188.5 39.2344 188.68 37.6875 188.68 35.8125C188.68 33.9219 188.5 32.375 188.141 31.1719C187.797 29.9688 187.32 29.0078 186.711 28.2891C186.102 27.5859 185.391 27.0938 184.578 26.8125C183.781 26.5312 182.93 26.3906 182.023 26.3906ZM201.617 23.625V20.9766C201.617 19.8203 201.727 18.8203 201.945 17.9766C202.164 17.1328 202.547 16.3516 203.094 15.6328C203.641 14.9141 204.438 14.375 205.484 14.0156C206.547 13.6406 207.852 13.4531 209.398 13.4531C211.414 13.4531 213.812 13.7891 216.594 14.4609L215.867 17.7656C213.242 17.2188 211.242 16.9453 209.867 16.9453C209.195 16.9453 208.625 16.9844 208.156 17.0625C207.703 17.125 207.32 17.2656 207.008 17.4844C206.695 17.6875 206.453 17.9062 206.281 18.1406C206.109 18.375 205.977 18.7266 205.883 19.1953C205.805 19.6641 205.75 20.1094 205.719 20.5312C205.703 20.9531 205.695 21.5391 205.695 22.2891V23.625H213.523V27.0234H205.695V44.6016H213.523V48H197.539V44.6016H201.617V27.0234H197.539V23.625H201.617ZM236.281 18.0469H240.312V23.625H248.516V27.0234H240.312V41.0156C240.312 41.9531 240.336 42.6719 240.383 43.1719C240.445 43.6562 240.586 44.0391 240.805 44.3203C241.211 44.8828 242.031 45.1641 243.266 45.1641C243.953 45.1641 244.617 45.0938 245.258 44.9531C245.914 44.8125 246.516 44.6562 247.062 44.4844C247.5 45.4375 247.898 46.4844 248.258 47.625C246.414 48.25 244.555 48.5625 242.68 48.5625C241.32 48.5625 240.227 48.4062 239.398 48.0938C238.586 47.7969 237.945 47.3047 237.477 46.6172C236.992 45.8984 236.672 45.0391 236.516 44.0391C236.359 43.0391 236.281 41.6562 236.281 39.8906V27.0234H232.766V23.625H236.281V18.0469ZM254.492 14.25H258.523V28.9453C259.57 27.1641 260.758 25.7734 262.086 24.7734C263.602 23.6484 265.109 23.0859 266.609 23.0859C268.859 23.0859 270.609 23.6484 271.859 24.7734C272.938 25.7422 273.68 27.2031 274.086 29.1562C274.398 30.6406 274.555 32.6406 274.555 35.1562V48H270.523V34.0312C270.523 33.0781 270.5 32.2969 270.453 31.6875C270.406 31.0625 270.289 30.4141 270.102 29.7422C269.93 29.0547 269.672 28.5234 269.328 28.1484C269 27.7578 268.531 27.4375 267.922 27.1875C267.328 26.9375 266.602 26.8125 265.742 26.8125C264.258 26.8125 262.828 27.5156 261.453 28.9219C260.578 29.8125 259.602 31.1719 258.523 33V48H254.492V14.25ZM299.75 46.6406C298.016 47.3281 296.383 47.8203 294.852 48.1172C293.336 48.4141 291.977 48.5625 290.773 48.5625C288.93 48.5625 287.32 48.2734 285.945 47.6953C284.57 47.1016 283.422 46.2734 282.5 45.2109C281.594 44.1484 280.906 42.8828 280.438 41.4141C279.984 39.9297 279.758 38.2969 279.758 36.5156C279.758 35.4219 279.836 34.3281 279.992 33.2344C280.148 32.1406 280.398 31.1016 280.742 30.1172C281.086 29.1172 281.531 28.1875 282.078 27.3281C282.641 26.4688 283.32 25.7266 284.117 25.1016C284.914 24.4766 285.844 23.9844 286.906 23.625C287.969 23.2656 289.18 23.0859 290.539 23.0859C294.023 23.0859 296.648 24.1797 298.414 26.3672C300.18 28.5391 301.062 31.6562 301.062 35.7188V37.0078H283.906C283.906 38.3203 284.047 39.4844 284.328 40.5C284.609 41.5 285.039 42.3516 285.617 43.0547C286.211 43.7422 286.953 44.2656 287.844 44.625C288.75 44.9844 289.82 45.1641 291.055 45.1641C291.742 45.1641 292.422 45.1172 293.094 45.0234C293.781 44.9141 294.445 44.7812 295.086 44.625C295.727 44.4531 296.336 44.2656 296.914 44.0625C297.508 43.8594 298.062 43.6641 298.578 43.4766L299.75 46.6406ZM297.008 33.7734C296.883 31.2422 296.273 29.3984 295.18 28.2422C294.102 27.0703 292.555 26.4844 290.539 26.4844C288.523 26.4844 286.984 27.0703 285.922 28.2422C284.875 29.3984 284.242 31.2422 284.023 33.7734H297.008ZM15.2656 113V79.2969H22.3906C24.3125 79.2969 26.0938 79.3984 27.7344 79.6016C29.3906 79.7891 30.9062 80.125 32.2812 80.6094C33.6562 81.0938 34.8594 81.7422 35.8906 82.5547C36.9375 83.3516 37.8359 84.375 38.5859 85.625C39.3203 86.875 39.875 88.3594 40.25 90.0781C40.625 91.7969 40.8125 93.8203 40.8125 96.1484C40.8125 98.4766 40.625 100.5 40.25 102.219C39.875 103.938 39.3203 105.422 38.5859 106.672C37.8359 107.922 36.9375 108.953 35.8906 109.766C34.8594 110.562 33.6562 111.203 32.2812 111.688C30.9062 112.172 29.3906 112.516 27.7344 112.719C26.0938 112.906 24.3125 113 22.3906 113H15.2656ZM23.1172 109.391C25.5078 109.391 27.5312 109.156 29.1875 108.688C30.8594 108.203 32.2266 107.422 33.2891 106.344C34.3359 105.266 35.0938 103.898 35.5625 102.242C36.0469 100.57 36.2891 98.5391 36.2891 96.1484C36.2891 93.7578 36.0469 91.7344 35.5625 90.0781C35.0938 88.4062 34.3359 87.0312 33.2891 85.9531C32.2266 84.875 30.8594 84.1016 29.1875 83.6328C27.5312 83.1484 25.5078 82.9062 23.1172 82.9062H19.6719V109.391H23.1172ZM48.6172 92.9375L47.5859 89.6562C50.2109 88.6094 52.9609 88.0859 55.8359 88.0859C58.3516 88.0859 60.2734 88.5078 61.6016 89.3516C63.1172 90.3203 63.875 91.9688 63.875 94.2969V103.883C63.875 105.164 63.8906 106.477 63.9219 107.82C63.9375 108.617 64.0156 109.445 64.1562 110.305C64.2812 111.117 64.4453 111.891 64.6484 112.625L60.8047 113.469C60.4453 112.422 60.2188 111.25 60.125 109.953L59.6562 109.906C57.7188 112.344 55.25 113.562 52.25 113.562C50.0625 113.562 48.3047 112.961 46.9766 111.758C45.6484 110.539 44.9844 108.828 44.9844 106.625C44.9844 104.984 45.3438 103.641 46.0625 102.594C46.7969 101.547 47.8281 100.664 49.1562 99.9453C51.25 98.8047 54.1797 98.2344 57.9453 98.2344C58.4453 98.2344 59.1172 98.25 59.9609 98.2812V94.7188C59.9609 93.5938 59.6172 92.7812 58.9297 92.2812C58.2422 91.7812 57.1641 91.5312 55.6953 91.5312C53.5547 91.5312 51.1953 92 48.6172 92.9375ZM59.9609 106.156V101.234C59.5391 101.203 58.9219 101.188 58.1094 101.188C56.7344 101.188 55.4688 101.305 54.3125 101.539C52.5938 101.883 51.2578 102.43 50.3047 103.18C49.3672 103.914 48.8984 104.977 48.8984 106.367C48.8984 108.867 50.2578 110.117 52.9766 110.117C54.3828 110.117 55.6953 109.742 56.9141 108.992C57.9141 108.367 58.9297 107.422 59.9609 106.156ZM91.3438 88.625V113.539C91.3438 115.086 91.0859 116.422 90.5703 117.547C90.0703 118.672 89.3672 119.602 88.4609 120.336C87.5703 121.07 86.5078 121.609 85.2734 121.953C84.0391 122.312 82.6953 122.492 81.2422 122.492C79.9297 122.492 78.6094 122.375 77.2812 122.141C75.9531 121.922 74.6875 121.609 73.4844 121.203C73.6875 120.656 73.8984 120.125 74.1172 119.609C74.3359 119.094 74.5547 118.578 74.7734 118.062C75.1484 118.188 75.5938 118.32 76.1094 118.461C76.6406 118.602 77.1953 118.727 77.7734 118.836C78.3672 118.961 78.9688 119.055 79.5781 119.117C80.2031 119.195 80.8047 119.234 81.3828 119.234C82.2891 119.234 83.1094 119.109 83.8438 118.859C84.5781 118.625 85.2031 118.266 85.7188 117.781C86.2344 117.297 86.625 116.695 86.8906 115.977C87.1719 115.273 87.3125 114.461 87.3125 113.539V108.242H86.8672C86.4609 108.977 85.9922 109.672 85.4609 110.328C84.9297 110.969 84.3438 111.531 83.7031 112.016C83.0625 112.5 82.3672 112.875 81.6172 113.141C80.8828 113.422 80.1016 113.562 79.2734 113.562C78.1328 113.562 77.1406 113.43 76.2969 113.164C75.4531 112.914 74.7266 112.539 74.1172 112.039C73.5234 111.523 73.0312 110.891 72.6406 110.141C72.2656 109.375 71.9766 108.492 71.7734 107.492C71.6016 106.602 71.4922 105.648 71.4453 104.633C71.3984 103.617 71.375 102.57 71.375 101.492V88.625H75.4062V102.617C75.4062 103.633 75.4531 104.586 75.5469 105.477C75.6406 106.352 75.8438 107.117 76.1562 107.773C76.4844 108.414 76.9609 108.922 77.5859 109.297C78.2109 109.656 79.0625 109.836 80.1406 109.836C80.9375 109.836 81.6875 109.648 82.3906 109.273C83.0938 108.883 83.7422 108.391 84.3359 107.797C84.9297 107.203 85.4688 106.547 85.9531 105.828C86.4531 105.109 86.9062 104.406 87.3125 103.719V88.625H91.3438Z" fill="white"/>
</g>
<defs>
<filter id="filter0_d_164_22" x="0.5" y="4" width="313" height="137" filterUnits="userSpaceOnUse" color-interpolation-filters="sRGB">
<feFlood flood-opacity="0" result="BackgroundImageFix"/>
<feColorMatrix in="SourceAlpha" type="matrix" values="0 0 0 0 0 0 0 0 0 0 0 0 0 0 0 0 0 0 127 0" result="hardAlpha"/>
<feOffset dy="4"/>
<feGaussianBlur stdDeviation="2"/>
<feComposite in2="hardAlpha" operator="out"/>
<feColorMatrix type="matrix" values="0 0 0 0 0 0 0 0 0 0 0 0 0 0 0 0 0 0 0.25 0"/>
<feBlend mode="normal" in2="BackgroundImageFix" result="effect1_dropShadow_164_22"/>
<feBlend mode="normal" in="SourceGraphic" in2="effect1_dropShadow_164_22" result="shape"/>
</filter>
<filter id="filter1_d_164_22" x="7.46875" y="13.4531" width="297.594" height="117.039" filterUnits="userSpaceOnUse" color-interpolation-filters="sRGB">
<feFlood flood-opacity="0" result="BackgroundImageFix"/>
<feColorMatrix in="SourceAlpha" type="matrix" values="0 0 0 0 0 0 0 0 0 0 0 0 0 0 0 0 0 0 127 0" result="hardAlpha"/>
<feOffset dy="4"/>
<feGaussianBlur stdDeviation="2"/>
<feComposite in2="hardAlpha" operator="out"/>
<feColorMatrix type="matrix" values="0 0 0 0 0 0 0 0 0 0 0 0 0 0 0 0 0 0 0.25 0"/>
<feBlend mode="normal" in2="BackgroundImageFix" result="effect1_dropShadow_164_22"/>
<feBlend mode="normal" in="SourceGraphic" in2="effect1_dropShadow_164_22" result="shape"/>
</filter>
</defs>
</svg>
